<svg width="1920" height="1080" viewBox="0 0 1920 1080" fill="none" xmlns="http://www.w3.org/2000/svg">
<g clip-path="url(#clip0_755_7697)">
<mask id="mask0_755_7697" style="mask-type:luminance" maskUnits="userSpaceOnUse" x="-1" y="0" width="1922" height="1080">
<path d="M1921 0H-1V1080H1921V0Z" fill="white"/>
</mask>
<g mask="url(#mask0_755_7697)">
<path d="M1926.49 338.424C1926.49 338.424 1633.57 269.6 1545.08 558.667C1481.58 766.098 1476.17 879.196 1344.46 936.224C1212.75 993.252 1136.06 1005.45 1128.2 1067.19" stroke="#808080" stroke-miterlimit="10"/>
<path d="M1474.2 1067.19C1474.2 1067.19 1396.88 875.264 1600.93 774.976C1738.67 707.276 1674.09 477.456 1763.36 404.301C1834.15 346.291 1926.49 471.551 1926.49 471.551" stroke="#808080" stroke-miterlimit="10"/>
<path d="M1534.72 1119.06C1534.72 1119.06 1537.07 970.591 1694.38 873.253C1851.7 775.915 1790.13 607.782 1880.59 582.223C1971.06 556.664 2061.52 666.78 2061.52 666.78" stroke="#808080" stroke-miterlimit="10"/>
<path d="M1645.38 1066.01C1645.38 1066.01 1633.58 944.091 1753.53 928.358C1873.48 912.625 1975.74 1045.9 1975.74 1045.9" stroke="#808080" stroke-miterlimit="10"/>
<path d="M-60.002 -13.6548C-60.002 -13.6548 22.849 132.552 227.54 106.56C457.048 77.4152 555.694 246.268 498.84 361.611C441.986 476.954 189.406 501.318 224.718 688.139C260.03 874.96 -47.006 959.439 -47.006 959.439" stroke="#808080" stroke-miterlimit="10"/>
<path d="M-121.732 155.294C-121.732 155.294 53.2156 218.652 227.29 195.908C401.364 173.164 421.72 275.408 401.364 316.123C359.126 400.597 133.319 416.844 118.697 553.303C107.707 655.882 195.049 793.732 -3.13942 866.836" stroke="#808080" stroke-miterlimit="10"/>
<path d="M-43.756 223.524C-43.756 223.524 135.066 200.709 103.144 301.501C66.557 417.033 -19.3879 415.219 61.8381 561.426C90.7291 613.426 99.202 822.974 -60.002 780.737" stroke="#808080" stroke-miterlimit="10"/>
<path d="M259.219 340.492C303.63 340.492 339.633 320.854 339.633 296.63C339.633 272.406 303.63 252.768 259.219 252.768C214.807 252.768 178.805 272.406 178.805 296.63C178.805 320.854 214.807 340.492 259.219 340.492Z" stroke="#808080" stroke-miterlimit="10"/>
<path d="M1782.84 58.9452C1784.53 58.9452 1785.91 57.5707 1785.91 55.8752C1785.91 54.1797 1784.53 52.8052 1782.84 52.8052C1781.14 52.8052 1779.77 54.1797 1779.77 55.8752C1779.77 57.5707 1781.14 58.9452 1782.84 58.9452Z" fill="white"/>
<path d="M1820.69 58.9452C1822.39 58.9452 1823.76 57.5707 1823.76 55.8752C1823.76 54.1797 1822.39 52.8052 1820.69 52.8052C1819 52.8052 1817.62 54.1797 1817.62 55.8752C1817.62 57.5707 1819 58.9452 1820.69 58.9452Z" fill="white"/>
<path d="M1858.55 58.9452C1860.24 58.9452 1861.62 57.5707 1861.62 55.8752C1861.62 54.1797 1860.24 52.8052 1858.55 52.8052C1856.85 52.8052 1855.48 54.1797 1855.48 55.8752C1855.48 57.5707 1856.85 58.9452 1858.55 58.9452Z" fill="white"/>
<path d="M1896.4 58.9452C1898.1 58.9452 1899.47 57.5707 1899.47 55.8752C1899.47 54.1797 1898.1 52.8052 1896.4 52.8052C1894.71 52.8052 1893.33 54.1797 1893.33 55.8752C1893.33 57.5707 1894.71 58.9452 1896.4 58.9452Z" fill="white"/>
<path d="M1782.84 92.1463C1784.53 92.1463 1785.91 90.7719 1785.91 89.0763C1785.91 87.3808 1784.53 86.0063 1782.84 86.0063C1781.14 86.0063 1779.77 87.3808 1779.77 89.0763C1779.77 90.7719 1781.14 92.1463 1782.84 92.1463Z" fill="white"/>
<path d="M1820.69 92.1463C1822.39 92.1463 1823.76 90.7719 1823.76 89.0763C1823.76 87.3808 1822.39 86.0063 1820.69 86.0063C1819 86.0063 1817.62 87.3808 1817.62 89.0763C1817.62 90.7719 1819 92.1463 1820.69 92.1463Z" fill="white"/>
<path d="M1858.55 92.1463C1860.24 92.1463 1861.62 90.7719 1861.62 89.0763C1861.62 87.3808 1860.24 86.0063 1858.55 86.0063C1856.85 86.0063 1855.48 87.3808 1855.48 89.0763C1855.48 90.7719 1856.85 92.1463 1858.55 92.1463Z" fill="white"/>
<path d="M1896.4 92.1463C1898.1 92.1463 1899.47 90.7719 1899.47 89.0763C1899.47 87.3808 1898.1 86.0063 1896.4 86.0063C1894.71 86.0063 1893.33 87.3808 1893.33 89.0763C1893.33 90.7719 1894.71 92.1463 1896.4 92.1463Z" fill="white"/>
<path d="M1785.91 122.276C1785.91 122.883 1785.73 123.477 1785.39 123.982C1785.05 124.487 1784.57 124.88 1784.01 125.112C1783.45 125.345 1782.83 125.406 1782.24 125.287C1781.64 125.169 1781.1 124.876 1780.67 124.447C1780.24 124.018 1779.94 123.471 1779.83 122.875C1779.71 122.279 1779.77 121.662 1780 121.101C1780.23 120.54 1780.63 120.061 1781.13 119.723C1781.64 119.386 1782.23 119.206 1782.84 119.206C1783.24 119.206 1783.64 119.285 1784.01 119.44C1784.38 119.594 1784.72 119.82 1785.01 120.105C1785.29 120.39 1785.52 120.729 1785.67 121.101C1785.83 121.474 1785.91 121.873 1785.91 122.276Z" fill="white"/>
<path d="M1823.76 122.276C1823.76 122.883 1823.58 123.477 1823.25 123.982C1822.91 124.487 1822.43 124.88 1821.87 125.112C1821.31 125.345 1820.69 125.406 1820.09 125.287C1819.5 125.169 1818.95 124.876 1818.52 124.447C1818.09 124.018 1817.8 123.471 1817.68 122.875C1817.56 122.279 1817.62 121.662 1817.86 121.101C1818.09 120.54 1818.48 120.061 1818.99 119.723C1819.49 119.386 1820.09 119.206 1820.69 119.206C1821.51 119.206 1822.29 119.529 1822.86 120.105C1823.44 120.681 1823.76 121.462 1823.76 122.276Z" fill="white"/>
<path d="M1861.62 122.276C1861.62 122.883 1861.44 123.477 1861.1 123.982C1860.76 124.486 1860.28 124.88 1859.72 125.112C1859.16 125.345 1858.55 125.405 1857.95 125.287C1857.35 125.169 1856.81 124.877 1856.38 124.447C1855.95 124.018 1855.66 123.471 1855.54 122.876C1855.42 122.28 1855.48 121.663 1855.71 121.102C1855.94 120.541 1856.34 120.061 1856.84 119.724C1857.35 119.386 1857.94 119.206 1858.55 119.206C1859.36 119.206 1860.14 119.529 1860.72 120.105C1861.29 120.681 1861.62 121.462 1861.62 122.276Z" fill="white"/>
<path d="M1899.47 122.276C1899.47 122.883 1899.29 123.477 1898.96 123.982C1898.62 124.486 1898.14 124.88 1897.58 125.112C1897.02 125.345 1896.4 125.405 1895.81 125.287C1895.21 125.169 1894.66 124.877 1894.23 124.447C1893.81 124.018 1893.51 123.471 1893.39 122.876C1893.28 122.28 1893.34 121.663 1893.57 121.102C1893.8 120.541 1894.19 120.061 1894.7 119.724C1895.2 119.386 1895.8 119.206 1896.4 119.206C1897.22 119.206 1898 119.529 1898.58 120.105C1899.15 120.681 1899.47 121.462 1899.47 122.276Z" fill="white"/>
<path d="M1774.03 379.657H1770.89V394.274H1774.03V379.657Z" fill="white"/>
<path d="M1779.77 388.535V385.396H1765.15V388.535H1779.77Z" fill="white"/>
<path d="M174.362 125.347H171.223V139.964H174.362V125.347Z" fill="white"/>
<path d="M180.102 134.225V131.086H165.485V134.225H180.102Z" fill="white"/>
<path d="M1870.13 942.651L1855.13 927.652C1854.8 927.323 1854.27 927.323 1853.94 927.652L1838.94 942.651C1838.61 942.979 1838.61 943.512 1838.94 943.84L1853.94 958.839C1854.27 959.168 1854.8 959.168 1855.13 958.839L1870.13 943.84C1870.45 943.512 1870.45 942.979 1870.13 942.651Z" stroke="#E0363A" stroke-miterlimit="10"/>
<path d="M1861.16 942.991L1854.78 936.617C1854.64 936.478 1854.42 936.478 1854.28 936.617L1847.9 942.991C1847.76 943.131 1847.76 943.357 1847.9 943.497L1854.28 949.871C1854.42 950.011 1854.64 950.011 1854.78 949.871L1861.16 943.497C1861.3 943.357 1861.3 943.131 1861.16 942.991Z" fill="white"/>
<path d="M56.7947 1033.94L50.4211 1027.56C50.2813 1027.42 50.0546 1027.42 49.9149 1027.56L43.5413 1033.94C43.4015 1034.08 43.4015 1034.3 43.5413 1034.44L49.9149 1040.82C50.0546 1040.96 50.2813 1040.96 50.4211 1040.82L56.7947 1034.44C56.9345 1034.3 56.9345 1034.08 56.7947 1033.94Z" fill="white"/>
<path d="M116.536 370.301C118.176 370.301 119.504 368.972 119.504 367.333C119.504 365.694 118.176 364.365 116.536 364.365C114.897 364.365 113.568 365.694 113.568 367.333C113.568 368.972 114.897 370.301 116.536 370.301Z" fill="white"/>
<path d="M116.536 441.532C118.176 441.532 119.504 440.203 119.504 438.564C119.504 436.925 118.176 435.596 116.536 435.596C114.897 435.596 113.568 436.925 113.568 438.564C113.568 440.203 114.897 441.532 116.536 441.532Z" fill="#E0363A"/>
<path d="M116.536 405.917C118.176 405.917 119.504 404.589 119.504 402.949C119.504 401.31 118.176 399.981 116.536 399.981C114.897 399.981 113.568 401.31 113.568 402.949C113.568 404.589 114.897 405.917 116.536 405.917Z" fill="white"/>
<path d="M116.536 477.148C118.176 477.148 119.504 475.82 119.504 474.18C119.504 472.541 118.176 471.212 116.536 471.212C114.897 471.212 113.568 472.541 113.568 474.18C113.568 475.82 114.897 477.148 116.536 477.148Z" fill="#E0363A"/>
<path d="M187.767 370.301C189.406 370.301 190.735 368.972 190.735 367.333C190.735 365.694 189.406 364.365 187.767 364.365C186.128 364.365 184.799 365.694 184.799 367.333C184.799 368.972 186.128 370.301 187.767 370.301Z" fill="#E0363A"/>
<path d="M187.767 441.532C189.406 441.532 190.735 440.203 190.735 438.564C190.735 436.925 189.406 435.596 187.767 435.596C186.128 435.596 184.799 436.925 184.799 438.564C184.799 440.203 186.128 441.532 187.767 441.532Z" fill="#E0363A"/>
<path d="M187.767 405.917C189.406 405.917 190.735 404.589 190.735 402.949C190.735 401.31 189.406 399.981 187.767 399.981C186.128 399.981 184.799 401.31 184.799 402.949C184.799 404.589 186.128 405.917 187.767 405.917Z" fill="#E0363A"/>
<path d="M187.767 477.148C189.406 477.148 190.735 475.82 190.735 474.18C190.735 472.541 189.406 471.212 187.767 471.212C186.128 471.212 184.799 472.541 184.799 474.18C184.799 475.82 186.128 477.148 187.767 477.148Z" fill="#E0363A"/>
<path d="M152.152 370.301C153.791 370.301 155.12 368.972 155.12 367.333C155.12 365.694 153.791 364.365 152.152 364.365C150.512 364.365 149.184 365.694 149.184 367.333C149.184 368.972 150.512 370.301 152.152 370.301Z" fill="white"/>
<path d="M152.152 441.532C153.791 441.532 155.12 440.203 155.12 438.564C155.12 436.925 153.791 435.596 152.152 435.596C150.512 435.596 149.184 436.925 149.184 438.564C149.184 440.203 150.512 441.532 152.152 441.532Z" fill="#E0363A"/>
<path d="M152.152 405.917C153.791 405.917 155.12 404.589 155.12 402.949C155.12 401.31 153.791 399.981 152.152 399.981C150.512 399.981 149.184 401.31 149.184 402.949C149.184 404.589 150.512 405.917 152.152 405.917Z" fill="white"/>
<path d="M152.152 477.148C153.791 477.148 155.12 475.82 155.12 474.18C155.12 472.541 153.791 471.212 152.152 471.212C150.512 471.212 149.184 472.541 149.184 474.18C149.184 475.82 150.512 477.148 152.152 477.148Z" fill="#E0363A"/>
<path d="M223.384 370.301C225.023 370.301 226.352 368.972 226.352 367.333C226.352 365.694 225.023 364.365 223.384 364.365C221.745 364.365 220.416 365.694 220.416 367.333C220.416 368.972 221.745 370.301 223.384 370.301Z" fill="#E0363A"/>
<path d="M223.384 441.532C225.023 441.532 226.352 440.203 226.352 438.564C226.352 436.925 225.023 435.596 223.384 435.596C221.745 435.596 220.416 436.925 220.416 438.564C220.416 440.203 221.745 441.532 223.384 441.532Z" fill="#E0363A"/>
<path d="M223.384 405.917C225.023 405.917 226.352 404.589 226.352 402.949C226.352 401.31 225.023 399.981 223.384 399.981C221.745 399.981 220.416 401.31 220.416 402.949C220.416 404.589 221.745 405.917 223.384 405.917Z" fill="#E0363A"/>
<path d="M223.384 477.148C225.023 477.148 226.352 475.82 226.352 474.18C226.352 472.541 225.023 471.212 223.384 471.212C221.745 471.212 220.416 472.541 220.416 474.18C220.416 475.82 221.745 477.148 223.384 477.148Z" fill="#E0363A"/>
</g>
</g>
<defs>
<clipPath id="clip0_755_7697">
<rect width="1922" height="1080" fill="white" transform="translate(-1)"/>
</clipPath>
</defs>
</svg>
