<svg width="112" height="112" viewBox="0 0 112 112" fill="none" xmlns="http://www.w3.org/2000/svg">
<path d="M76.3991 69.7822C76.2327 69.3203 75.8896 68.9434 75.4453 68.7345C75.0011 68.5256 74.492 68.5017 74.0301 68.6682C73.5682 68.8346 73.1914 69.1777 72.9825 69.6219C72.7736 70.0662 72.7497 70.5753 72.9161 71.0372C72.9251 71.0612 72.9341 71.0842 72.9431 71.1072C74.6311 75.5122 74.7531 78.8812 73.2761 80.3622C71.4841 82.1502 67.0221 81.5912 61.3361 78.8702C53.7236 74.9173 46.8041 69.7537 40.8481 63.5812C26.3481 49.0812 20.3681 34.8532 24.0681 31.1532C24.6514 30.6927 25.3289 30.3664 26.0526 30.1975C26.7763 30.0287 27.5283 30.0214 28.2551 30.1762C28.7357 30.209 29.2101 30.0533 29.5776 29.742C29.9452 29.4307 30.1769 28.9884 30.2237 28.509C30.2704 28.0297 30.1284 27.5509 29.8279 27.1745C29.5274 26.7981 29.092 26.5537 28.6141 26.4932C27.3439 26.2684 26.0393 26.3349 24.7985 26.6876C23.5578 27.0402 22.4132 27.6699 21.4511 28.5292C14.6691 35.3092 25.0361 52.9942 38.2311 66.1912C44.4828 72.6608 51.7475 78.0681 59.7391 82.2002C61.1862 82.8931 62.6774 83.4897 64.2031 83.9862L51.0531 88.9722C42.4264 85.6923 34.8191 80.1918 29.0012 73.0273C23.1834 65.8627 19.3614 57.2884 17.9221 48.1722C17.8868 47.9299 17.8039 47.6971 17.678 47.4871C17.5521 47.2772 17.3858 47.0943 17.1888 46.949C16.9917 46.8037 16.7678 46.699 16.53 46.6409C16.2922 46.5827 16.0453 46.5723 15.8034 46.6103C15.5616 46.6483 15.3297 46.7338 15.1211 46.862C14.9126 46.9902 14.7315 47.1585 14.5885 47.3571C14.4454 47.5558 14.3431 47.7808 14.2876 48.0193C14.2321 48.2577 14.2245 48.5048 14.2651 48.7462C15.6976 57.8368 19.3469 66.4348 24.8906 73.7805C30.4343 81.1262 37.7018 86.9935 46.0511 90.8642L24.4061 99.0542C24.307 98.8884 24.1821 98.7396 24.0361 98.6132C21.314 96.4283 19.0638 93.7136 17.4217 90.6335C15.7796 87.5534 14.7799 84.172 14.4831 80.6942L13.6241 70.2942C13.591 69.8107 13.3674 69.3601 13.0023 69.0413C12.6373 68.7226 12.1607 68.5618 11.6771 68.5942H11.6201C11.3777 68.6132 11.1413 68.6799 10.9247 68.7904C10.708 68.9008 10.5152 69.0529 10.3573 69.2379C10.1994 69.4229 10.0796 69.6372 10.0045 69.8685C9.92953 70.0999 9.90084 70.3437 9.92012 70.5862C9.92012 70.5862 9.92012 70.5952 9.92012 70.5992L10.7941 80.9992C11.4446 88.5123 14.9492 95.4907 20.5871 100.499L5.14712 106.344L7.92312 94.9502C8.03941 94.4728 7.96131 93.9687 7.70598 93.5489C7.45064 93.1291 7.03901 92.828 6.56162 92.7117C6.08423 92.5954 5.58019 92.6735 5.16039 92.9288C4.74059 93.1841 4.43941 93.5958 4.32312 94.0732L0.719117 108.875C0.638904 109.203 0.649738 109.546 0.750448 109.868C0.851158 110.19 1.03791 110.478 1.29054 110.702C1.54317 110.925 1.85207 111.075 2.18386 111.136C2.51565 111.197 2.85772 111.166 3.17312 111.046L71.6571 85.1332C71.7659 85.0798 71.8689 85.0151 71.9641 84.9402C73.4464 84.7126 74.8205 84.0273 75.8941 82.9802C77.7281 81.1462 79.3071 77.3652 76.3991 69.7822Z" fill="#2B335B"/>
<path d="M93.8663 65.0091C83.8605 61.2631 73.0458 60.2131 62.5063 61.9641L55.8933 63.0751C55.4194 63.1669 55.0002 63.4403 54.7249 63.8368C54.4497 64.2334 54.3402 64.7218 54.4199 65.1978C54.4996 65.6739 54.7621 66.1001 55.1515 66.3853C55.5409 66.6706 56.0263 66.7926 56.5043 66.7251L63.1153 65.6251C73.0137 63.9795 83.1709 64.9665 92.5673 68.4871C92.776 68.5609 92.9959 68.5978 93.2173 68.5961C93.6513 68.5966 94.0718 68.4446 94.4051 68.1667C94.7385 67.8887 94.9635 67.5024 95.041 67.0753C95.1184 66.6482 95.0433 66.2075 94.8287 65.8302C94.6142 65.4529 94.2739 65.1629 93.8673 65.0111L93.8663 65.0091Z" fill="#2B335B"/>
<path d="M100.444 36.3332C100.233 35.89 99.8548 35.5489 99.3921 35.3848C98.9295 35.2207 98.4206 35.2471 97.9774 35.4582L59.1084 53.9672C58.8889 54.0717 58.6921 54.2183 58.5293 54.3988C58.3665 54.5794 58.2408 54.7902 58.1594 55.0193C58.0781 55.2484 58.0427 55.4912 58.0552 55.734C58.0677 55.9768 58.1279 56.2147 58.2324 56.4342C58.3369 56.6537 58.4836 56.8505 58.6641 57.0133C58.8446 57.1762 59.0554 57.3018 59.2845 57.3832C59.5136 57.4645 59.7564 57.5 59.9992 57.4874C60.242 57.4749 60.4799 57.4147 60.6994 57.3102L99.5684 38.8012C99.7881 38.6967 99.985 38.55 100.148 38.3695C100.311 38.1889 100.437 37.9779 100.518 37.7487C100.599 37.5195 100.635 37.2766 100.622 37.0337C100.609 36.7908 100.549 36.5527 100.444 36.3332Z" fill="#2B335B"/>
<path d="M45.6176 12.672C45.5199 12.1909 45.235 11.7683 44.8257 11.4973C44.4164 11.2262 43.9162 11.1288 43.4351 11.2265C42.954 11.3242 42.5314 11.6091 42.2604 12.0184C41.9893 12.4277 41.8919 12.9279 41.9896 13.409C41.9896 13.431 41.9986 13.453 42.0046 13.475C44.3482 23.9427 43.3828 34.8798 39.2416 44.775L36.5506 51.233C36.3637 51.6851 36.3633 52.1927 36.5496 52.6451C36.7358 53.0974 37.0936 53.4576 37.5446 53.647C37.7697 53.7418 38.0114 53.7904 38.2556 53.79C38.6208 53.79 38.9779 53.6819 39.2818 53.4794C39.5857 53.2769 39.8229 52.989 39.9636 52.652L42.6566 46.202C47.0938 35.6021 48.1285 23.8855 45.6176 12.672Z" fill="#2B335B"/>
<path d="M102.471 66.7432C101.373 66.7432 100.299 67.0688 99.3859 67.679C98.4727 68.2892 97.761 69.1564 97.3407 70.1711C96.9204 71.1858 96.8104 72.3023 97.0247 73.3795C97.2389 74.4567 97.7678 75.4461 98.5444 76.2227C99.321 76.9993 100.31 77.5282 101.388 77.7425C102.465 77.9567 103.581 77.8467 104.596 77.4265C105.611 77.0062 106.478 76.2944 107.088 75.3813C107.698 74.4681 108.024 73.3945 108.024 72.2962C108.024 70.8234 107.439 69.411 106.398 68.3696C105.356 67.3282 103.944 66.7432 102.471 66.7432ZM102.471 74.1432C102.105 74.1432 101.747 74.0346 101.443 73.8312C101.138 73.6278 100.901 73.3387 100.761 73.0005C100.621 72.6623 100.584 72.2901 100.656 71.9311C100.727 71.572 100.903 71.2422 101.162 70.9833C101.421 70.7244 101.751 70.5482 102.11 70.4767C102.469 70.4053 102.841 70.442 103.179 70.5821C103.518 70.7222 103.807 70.9594 104.01 71.2638C104.213 71.5682 104.322 71.9261 104.322 72.2922C104.322 72.7831 104.127 73.2539 103.78 73.601C103.433 73.9481 102.962 74.1432 102.471 74.1432Z" fill="#2B335B"/>
<path d="M58.0491 14.917C56.9508 14.917 55.8772 15.2427 54.964 15.8528C54.0508 16.463 53.3391 17.3303 52.9188 18.3449C52.4985 19.3596 52.3885 20.4762 52.6028 21.5533C52.8171 22.6305 53.3459 23.62 54.1225 24.3966C54.8991 25.1732 55.8886 25.702 56.9658 25.9163C58.0429 26.1306 59.1595 26.0206 60.1741 25.6003C61.1888 25.18 62.0561 24.4683 62.6662 23.5551C63.2764 22.6419 63.6021 21.5683 63.6021 20.47C63.6021 18.9972 63.017 17.5848 61.9757 16.5434C60.9343 15.502 59.5218 14.917 58.0491 14.917ZM58.0491 22.317C57.683 22.317 57.3251 22.2084 57.0207 22.005C56.7163 21.8017 56.4791 21.5126 56.339 21.1743C56.1989 20.8361 56.1622 20.4639 56.2337 20.1049C56.3051 19.7458 56.4814 19.416 56.7402 19.1571C56.9991 18.8983 57.3289 18.722 57.688 18.6506C58.047 18.5791 58.4192 18.6158 58.7574 18.7559C59.0957 18.896 59.3848 19.1332 59.5881 19.4376C59.7915 19.742 59.9001 20.0999 59.9001 20.466C59.9001 20.9569 59.7051 21.4277 59.358 21.7748C59.0108 22.122 58.54 22.317 58.0491 22.317Z" fill="#2B335B"/>
<path d="M41.3915 7.51411C43.436 7.51411 45.0935 5.85667 45.0935 3.81211C45.0935 1.76755 43.436 0.110107 41.3915 0.110107C39.3469 0.110107 37.6895 1.76755 37.6895 3.81211C37.6895 5.85667 39.3469 7.51411 41.3915 7.51411Z" fill="#2B335B"/>
<path d="M93.2162 9.36499C92.7253 9.36499 92.2545 9.56001 91.9074 9.90714C91.5602 10.2543 91.3652 10.7251 91.3652 11.216V13.065C91.381 13.5451 91.5829 14.0003 91.9281 14.3343C92.2733 14.6684 92.7348 14.8552 93.2152 14.8552C93.6956 14.8552 94.1572 14.6684 94.5024 14.3343C94.8476 14.0003 95.0494 13.5451 95.0652 13.065V11.216C95.0652 10.7254 94.8705 10.2549 94.5238 9.90784C94.1771 9.56077 93.7068 9.36552 93.2162 9.36499Z" fill="#2B335B"/>
<path d="M93.2162 0.110107C92.7253 0.110107 92.2545 0.305123 91.9074 0.652253C91.5602 0.999383 91.3652 1.47019 91.3652 1.96111V3.81011C91.381 4.29023 91.5829 4.74541 91.9281 5.07946C92.2733 5.41351 92.7348 5.60027 93.2152 5.60027C93.6956 5.60027 94.1572 5.41351 94.5024 5.07946C94.8476 4.74541 95.0494 4.29023 95.0652 3.81011V1.96111C95.0652 1.47054 94.8705 1.00003 94.5238 0.652959C94.1771 0.305887 93.7068 0.110637 93.2162 0.110107Z" fill="#2B335B"/>
<path d="M98.7687 5.66311H96.9177C96.6696 5.65495 96.4225 5.69677 96.1909 5.78607C95.9593 5.87537 95.7481 6.01033 95.5697 6.18292C95.3913 6.35551 95.2495 6.56222 95.1526 6.79073C95.0558 7.01925 95.0059 7.26491 95.0059 7.51311C95.0059 7.76131 95.0558 8.00697 95.1526 8.23549C95.2495 8.464 95.3913 8.6707 95.5697 8.8433C95.7481 9.01589 95.9593 9.15085 96.1909 9.24015C96.4225 9.32945 96.6696 9.37127 96.9177 9.36311H98.7687C99.2488 9.34732 99.704 9.14549 100.038 8.80028C100.372 8.45506 100.559 7.99349 100.559 7.51311C100.559 7.03273 100.372 6.57116 100.038 6.22594C99.704 5.88072 99.2488 5.6789 98.7687 5.66311Z" fill="#2B335B"/>
<path d="M89.5148 5.66311H87.6638C87.4157 5.65495 87.1686 5.69677 86.937 5.78607C86.7054 5.87537 86.4942 6.01033 86.3158 6.18292C86.1374 6.35551 85.9956 6.56222 85.8987 6.79073C85.8019 7.01925 85.752 7.26491 85.752 7.51311C85.752 7.76131 85.8019 8.00697 85.8987 8.23549C85.9956 8.464 86.1374 8.6707 86.3158 8.8433C86.4942 9.01589 86.7054 9.15085 86.937 9.24015C87.1686 9.32945 87.4157 9.37127 87.6638 9.36311H89.5148C89.9949 9.34732 90.4501 9.14549 90.7841 8.80028C91.1182 8.45506 91.305 7.99349 91.305 7.51311C91.305 7.03273 91.1182 6.57116 90.7841 6.22594C90.4501 5.88072 89.9949 5.6789 89.5148 5.66311Z" fill="#2B335B"/>
<path d="M80.2592 20.4312H70.9662C70.4753 20.4312 70.0045 20.6262 69.6574 20.9733C69.3102 21.3204 69.1152 21.7912 69.1152 22.2822V31.5751C69.1152 32.0661 69.3102 32.5369 69.6574 32.884C70.0045 33.2311 70.4753 33.4262 70.9662 33.4262H80.2592C80.7501 33.4262 81.221 33.2311 81.5681 32.884C81.9152 32.5369 82.1102 32.0661 82.1102 31.5751V22.2822C82.1102 22.0391 82.0624 21.7984 81.9693 21.5738C81.8763 21.3492 81.74 21.1452 81.5681 20.9733C81.3962 20.8014 81.1921 20.6651 80.9676 20.5721C80.743 20.479 80.5023 20.4312 80.2592 20.4312ZM78.4082 29.7242H72.8162V24.1331H78.4082V29.7242Z" fill="#2B335B"/>
<path d="M66.776 35.8881C66.4489 35.5391 65.9996 35.3302 65.5219 35.3053C65.0443 35.2803 64.5756 35.4411 64.214 35.7541L45.705 52.4121C45.3528 52.7438 45.1445 53.2002 45.1246 53.6836C45.1047 54.167 45.2749 54.6389 45.5987 54.9984C45.9225 55.3578 46.3741 55.5763 46.857 55.6069C47.3398 55.6375 47.8154 55.4778 48.182 55.1621L66.686 38.5041C67.0448 38.1691 67.2558 37.7053 67.2727 37.2147C67.2896 36.7242 67.1109 36.247 66.776 35.8881Z" fill="#2B335B"/>
<path d="M100.62 42.6812C100.129 42.6812 99.6579 42.8762 99.3107 43.2233C98.9636 43.5704 98.7686 44.0412 98.7686 44.5322V46.3811C98.7604 46.6292 98.8022 46.8764 98.8915 47.108C98.9808 47.3395 99.1158 47.5508 99.2884 47.7292C99.461 47.9075 99.6677 48.0493 99.8962 48.1462C100.125 48.2431 100.37 48.293 100.619 48.293C100.867 48.293 101.112 48.2431 101.341 48.1462C101.569 48.0493 101.776 47.9075 101.949 47.7292C102.121 47.5508 102.256 47.3395 102.346 47.108C102.435 46.8764 102.477 46.6292 102.469 46.3811V44.5302C102.468 44.0399 102.273 43.5699 101.926 43.2233C101.58 42.8767 101.11 42.6817 100.62 42.6812Z" fill="#2B335B"/>
<path d="M108.473 42.362L107.164 41.053C106.814 40.7192 106.348 40.5355 105.865 40.5411C105.381 40.5468 104.919 40.7413 104.577 41.0832C104.235 41.425 104.041 41.8871 104.035 42.3705C104.03 42.8539 104.213 43.3203 104.547 43.67L105.856 44.9791C106.206 45.3129 106.672 45.4966 107.156 45.491C107.639 45.4853 108.101 45.2908 108.443 44.9489C108.785 44.6071 108.979 44.145 108.985 43.6616C108.991 43.1782 108.807 42.7118 108.473 42.362Z" fill="#2B335B"/>
<path d="M109.874 35.2771H108.023C107.775 35.269 107.528 35.3108 107.296 35.4001C107.065 35.4894 106.854 35.6243 106.675 35.7969C106.497 35.9695 106.355 36.1762 106.258 36.4047C106.161 36.6333 106.111 36.8789 106.111 37.1271C106.111 37.3753 106.161 37.621 106.258 37.8495C106.355 38.078 106.497 38.2847 106.675 38.4573C106.854 38.6299 107.065 38.7649 107.296 38.8542C107.528 38.9435 107.775 38.9853 108.023 38.9771H109.874C110.354 38.9613 110.809 38.7595 111.144 38.4143C111.478 38.0691 111.664 37.6075 111.664 37.1271C111.664 36.6467 111.478 36.1852 111.144 35.84C110.809 35.4947 110.354 35.2929 109.874 35.2771Z" fill="#2B335B"/>
<path d="M108.426 29.276C108.081 28.9427 107.62 28.7563 107.14 28.7563C106.66 28.7563 106.199 28.9427 105.854 29.276L104.545 30.585C104.287 30.844 104.111 31.1737 104.039 31.5326C103.968 31.8916 104.005 32.2636 104.145 32.6016C104.285 32.9397 104.522 33.2286 104.826 33.432C105.131 33.6353 105.488 33.7439 105.854 33.744C106.097 33.7441 106.338 33.6962 106.563 33.6032C106.787 33.5102 106.991 33.3739 107.163 33.202L108.472 31.893C108.813 31.5399 109 31.0658 108.991 30.575C108.982 30.0842 108.779 29.617 108.426 29.276Z" fill="#2B335B"/>
<path d="M100.621 26.0232C100.13 26.0232 99.6588 26.2182 99.3117 26.5653C98.9645 26.9125 98.7695 27.3833 98.7695 27.8742V29.7232C98.7853 30.2033 98.9871 30.6585 99.3324 30.9925C99.6776 31.3266 100.139 31.5134 100.62 31.5134C101.1 31.5134 101.561 31.3266 101.907 30.9925C102.252 30.6585 102.454 30.2033 102.47 29.7232V27.8722C102.469 27.382 102.274 26.912 101.927 26.5653C101.581 26.2187 101.111 26.0237 100.621 26.0232Z" fill="#2B335B"/>
<path d="M96.6939 30.5852L95.3849 29.2762C95.0352 28.9424 94.5687 28.7587 94.0853 28.7643C93.6019 28.7699 93.1399 28.9644 92.798 29.3063C92.4562 29.6482 92.2616 30.1102 92.256 30.5936C92.2504 31.077 92.4341 31.5435 92.7679 31.8932L94.0769 33.2022C94.4266 33.536 94.893 33.7197 95.3765 33.7141C95.8599 33.7085 96.3219 33.5139 96.6638 33.1721C97.0056 32.8302 97.2002 32.3682 97.2058 31.8848C97.2114 31.4013 97.0277 30.9349 96.6939 30.5852Z" fill="#2B335B"/>
<path d="M22.7904 8.11308C22.6836 7.78478 22.4871 7.4929 22.2231 7.27042C21.9591 7.04794 21.6381 6.90373 21.2964 6.85408L15.8644 6.06408L13.4414 1.14208C13.2712 0.853021 13.0285 0.6134 12.7373 0.446921C12.446 0.280441 12.1164 0.192871 11.7809 0.192871C11.4455 0.192871 11.1158 0.280441 10.8246 0.446921C10.5334 0.6134 10.2907 0.853021 10.1204 1.14208L7.68644 6.06408L2.25444 6.85408C1.91264 6.90344 1.59146 7.04743 1.32721 7.26978C1.06297 7.49213 0.866199 7.78397 0.759146 8.1123C0.652094 8.44064 0.639031 8.79237 0.721432 9.12774C0.803834 9.46311 0.978415 9.76875 1.22544 10.0101L5.15444 13.8411L4.22944 19.2511C4.16923 19.5923 4.20601 19.9436 4.3356 20.265C4.46518 20.5863 4.68237 20.8649 4.96245 21.0689C5.24253 21.2729 5.57424 21.3942 5.91986 21.419C6.26548 21.4438 6.61111 21.371 6.91744 21.2091L11.7724 18.6481L16.6314 21.2021C16.9371 21.3629 17.2817 21.4349 17.6262 21.41C17.9707 21.3852 18.3014 21.2645 18.5809 21.0615C18.8603 20.8585 19.0774 20.5814 19.2076 20.2614C19.3377 19.9415 19.3758 19.5915 19.3174 19.2511L18.3924 13.8411L22.3234 10.0101C22.5704 9.76889 22.7451 9.46343 22.8276 9.12821C22.9101 8.79299 22.8972 8.44137 22.7904 8.11308ZM15.1074 11.8701C14.8924 12.0791 14.7314 12.3371 14.6382 12.6221C14.545 12.9071 14.5224 13.2104 14.5724 13.5061L15.0314 16.1811L12.6314 14.9171C12.366 14.7777 12.0707 14.7049 11.7709 14.7049C11.4712 14.7049 11.1759 14.7777 10.9104 14.9171L8.50844 16.1791L8.96744 13.5041C9.01856 13.2097 8.9976 12.9072 8.90635 12.6227C8.81509 12.3381 8.65626 12.0799 8.44344 11.8701L6.49844 9.97708L9.18444 9.58608C9.48142 9.54303 9.76349 9.42842 10.0063 9.25213C10.2492 9.07583 10.4455 8.84313 10.5784 8.57408L11.7784 6.14408L12.9784 8.57408C13.1112 8.84288 13.3072 9.07542 13.5497 9.2517C13.7921 9.42798 14.0738 9.54273 14.3704 9.58608L17.0544 9.97708L15.1074 11.8701Z" fill="#2B335B"/>
<path d="M105.473 92.8862H105.466L104.703 91.7422C102.587 88.5785 99.8471 85.8805 96.6512 83.8139C93.4553 81.7472 89.8708 80.3556 86.1176 79.7242C85.6396 79.6568 85.1542 79.7787 84.7648 80.064C84.3754 80.3493 84.1129 80.7754 84.0332 81.2515C83.9535 81.7275 84.063 82.2159 84.3382 82.6125C84.6134 83.009 85.0327 83.2824 85.5066 83.3742C90.9777 84.303 95.9639 87.0827 99.6306 91.2482C98.1073 91.5228 96.6597 92.118 95.3839 92.9945C94.1081 93.871 93.0333 95.0088 92.2306 96.3322C91.7566 97.1812 91.4544 98.1151 91.3414 99.0808C91.2283 100.047 91.3066 101.025 91.5717 101.961C91.8368 102.896 92.2836 103.77 92.8865 104.533C93.4894 105.296 94.2367 105.932 95.0856 106.406C95.9345 106.88 96.8685 107.182 97.8342 107.295C98.7999 107.408 99.7784 107.33 100.714 107.065C101.649 106.8 102.523 106.353 103.286 105.75C104.049 105.147 104.686 104.4 105.16 103.551C105.921 102.081 106.331 100.455 106.36 98.8002C107.325 100.202 107.875 101.848 107.946 103.548C108.018 105.248 107.608 106.934 106.765 108.412C106.514 108.834 106.442 109.339 106.563 109.815C106.684 110.29 106.99 110.698 107.412 110.949C107.834 111.199 108.339 111.272 108.814 111.15C109.29 111.029 109.698 110.723 109.949 110.301C109.966 110.273 109.982 110.244 109.997 110.215C111.628 107.302 112.067 103.87 111.224 100.64C110.381 97.4092 108.319 94.6306 105.473 92.8862ZM101.928 101.744C101.453 102.604 100.657 103.24 99.7137 103.512C98.7705 103.785 97.7577 103.671 96.8981 103.197C96.0385 102.722 95.4026 101.926 95.1302 100.983C94.8578 100.04 94.9712 99.0268 95.4456 98.1672L95.4626 98.1372C96.0019 97.2543 96.7319 96.5032 97.5991 95.9389C98.4664 95.3746 99.4488 95.0115 100.475 94.8762C100.796 94.8677 101.115 94.9417 101.4 95.0912C102.963 95.9632 103.046 99.7422 101.928 101.745V101.744Z" fill="#2B335B"/>
</svg>
