<svg width="74" height="74" viewBox="0 0 74 74" fill="none" xmlns="http://www.w3.org/2000/svg">
<circle cx="37" cy="37" r="37" fill="#FFF1F1"/>
<path d="M44.5 29.5C44.5 31.4891 43.7098 33.3968 42.3033 34.8033C40.8968 36.2098 38.9891 37 37 37C35.0109 37 33.1032 36.2098 31.6967 34.8033C30.2902 33.3968 29.5 31.4891 29.5 29.5C29.5 27.5109 30.2902 25.6032 31.6967 24.1967C33.1032 22.7902 35.0109 22 37 22C38.9891 22 40.8968 22.7902 42.3033 24.1967C43.7098 25.6032 44.5 27.5109 44.5 29.5ZM37 34.5C38.3261 34.5 39.5979 33.9732 40.5355 33.0355C41.4732 32.0979 42 30.8261 42 29.5C42 28.1739 41.4732 26.9021 40.5355 25.9645C39.5979 25.0268 38.3261 24.5 37 24.5C35.6739 24.5 34.4021 25.0268 33.4645 25.9645C32.5268 26.9021 32 28.1739 32 29.5C32 30.8261 32.5268 32.0979 33.4645 33.0355C34.4021 33.9732 35.6739 34.5 37 34.5ZM37.64 52C37.3532 51.1882 37.1611 50.3459 37.0675 49.49H24.5C24.5025 48.875 24.885 47.025 26.58 45.33C28.21 43.7 31.2775 42 37 42C37.65 42 38.2675 42.0225 38.85 42.0625C39.415 41.21 40.09 40.4375 40.86 39.7675C39.6925 39.595 38.41 39.5 37 39.5C24.5 39.5 22 47 22 49.5C22 52 24.5 52 24.5 52H37.64Z" fill="#EF4F4E"/>
<path d="M48.25 57C50.5706 57 52.7962 56.0781 54.4372 54.4372C56.0781 52.7962 57 50.5706 57 48.25C57 45.9294 56.0781 43.7038 54.4372 42.0628C52.7962 40.4219 50.5706 39.5 48.25 39.5C45.9294 39.5 43.7038 40.4219 42.0628 42.0628C40.4219 43.7038 39.5 45.9294 39.5 48.25C39.5 50.5706 40.4219 52.7962 42.0628 54.4372C43.7038 56.0781 45.9294 57 48.25 57ZM46.635 44.865L48.25 46.4825L49.865 44.865C50.0997 44.6303 50.4181 44.4984 50.75 44.4984C51.0819 44.4984 51.4003 44.6303 51.635 44.865C51.8697 45.0997 52.0016 45.4181 52.0016 45.75C52.0016 46.0819 51.8697 46.4003 51.635 46.635L50.0175 48.25L51.635 49.865C51.8697 50.0997 52.0016 50.4181 52.0016 50.75C52.0016 51.0819 51.8697 51.4003 51.635 51.635C51.4003 51.8697 51.0819 52.0016 50.75 52.0016C50.4181 52.0016 50.0997 51.8697 49.865 51.635L48.25 50.0175L46.635 51.635C46.4003 51.8697 46.0819 52.0016 45.75 52.0016C45.4181 52.0016 45.0997 51.8697 44.865 51.635C44.6303 51.4003 44.4984 51.0819 44.4984 50.75C44.4984 50.4181 44.6303 50.0997 44.865 49.865L46.4825 48.25L44.865 46.635C44.6303 46.4003 44.4984 46.0819 44.4984 45.75C44.4984 45.4181 44.6303 45.0997 44.865 44.865C45.0997 44.6303 45.4181 44.4984 45.75 44.4984C46.0819 44.4984 46.4003 44.6303 46.635 44.865Z" fill="#EF4F4E"/>
</svg>
