<svg width="74" height="74" viewBox="0 0 74 74" fill="none" xmlns="http://www.w3.org/2000/svg">
<circle cx="37" cy="37" r="37" fill="#FFF1F1"/>
<path d="M37.0001 40.3333C37.9168 40.3333 38.7018 40.0066 39.3551 39.3533C40.0084 38.6999 40.3345 37.9155 40.3334 36.9999C40.3334 36.0833 40.0068 35.2983 39.3534 34.6449C38.7001 33.9916 37.9156 33.6655 37.0001 33.6666C36.0834 33.6666 35.2984 33.9933 34.6451 34.6466C33.9918 35.2999 33.6656 36.0844 33.6668 36.9999C33.6668 37.9166 33.9934 38.7016 34.6468 39.3549C35.3001 40.0083 36.0845 40.3344 37.0001 40.3333ZM30.3334 46.9999H43.6667V46.0416C43.6667 45.3749 43.4862 44.7638 43.1251 44.2083C42.764 43.6527 42.264 43.236 41.6251 42.9583C40.9029 42.6527 40.1595 42.4166 39.3951 42.2499C38.6306 42.0833 37.8323 41.9999 37.0001 41.9999C36.1668 41.9999 35.3679 42.0833 34.6034 42.2499C33.839 42.4166 33.0962 42.6527 32.3751 42.9583C31.7362 43.236 31.2362 43.6527 30.8751 44.2083C30.514 44.7638 30.3334 45.3749 30.3334 46.0416V46.9999ZM47.0001 53.6666H27.0001C26.0834 53.6666 25.2984 53.3399 24.6451 52.6866C23.9918 52.0333 23.6656 51.2488 23.6668 50.3333V23.6666C23.6668 22.7499 23.9934 21.9649 24.6468 21.3116C25.3001 20.6583 26.0845 20.3321 27.0001 20.3333H40.3334L50.3334 30.3333V50.3333C50.3334 51.2499 50.0068 52.0349 49.3534 52.6883C48.7001 53.3416 47.9156 53.6677 47.0001 53.6666ZM47.0001 50.3333V31.7499L38.9167 23.6666H27.0001V50.3333H47.0001Z" fill="#EF4F4E"/>
</svg>
