<svg width="24" height="24" viewBox="0 0 24 24" fill="none" xmlns="http://www.w3.org/2000/svg">
<path d="M11 18C10.7167 18 10.479 17.904 10.287 17.712C10.095 17.52 9.99934 17.2827 10 17C10 16.7167 10.096 16.479 10.288 16.287C10.48 16.095 10.7173 15.9993 11 16H13C13.2833 16 13.521 16.096 13.713 16.288C13.905 16.48 14.0007 16.7173 14 17C14 17.2833 13.904 17.521 13.712 17.713C13.52 17.905 13.2827 18.0007 13 18H11ZM4 8C3.71667 8 3.479 7.904 3.287 7.712C3.095 7.52 2.99934 7.28267 3 7C3 6.71667 3.096 6.479 3.288 6.287C3.48 6.095 3.71734 5.99934 4 6H20C20.2833 6 20.521 6.096 20.713 6.288C20.905 6.48 21.0007 6.71734 21 7C21 7.28334 20.904 7.521 20.712 7.713C20.52 7.905 20.2827 8.00067 20 8H4ZM7 13C6.71667 13 6.479 12.904 6.287 12.712C6.095 12.52 5.99934 12.2827 6 12C6 11.7167 6.096 11.479 6.288 11.287C6.48 11.095 6.71734 10.9993 7 11H17C17.2833 11 17.521 11.096 17.713 11.288C17.905 11.48 18.0007 11.7173 18 12C18 12.2833 17.904 12.521 17.712 12.713C17.52 12.905 17.2827 13.0007 17 13H7Z" fill="#808080"/>
</svg>
