<svg width="10" height="10" viewBox="0 0 10 10" fill="none" xmlns="http://www.w3.org/2000/svg">
<path d="M9.1641 4.61319L5.38676 0.835843C5.2837 0.734219 5.14478 0.677246 5.00004 0.677246C4.8553 0.677246 4.71638 0.734219 4.61332 0.835843L0.835977 4.61319C0.785189 4.66397 0.744901 4.72426 0.717415 4.79061C0.689928 4.85697 0.675781 4.92808 0.675781 4.99991C0.675781 5.07173 0.689928 5.14284 0.717415 5.2092C0.744901 5.27555 0.785189 5.33584 0.835977 5.38662L4.61332 9.16397C4.6641 9.21476 4.72439 9.25504 4.79075 9.28253C4.8571 9.31002 4.92822 9.32416 5.00004 9.32416C5.07186 9.32416 5.14298 9.31002 5.20933 9.28253C5.27569 9.25504 5.33598 9.21476 5.38676 9.16397L9.1641 5.38662C9.21489 5.33584 9.25518 5.27555 9.28266 5.2092C9.31015 5.14284 9.3243 5.07173 9.3243 4.99991C9.3243 4.92808 9.31015 4.85697 9.28266 4.79061C9.25518 4.72426 9.21489 4.66397 9.1641 4.61319ZM8.83207 5.05459L5.05473 8.83194C5.04777 8.83951 5.03932 8.84556 5.02991 8.8497C5.0205 8.85384 5.01032 8.85598 5.00004 8.85598C4.98976 8.85598 4.97958 8.85384 4.97017 8.8497C4.96076 8.84556 4.9523 8.83951 4.94535 8.83194L1.16801 5.05459C1.16043 5.04764 1.15438 5.03919 1.15024 5.02978C1.1461 5.02036 1.14397 5.01019 1.14397 4.99991C1.14397 4.98962 1.1461 4.97945 1.15024 4.97004C1.15438 4.96062 1.16043 4.95217 1.16801 4.94522L4.94535 1.16787C4.9523 1.1603 4.96076 1.15425 4.97017 1.15011C4.97958 1.14597 4.98976 1.14383 5.00004 1.14383C5.01032 1.14383 5.0205 1.14597 5.02991 1.15011C5.03932 1.15425 5.04777 1.1603 5.05473 1.16787L8.83207 4.94522C8.83965 4.95217 8.8457 4.96062 8.84984 4.97004C8.85398 4.97945 8.85611 4.98962 8.85611 4.99991C8.85611 5.01019 8.85398 5.02036 8.84984 5.02978C8.8457 5.03919 8.83965 5.04764 8.83207 5.05459Z" fill="#3E60C1"/>
</svg>
