<svg width="10" height="10" viewBox="0 0 10 10" fill="none" xmlns="http://www.w3.org/2000/svg">
<path d="M5.59719 1.04694C5.43331 0.909518 5.22077 0.833496 5.00046 0.833496C4.78015 0.833496 4.56762 0.909518 4.40373 1.04694L1.12992 3.79301C1.03666 3.87115 0.962065 3.96674 0.910993 4.07356C0.859921 4.18038 0.833516 4.29603 0.833496 4.41301V8.33351C0.833496 8.55452 0.927565 8.76648 1.09501 8.92275C1.26245 9.07903 1.48955 9.16683 1.72635 9.16683H8.27397C8.51077 9.16683 8.73787 9.07903 8.90532 8.92275C9.07276 8.76648 9.16683 8.55452 9.16683 8.33351V4.41301C9.16688 4.29608 9.14057 4.18044 9.0896 4.07363C9.03864 3.96681 8.96415 3.8712 8.871 3.79301L5.59719 1.04694ZM4.80135 1.46027C4.85597 1.41451 4.92677 1.3892 5.00016 1.3892C5.07355 1.3892 5.14436 1.41451 5.19897 1.46027L8.47278 4.20634C8.50387 4.23239 8.52873 4.26425 8.54576 4.29986C8.56278 4.33546 8.57158 4.37402 8.57159 4.41301V8.33351C8.57159 8.40718 8.54024 8.47783 8.48442 8.52992C8.42861 8.58202 8.35291 8.61128 8.27397 8.61128H1.72635C1.64742 8.61128 1.57172 8.58202 1.5159 8.52992C1.46009 8.47783 1.42873 8.40718 1.42873 8.33351V4.41301C1.42874 4.37402 1.43754 4.33546 1.45457 4.29986C1.47159 4.26425 1.49646 4.23239 1.52754 4.20634L4.80135 1.46027Z" fill="#3E60C1"/>
</svg>
