<svg width="22" height="30" viewBox="0 0 22 30" fill="none" xmlns="http://www.w3.org/2000/svg">
<path d="M12.375 10.5H19.9375L12.375 2.25V10.5ZM2.75 0H13.75L22 9V27C22 27.7956 21.7103 28.5587 21.1945 29.1213C20.6788 29.6839 19.9793 30 19.25 30H2.75C2.02065 30 1.32118 29.6839 0.805456 29.1213C0.289731 28.5587 0 27.7956 0 27V3C0 2.20435 0.289731 1.44129 0.805456 0.87868C1.32118 0.31607 2.02065 0 2.75 0ZM8.3875 14.1C8.36 14.16 7.98875 16.74 5.5 21.135C5.5 21.135 0.6875 23.865 1.82875 25.905C2.75 27.525 5.01875 25.845 6.97125 21.885C6.97125 21.885 9.47375 20.925 12.8013 20.655C12.8013 20.655 18.1088 23.25 18.8375 20.49C19.5525 17.7 14.63 18.33 13.75 18.615C13.75 18.615 11 16.59 10.3125 13.8C10.3125 13.8 11.88 7.875 9.47375 7.95C7.0675 8.025 7.975 12.645 8.3875 14.1ZM9.50125 15.66C9.5425 15.675 10.1475 17.475 12.1 19.35C12.1 19.35 8.89625 20.04 7.43875 20.7C7.43875 20.7 8.81375 18.105 9.50125 15.66ZM14.905 19.74C15.7025 19.5 18.1088 19.965 18.0125 20.46C17.93 20.955 14.905 19.74 14.905 19.74ZM5.18375 22.5C4.455 24.36 3.20375 25.5 2.8875 25.5C2.57125 25.5 3.85 23.1 5.18375 22.5ZM9.50125 12.105C9.50125 12 9.00625 8.805 9.50125 8.88C10.2437 9 9.50125 12 9.50125 12.105Z" fill="#E95340"/>
</svg>
