<svg width="32" height="32" viewBox="0 0 32 32" fill="none" xmlns="http://www.w3.org/2000/svg">
<path d="M6.66667 25.3332H8.53333L20.0333 13.8332L18.1667 11.9665L6.66667 23.4665V25.3332ZM25.7333 11.8998L20.0667 6.29984L21.9333 4.43317C22.4444 3.92206 23.0724 3.6665 23.8173 3.6665C24.5622 3.6665 25.1898 3.92206 25.7 4.43317L27.5667 6.29984C28.0778 6.81095 28.3444 7.42784 28.3667 8.1505C28.3889 8.87317 28.1444 9.48961 27.6333 9.99984L25.7333 11.8998ZM23.8 13.8665L9.66667 27.9998H4V22.3332L18.1333 8.19984L23.8 13.8665ZM19.1 12.8998L18.1667 11.9665L20.0333 13.8332L19.1 12.8998Z" fill="#CAC8FF"/>
</svg>
