<svg width="10" height="10" viewBox="0 0 10 10" fill="none" xmlns="http://www.w3.org/2000/svg">
<path d="M9.21902 5.44118L5.44167 9.21853C5.38392 9.27687 5.31517 9.32319 5.23941 9.3548C5.16364 9.3864 5.08236 9.40268 5.00027 9.40268C4.91817 9.40268 4.83689 9.3864 4.76113 9.3548C4.68536 9.32319 4.61661 9.27687 4.55886 9.21853L0.781515 5.44118C0.665576 5.32352 0.600586 5.16496 0.600586 4.99978C0.600586 4.83459 0.665576 4.67603 0.781515 4.55837L4.55886 0.781027C4.67652 0.665088 4.83508 0.600098 5.00027 0.600098C5.16545 0.600098 5.32401 0.665088 5.44167 0.781027L9.21902 4.55837C9.33495 4.67603 9.39995 4.83459 9.39995 4.99978C9.39995 5.16496 9.33495 5.32352 9.21902 5.44118Z" fill="#3E60C1"/>
</svg>
