<svg width="74" height="74" viewBox="0 0 74 74" fill="none" xmlns="http://www.w3.org/2000/svg">
<circle cx="37" cy="37" r="37" fill="#FFF1F1"/>
<path d="M54.5665 52.1999L51.0165 48.6666L54.5665 45.1333L52.1998 42.7666L48.6665 46.3166L45.1332 42.7666L42.7665 45.1333L46.3165 48.6666L42.7665 52.1999L45.1332 54.5666L48.6665 51.0166L52.1998 54.5666M26.9998 20.3333C26.1158 20.3333 25.2679 20.6844 24.6428 21.3096C24.0177 21.9347 23.6665 22.7825 23.6665 23.6666V50.3333C23.6665 52.1833 25.1498 53.6666 26.9998 53.6666H40.0165C39.4165 52.6333 38.9998 51.4999 38.7998 50.3333H26.9998V23.6666H38.6665V31.9999H46.9998V38.7999C47.5498 38.7166 48.1165 38.6666 48.6665 38.6666C49.2332 38.6666 49.7832 38.7166 50.3332 38.7999V30.3333L40.3332 20.3333M30.3332 36.9999V40.3333H43.6665V36.9999M30.3332 43.6666V46.9999H38.6665V43.6666H30.3332Z" fill="#EF4F4E"/>
</svg>
