<svg width="74" height="74" viewBox="0 0 74 74" fill="none" xmlns="http://www.w3.org/2000/svg">
<circle cx="37" cy="37" r="37" fill="#FFF1F1"/>
<path d="M34.6667 39.3334C34.9074 39.6544 35.0243 40.0514 34.9958 40.4516C34.9674 40.8517 34.7955 41.2282 34.5119 41.5119C34.2282 41.7956 33.8517 41.9674 33.4515 41.9959C33.0513 42.0243 32.6543 41.9075 32.3333 41.6667C31.5362 40.9186 30.9008 40.0149 30.4665 39.0117C30.0321 38.0084 29.808 36.9267 29.808 35.8334C29.808 34.7401 30.0321 33.6585 30.4665 32.6552C30.9008 31.6519 31.5362 30.7482 32.3333 30.0001L38.1667 24.0001C39.7525 22.4626 41.8746 21.6028 44.0833 21.6028C46.2921 21.6028 48.4142 22.4626 50 24.0001C51.5375 25.5859 52.3973 27.708 52.3973 29.9167C52.3973 32.1255 51.5375 34.2476 50 35.8334L47.5 38.3334C47.5356 36.9697 47.3093 35.6118 46.8333 34.3334L47.6667 33.5001C48.5568 32.5189 49.0498 31.2415 49.0498 29.9167C49.0498 28.592 48.5568 27.3146 47.6667 26.3334C46.6855 25.4433 45.4081 24.9503 44.0833 24.9503C42.7586 24.9503 41.4812 25.4433 40.5 26.3334L34.6667 32.3334C34.1927 32.7848 33.8153 33.3278 33.5575 33.9295C33.2996 34.5311 33.1667 35.1788 33.1667 35.8334C33.1667 36.488 33.2996 37.1357 33.5575 37.7374C33.8153 38.339 34.1927 38.882 34.6667 39.3334ZM44 39.8334C44.2889 38.4882 44.2259 37.0911 43.8172 35.7773C43.4084 34.4635 42.6677 33.2774 41.6667 32.3334C41.3457 32.0927 40.9487 31.9758 40.5485 32.0043C40.1483 32.0327 39.7719 32.2045 39.4882 32.4882C39.2045 32.7719 39.0326 33.1484 39.0042 33.5486C38.9758 33.9488 39.0926 34.3458 39.3333 34.6667C39.8073 35.1182 40.1847 35.6612 40.4425 36.2628C40.7004 36.8644 40.8333 37.5122 40.8333 38.1667C40.8333 38.8213 40.7004 39.469 40.4425 40.0707C40.1847 40.6723 39.8073 41.2153 39.3333 41.6667L33.5 47.6667C32.5188 48.5568 31.2415 49.0499 29.9167 49.0499C28.5919 49.0499 27.3146 48.5568 26.3333 47.6667C25.4433 46.6855 24.9502 45.4082 24.9502 44.0834C24.9502 42.7586 25.4433 41.4813 26.3333 40.5001L27.1667 39.8334C26.7035 38.4939 26.4779 37.0839 26.5 35.6667L24 38.1667C22.4625 39.7526 21.6027 41.8746 21.6027 44.0834C21.6027 46.2922 22.4625 48.4142 24 50.0001C25.5858 51.5376 27.7079 52.3974 29.9167 52.3974C32.1255 52.3974 34.2475 51.5376 35.8333 50.0001L38.8333 47.0001C39.0881 45.4896 39.6865 44.0578 40.5823 42.8152C41.4781 41.5726 42.6474 40.5525 44 39.8334ZM52.1667 42.8334L48.6667 46.3334L45.1667 42.8334L42.8333 45.1667L46.3333 48.6667L42.8333 52.1667L45.1667 54.5001L48.6667 51.0001L52.1667 54.5001L54.5 52.1667L51 48.6667L54.5 45.1667L52.1667 42.8334Z" fill="#EF4F4E"/>
</svg>
