<svg width="12" height="16" viewBox="0 0 12 16" fill="none" xmlns="http://www.w3.org/2000/svg">
<path d="M6.00033 2.6665V0.666504L3.33366 3.33317L6.00033 5.99984V3.99984C8.20699 3.99984 10.0003 5.79317 10.0003 7.99984C10.0003 8.67317 9.83366 9.31317 9.53366 9.8665L10.507 10.8398C11.0472 9.99111 11.3339 9.00588 11.3337 7.99984C11.3337 5.05317 8.94699 2.6665 6.00033 2.6665ZM6.00033 11.9998C3.79366 11.9998 2.00033 10.2065 2.00033 7.99984C2.00033 7.3265 2.16699 6.6865 2.46699 6.13317L1.49366 5.15984C0.953494 6.00856 0.666712 6.9938 0.666992 7.99984C0.666992 10.9465 3.05366 13.3332 6.00033 13.3332V15.3332L8.66699 12.6665L6.00033 9.99984V11.9998Z" fill="#2B335B"/>
</svg>
