<svg width="9" height="7" viewBox="0 0 9 7" fill="none" xmlns="http://www.w3.org/2000/svg">
<path d="M5.21879 6.01043C5.0799 6.10071 4.93935 6.10599 4.79713 6.02627C4.6549 5.94655 4.58365 5.82321 4.58338 5.65627V3.91668H1.25004C1.13199 3.91668 1.03296 3.87668 0.952959 3.79668C0.872959 3.71668 0.833098 3.61779 0.833375 3.50002C0.833375 3.38196 0.873376 3.28293 0.953376 3.20293C1.03338 3.12293 1.13226 3.08307 1.25004 3.08335H4.58338V1.34377C4.58338 1.1771 4.65463 1.05377 4.79713 0.973767C4.93963 0.893767 5.08018 0.899045 5.21879 0.9896L8.61462 3.14585C8.74657 3.22918 8.81254 3.34724 8.81254 3.50002C8.81254 3.6528 8.74657 3.77085 8.61462 3.85418L5.21879 6.01043Z" fill="#CAC8FF"/>
</svg>
