<svg viewBox="0 0 74 74" fill="none" xmlns="http://www.w3.org/2000/svg">
<circle cx="37" cy="37" r="37" fill="#FFF1F1"/>
<path d="M37 18.6665L22 25.3332V35.3332C22 44.5832 28.4 53.2332 37 55.3332C45.6 53.2332 52 44.5832 52 35.3332V25.3332L37 18.6665ZM37 22.2998L48.6667 27.4998V35.6998C48.6667 38.5332 47.8333 41.4165 46.4167 43.9498C43.6667 41.8998 39.1 41.1665 37 41.1665C34.9 41.1665 30.3333 41.8998 27.5833 43.9498C26.1667 41.4165 25.3333 38.5332 25.3333 35.6998V27.4998L37 22.2998ZM37 26.9998C35.4529 26.9998 33.9692 27.6144 32.8752 28.7084C31.7812 29.8023 31.1667 31.2861 31.1667 32.8332C31.1667 34.3803 31.7812 35.864 32.8752 36.958C33.9692 38.0519 35.4529 38.6665 37 38.6665C38.5471 38.6665 40.0308 38.0519 41.1248 36.958C42.2188 35.864 42.8333 34.3803 42.8333 32.8332C42.8333 31.2861 42.2188 29.8023 41.1248 28.7084C40.0308 27.6144 38.5471 26.9998 37 26.9998ZM37 30.3332C37.663 30.3332 38.2989 30.5966 38.7678 31.0654C39.2366 31.5342 39.5 32.1701 39.5 32.8332C39.5 33.4962 39.2366 34.1321 38.7678 34.6009C38.2989 35.0698 37.663 35.3332 37 35.3332C36.337 35.3332 35.7011 35.0698 35.2322 34.6009C34.7634 34.1321 34.5 33.4962 34.5 32.8332C34.5 32.1701 34.7634 31.5342 35.2322 31.0654C35.7011 30.5966 36.337 30.3332 37 30.3332ZM37 44.4998C39.6167 44.4998 43.0667 45.5165 44.55 46.7332C42.4833 49.2998 39.8333 51.2498 37 51.9998C34.1667 51.2498 31.5167 49.2998 29.45 46.7332C30.95 45.5165 34.3833 44.4998 37 44.4998Z" fill="#EF4F4E"/>
</svg>
