<svg>
  <symbol id="logout" viewBox="0 0 24 24" xmlns="http://www.w3.org/2000/svg">
    <g>
      <path fill="none" d="M0 0h24v24H0z" />
      <path fill="currentColor"
        d="M5 11h8v2H5v3l-5-4 5-4v3zm-1 7h2.708a8 8 0 1 0 0-12H4A9.985 9.985 0 0 1 12 2c5.523 0 10 4.477 10 10s-4.477 10-10 10a9.985 9.985 0 0 1-8-4z" />
    </g>
  </symbol>
  <symbol id="add" viewBox="0 0 12 12" fill="none" xmlns="http://www.w3.org/2000/svg">
    <path
      d="M5.16602 11.8333V6.83329H0.166016V5.16663H5.16602V0.166626H6.83268V5.16663H11.8327V6.83329H6.83268V11.8333H5.16602Z"
      fill="currentColor" />
  </symbol>
  <symbol id="leave-icon" viewBox="0 0 42 42" fill="none" xmlns="http://www.w3.org/2000/svg">
    <path
      d="M12.8835 0.65686C13.7509 1.57931 14.3224 2.69169 14.6506 3.89301C15.1836 5.84439 15.1495 8.03073 14.9703 10.2605C14.6114 14.7201 13.7173 19.4138 14.7606 22.3267C15.7399 25.0607 17.3102 26.6846 19.0523 27.4829C19.8017 27.8265 20.5906 28.0166 21.3886 28.0658C23.296 22.4726 22.8891 15.3346 19.7506 10.5102C23.9059 14.6553 25.8685 20.9145 24.6006 27.4749L23.8461 27.7782C24.0817 27.7079 24.3138 27.6264 24.5416 27.5339C28.1323 26.0841 31.0707 21.8403 29.8482 15.6182C29.2865 12.7595 27.3589 8.72906 24.1334 5.60652C21.3428 2.90533 17.617 0.861735 12.8835 0.657032L12.8835 0.65686ZM37.2869 16.4292C37.2148 17.4691 36.8884 18.4512 36.3795 19.3431C35.4897 20.902 34.1066 22.2441 32.6089 23.5191C29.6134 26.0688 26.1586 28.4309 25.0195 30.8425C23.9405 33.127 23.9122 35.0751 24.4879 36.6246C24.7337 37.2878 25.1017 37.899 25.5728 38.4266C30.1883 36.1246 34.3152 31.4734 35.3534 26.5646C35.3599 31.6904 32.7211 36.7643 27.9091 40.0487C30.9858 41.2987 35.324 40.4813 38.3694 35.9452C39.7803 33.8435 41.0814 30.1616 41.0173 26.245C40.9628 22.9203 39.9634 19.4362 37.287 16.4295L37.2869 16.4292ZM0.774345 22.7431C-0.0406 26.6857 0.835189 30.2052 2.45013 33.1119C4.35244 36.5357 7.32124 39.0739 9.59368 40.1883C14.4981 42.5935 18.6613 41.1308 20.7011 38.5099C14.8926 38.0716 10.0713 34.9974 7.5152 30.5553C10.8685 34.2874 16.7671 36.2521 21.9151 35.9371C22.0598 35.2449 22.0735 34.5317 21.9554 33.8344C21.6792 32.2046 20.6776 30.5304 18.6011 29.0917C16.4093 27.5732 12.2379 27.2561 8.36916 26.5458C6.43488 26.1909 4.56668 25.7216 3.01697 24.8164C2.12984 24.2982 1.35717 23.6081 0.774517 22.7431L0.774345 22.7431Z"
      fill="currentColor" />
  </symbol>
  <symbol id="mdi-account-outline" viewBox="0 0 24 24" fill="none"
    xmlns="http://www.w3.org/2000/svg">
    <path
      d="M12 4C13.0609 4 14.0783 4.42143 14.8284 5.17157C15.5786 5.92172 16 6.93913 16 8C16 9.06087 15.5786 10.0783 14.8284 10.8284C14.0783 11.5786 13.0609 12 12 12C10.9391 12 9.92172 11.5786 9.17157 10.8284C8.42143 10.0783 8 9.06087 8 8C8 6.93913 8.42143 5.92172 9.17157 5.17157C9.92172 4.42143 10.9391 4 12 4ZM12 6C11.4696 6 10.9609 6.21071 10.5858 6.58579C10.2107 6.96086 10 7.46957 10 8C10 8.53043 10.2107 9.03914 10.5858 9.41421C10.9609 9.78929 11.4696 10 12 10C12.5304 10 13.0391 9.78929 13.4142 9.41421C13.7893 9.03914 14 8.53043 14 8C14 7.46957 13.7893 6.96086 13.4142 6.58579C13.0391 6.21071 12.5304 6 12 6ZM12 13C14.67 13 20 14.33 20 17V20H4V17C4 14.33 9.33 13 12 13ZM12 14.9C9.03 14.9 5.9 16.36 5.9 17V18.1H18.1V17C18.1 16.36 14.97 14.9 12 14.9Z"
      fill="currentColor" />
  </symbol>
  <symbol id="notification" viewBox="0 0 24 24" xmlns="http://www.w3.org/2000/svg">
    <path
      d="M20.25 12V19.5C20.25 19.8978 20.092 20.2794 19.8107 20.5607C19.5294 20.842 19.1478 21 18.75 21H4.5C4.10218 21 3.72064 20.842 3.43934 20.5607C3.15804 20.2794 3 19.8978 3 19.5V5.25C3 4.85218 3.15804 4.47064 3.43934 4.18934C3.72064 3.90804 4.10218 3.75 4.5 3.75H12C12.1989 3.75 12.3897 3.82902 12.5303 3.96967C12.671 4.11032 12.75 4.30109 12.75 4.5C12.75 4.69891 12.671 4.88968 12.5303 5.03033C12.3897 5.17098 12.1989 5.25 12 5.25H4.5V19.5H18.75V12C18.75 11.8011 18.829 11.6103 18.9697 11.4697C19.1103 11.329 19.3011 11.25 19.5 11.25C19.6989 11.25 19.8897 11.329 20.0303 11.4697C20.171 11.6103 20.25 11.8011 20.25 12ZM21.75 5.625C21.75 6.29251 21.5521 6.94503 21.1812 7.50005C20.8104 8.05507 20.2833 8.48765 19.6666 8.74309C19.0499 8.99854 18.3713 9.06538 17.7166 8.93515C17.0619 8.80493 16.4605 8.48349 15.9885 8.01149C15.5165 7.53948 15.1951 6.93812 15.0648 6.28343C14.9346 5.62874 15.0015 4.95014 15.2569 4.33344C15.5124 3.71674 15.9449 3.18964 16.5 2.81879C17.055 2.44794 17.7075 2.25 18.375 2.25C19.2701 2.25 20.1285 2.60558 20.7615 3.23851C21.3944 3.87145 21.75 4.72989 21.75 5.625ZM20.25 5.625C20.25 5.25416 20.14 4.89165 19.934 4.58331C19.728 4.27496 19.4351 4.03464 19.0925 3.89273C18.7499 3.75081 18.3729 3.71368 18.0092 3.78603C17.6455 3.85837 17.3114 4.03695 17.0492 4.29917C16.787 4.5614 16.6084 4.89549 16.536 5.25921C16.4637 5.62292 16.5008 5.99992 16.6427 6.34253C16.7846 6.68514 17.025 6.97798 17.3333 7.18401C17.6416 7.39003 18.0042 7.5 18.375 7.5C18.8715 7.49754 19.347 7.2992 19.6981 6.9481C20.0492 6.597 20.2475 6.12152 20.25 5.625Z"
      fill="currentColor" />
  </symbol>
  <symbol viewBox="0 0 16 16" id="pen" xmlns="http://www.w3.org/2000/svg">
    <path
      d="M2.16667 13.8333H3.33333L10.5208 6.64579L9.35417 5.47913L2.16667 12.6666V13.8333ZM14.0833 5.43746L10.5417 1.93746L11.7083 0.770793C12.0278 0.451348 12.4203 0.291626 12.8858 0.291626C13.3514 0.291626 13.7436 0.451348 14.0625 0.770793L15.2292 1.93746C15.5486 2.2569 15.7153 2.64246 15.7292 3.09413C15.7431 3.54579 15.5903 3.93107 15.2708 4.24996L14.0833 5.43746ZM12.875 6.66663L4.04167 15.5H0.5V11.9583L9.33333 3.12496L12.875 6.66663ZM9.9375 6.06246L9.35417 5.47913L10.5208 6.64579L9.9375 6.06246Z"
      fill="currentColor" />
  </symbol>
  <symbol id="rocket-icon" viewBox="0 0 37 37" fill="none" xmlns="http://www.w3.org/2000/svg">
    <path
      d="M13.8477 7.64167C10.1077 11.84 7.54102 17.8717 7.30268 18.44L0.666016 15.5983L9.48435 6.78L13.8477 7.64167ZM17.4777 27.1667C17.4777 27.1667 24.3343 24.325 28.276 20.3833C38.176 10.4833 36.526 2.74667 35.9944 1.005C34.2527 0.455003 26.516 -1.17666 16.616 8.72334C12.6743 12.665 9.83268 19.5217 9.83268 19.5217L17.4777 27.1667ZM29.3577 23.1517C25.1593 26.8917 19.1277 29.4583 18.5593 29.6967L21.401 36.3333L30.2194 27.515L29.3577 23.1517ZM13.4993 29C13.4993 30.5217 12.876 31.8967 11.886 32.8867C9.72268 35.05 0.666016 36.3333 0.666016 36.3333C0.666016 36.3333 1.94935 27.2767 4.11268 25.1133C4.88048 24.3415 5.86031 23.8153 6.92776 23.6014C7.99522 23.3876 9.10215 23.4958 10.108 23.9123C11.1138 24.3288 11.9732 25.0347 12.5771 25.9406C13.1809 26.8465 13.5019 27.9113 13.4993 29ZM20.8327 12.5C20.8327 10.4833 22.4827 8.83334 24.4993 8.83334C26.516 8.83334 28.166 10.4833 28.166 12.5C28.166 14.5167 26.516 16.1667 24.4993 16.1667C22.4827 16.1667 20.8327 14.5167 20.8327 12.5Z"
      fill="currentColor" />
  </symbol>
  <symbol id="search" viewBox="0 0 18 18" fill="none" xmlns="http://www.w3.org/2000/svg">
    <path
      d="M16.5 16.5L11.5 11.5M13.1667 7.33333C13.1667 10.555 10.555 13.1667 7.33333 13.1667C4.11167 13.1667 1.5 10.555 1.5 7.33333C1.5 4.11167 4.11167 1.5 7.33333 1.5C10.555 1.5 13.1667 4.11167 13.1667 7.33333Z"
      stroke="currentColor" stroke-width="2" stroke-linecap="round" stroke-linejoin="round" />
  </symbol>
  <symbol id="sharp-arrow-drop-down" viewBox="0 0 10 5" fill="none"
    xmlns="http://www.w3.org/2000/svg">
    <path d="M0 0L5 5L10 0H0Z" fill="currentColor" />
  </symbol>
  <symbol id="trash" viewBox="0 0 12 16" fill="none" xmlns="http://www.w3.org/2000/svg">
    <path
      d="M0.999349 13.8333C0.999349 14.75 1.74935 15.5 2.66602 15.5H9.33268C10.2494 15.5 10.9994 14.75 10.9994 13.8333V3.83333H0.999349V13.8333ZM11.8327 1.33333H8.91602L8.08268 0.5H3.91602L3.08268 1.33333H0.166016V3H11.8327V1.33333Z"
      fill="currentColor" />
  </symbol>
  <symbol id="user-guard" viewBox="0 0 18 22" fill="none" xmlns="http://www.w3.org/2000/svg">
    <path
      d="M9 0L0 4V10C0 15.55 3.84 20.74 9 22C14.16 20.74 18 15.55 18 10V4L9 0ZM9 2.18L16 5.3V10.22C16 11.92 15.5 13.65 14.65 15.17C13 13.94 10.26 13.5 9 13.5C7.74 13.5 5 13.94 3.35 15.17C2.5 13.65 2 11.92 2 10.22V5.3L9 2.18ZM9 5C8.07174 5 7.1815 5.36875 6.52513 6.02513C5.86875 6.6815 5.5 7.57174 5.5 8.5C5.5 9.42826 5.86875 10.3185 6.52513 10.9749C7.1815 11.6313 8.07174 12 9 12C9.92826 12 10.8185 11.6313 11.4749 10.9749C12.1313 10.3185 12.5 9.42826 12.5 8.5C12.5 7.57174 12.1313 6.6815 11.4749 6.02513C10.8185 5.36875 9.92826 5 9 5ZM9 7C9.39782 7 9.77936 7.15804 10.0607 7.43934C10.342 7.72064 10.5 8.10218 10.5 8.5C10.5 8.89782 10.342 9.27936 10.0607 9.56066C9.77936 9.84196 9.39782 10 9 10C8.60218 10 8.22064 9.84196 7.93934 9.56066C7.65804 9.27936 7.5 8.89782 7.5 8.5C7.5 8.10218 7.65804 7.72064 7.93934 7.43934C8.22064 7.15804 8.60218 7 9 7ZM9 15.5C10.57 15.5 12.64 16.11 13.53 16.84C12.29 18.38 10.7 19.55 9 20C7.3 19.55 5.71 18.38 4.47 16.84C5.37 16.11 7.43 15.5 9 15.5Z"
      fill="currentColor" />
  </symbol>
  <symbol id="user-notification" viewBox="0 0 20 18" fill="none" xmlns="http://www.w3.org/2000/svg">
    <path
      d="M13.4 12C13.1 12 12.8 11.7 12.8 11.4C12.8 11.1 13.1 10.8 13.4 10.8C13.7 10.8 14 11.1 14 11.4C14 11.7 13.7 12 13.4 12ZM19.8 13.8L16.2 10.2C16 10.1 15.8 10 15.6 10H12.8C12.4 10 12 10.4 12 10.8V13.6C12 13.8 12.1 14 12.2 14.2L15.8 17.8C15.9 17.9 16.1 18 16.4 18C16.7 18 16.8 17.9 17 17.8L19.8 15C19.9 14.9 20 14.7 20 14.4C20 14.2 19.9 14 19.8 13.8ZM8 0C5.8 0 4 1.8 4 4C4 6.2 5.8 8 8 8C10.2 8 12 6.2 12 4C12 1.8 10.2 0 8 0ZM8 2C9.1 2 10 2.9 10 4C10 5.1 9.1 6 8 6C6.9 6 6 5.1 6 4C6 2.9 6.9 2 8 2ZM8 9C5.3 9 0 10.3 0 13V16H11.2L10.8 15.6C10.4 15.2 10.1 14.7 10 14.1H1.9V13C1.9 12.4 5 10.9 8 10.9C8.7 10.9 9.4 11 10 11.1V10.8C10 10.2 10.2 9.7 10.5 9.3C9.6 9.1 8.7 9 8 9Z"
      fill="currentColor" />
  </symbol>
  <svg id="user-setting-icon" viewBox="0 0 39 39" fill="none" xmlns="http://www.w3.org/2000/svg">
    <path
      d="M25.25 8.75C25.25 10.938 24.3808 13.0365 22.8336 14.5836C21.2865 16.1308 19.188 17 17 17C14.812 17 12.7135 16.1308 11.1664 14.5836C9.61919 13.0365 8.75 10.938 8.75 8.75C8.75 6.56196 9.61919 4.46354 11.1664 2.91637C12.7135 1.36919 14.812 0.5 17 0.5C19.188 0.5 21.2865 1.36919 22.8336 2.91637C24.3808 4.46354 25.25 6.56196 25.25 8.75ZM0.5 30.75C0.5 33.5 3.25 33.5 3.25 33.5H17.704C17.2365 32.175 16.9984 30.78 17 29.375C16.9982 27.6064 17.3764 25.858 18.1089 24.2482C18.8414 22.6383 19.9113 21.2047 21.246 20.0443C19.9618 19.8545 18.551 19.75 17 19.75C3.25 19.75 0.5 28 0.5 30.75ZM27.6865 21.015C28.1815 19.3293 30.5685 19.3293 31.0662 21.015L31.1845 21.422C31.2584 21.6745 31.3879 21.9072 31.5635 22.103C31.7391 22.2988 31.9564 22.4528 32.1994 22.5535C32.4424 22.6543 32.7049 22.6993 32.9675 22.6853C33.2302 22.6713 33.4864 22.5986 33.7173 22.4725L34.0913 22.269C35.634 21.4275 37.3225 23.116 36.4837 24.6587L36.2775 25.0327C36.1519 25.2635 36.0796 25.5194 36.0659 25.7818C36.0521 26.0441 36.0973 26.3062 36.198 26.5488C36.2988 26.7915 36.4525 27.0085 36.6481 27.1839C36.8436 27.3593 37.0759 27.4888 37.328 27.5627L37.7378 27.6865C39.4207 28.1815 39.4207 30.5685 37.7378 31.0662L37.3252 31.1845C37.0733 31.259 36.8412 31.3889 36.646 31.5649C36.4508 31.7408 36.2974 31.9581 36.1972 32.201C36.097 32.4439 36.0524 32.7062 36.0668 32.9686C36.0812 33.2309 36.1541 33.4868 36.2803 33.7173L36.4837 34.0913C37.3225 35.634 35.634 37.3225 34.0913 36.4837L33.7173 36.2775C33.4865 36.1519 33.2306 36.0796 32.9682 36.0659C32.7059 36.0521 32.4438 36.0973 32.2012 36.198C31.9585 36.2988 31.7415 36.4525 31.5661 36.6481C31.3907 36.8436 31.2612 37.0759 31.1873 37.328L31.0635 37.7378C30.5685 39.4207 28.1815 39.4207 27.6838 37.7378L27.5655 37.3252C27.491 37.0733 27.3611 36.8412 27.1851 36.646C27.0092 36.4508 26.7919 36.2974 26.549 36.1972C26.3061 36.097 26.0438 36.0524 25.7814 36.0668C25.5191 36.0812 25.2633 36.1541 25.0327 36.2803L24.6587 36.4837C23.116 37.3225 21.4275 35.634 22.2663 34.0913L22.4725 33.7173C22.5981 33.4865 22.6704 33.2306 22.6841 32.9682C22.6979 32.7059 22.6527 32.4438 22.552 32.2012C22.4512 31.9585 22.2975 31.7415 22.1019 31.5661C21.9064 31.3907 21.6741 31.2612 21.422 31.1873L21.015 31.0635C19.3293 30.5685 19.3293 28.1815 21.015 27.6838L21.422 27.5655C21.6745 27.4916 21.9072 27.3621 22.103 27.1865C22.2988 27.0109 22.4528 26.7936 22.5535 26.5506C22.6543 26.3076 22.6993 26.0451 22.6853 25.7825C22.6713 25.5198 22.5986 25.2636 22.4725 25.0327L22.269 24.6587C21.4275 23.116 23.116 21.4275 24.6587 22.2663L25.0327 22.4725C25.2635 22.5981 25.5194 22.6704 25.7818 22.6841C26.0441 22.6979 26.3062 22.6527 26.5488 22.552C26.7915 22.4512 27.0085 22.2975 27.1839 22.1019C27.3593 21.9064 27.4888 21.6741 27.5627 21.422L27.6865 21.015ZM33.5 29.375C33.5 28.8333 33.3933 28.2969 33.186 27.7964C32.9787 27.296 32.6749 26.8412 32.2918 26.4582C31.9088 26.0751 31.454 25.7713 30.9536 25.564C30.4531 25.3567 29.9167 25.25 29.375 25.25C28.8333 25.25 28.2969 25.3567 27.7964 25.564C27.296 25.7713 26.8412 26.0751 26.4582 26.4582C26.0751 26.8412 25.7713 27.296 25.564 27.7964C25.3567 28.2969 25.25 28.8333 25.25 29.375C25.25 30.469 25.6846 31.5182 26.4582 32.2918C27.2318 33.0654 28.281 33.5 29.375 33.5C30.469 33.5 31.5182 33.0654 32.2918 32.2918C33.0654 31.5182 33.5 30.469 33.5 29.375Z"
      fill="currentColor" />
  </svg>
  <symbol id="user-settings" viewBox="0 0 25 25" fill="none" xmlns="http://www.w3.org/2000/svg">
    <path
      d="M16.25 5.75C16.25 7.14239 15.6969 8.47774 14.7123 9.46231C13.7277 10.4469 12.3924 11 11 11C9.60761 11 8.27226 10.4469 7.28769 9.46231C6.30312 8.47774 5.75 7.14239 5.75 5.75C5.75 4.35761 6.30312 3.02226 7.28769 2.03769C8.27226 1.05312 9.60761 0.5 11 0.5C12.3924 0.5 13.7277 1.05312 14.7123 2.03769C15.6969 3.02226 16.25 4.35761 16.25 5.75ZM0.5 19.75C0.5 21.5 2.25 21.5 2.25 21.5H11.448C11.1505 20.6568 10.999 19.7691 11 18.875C10.9988 17.7495 11.2395 16.6369 11.7057 15.6125C12.1718 14.588 12.8526 13.6757 13.702 12.9373C12.8847 12.8165 11.987 12.75 11 12.75C2.25 12.75 0.5 18 0.5 19.75ZM17.8005 13.555C18.1155 12.4823 19.6345 12.4823 19.9513 13.555L20.0265 13.814C20.0735 13.9747 20.1559 14.1227 20.2677 14.2474C20.3795 14.372 20.5177 14.4699 20.6724 14.5341C20.827 14.5982 20.994 14.6269 21.1612 14.6179C21.3283 14.609 21.4913 14.5627 21.6383 14.4825L21.8763 14.353C22.858 13.8175 23.9325 14.892 23.3988 15.8737L23.2675 16.1117C23.1876 16.2586 23.1416 16.4215 23.1328 16.5884C23.1241 16.7554 23.1528 16.9221 23.2169 17.0765C23.281 17.2309 23.3789 17.369 23.5033 17.4807C23.6277 17.5923 23.7756 17.6747 23.936 17.7217L24.1968 17.8005C25.2677 18.1155 25.2677 19.6345 24.1968 19.9513L23.9342 20.0265C23.7739 20.0739 23.6262 20.1566 23.502 20.2685C23.3778 20.3805 23.2802 20.5188 23.2164 20.6734C23.1526 20.828 23.1243 20.9948 23.1334 21.1618C23.1426 21.3288 23.189 21.4916 23.2692 21.6383L23.3988 21.8763C23.9325 22.858 22.858 23.9325 21.8763 23.3988L21.6383 23.2675C21.4914 23.1876 21.3285 23.1416 21.1616 23.1328C20.9946 23.1241 20.8279 23.1528 20.6735 23.2169C20.5191 23.281 20.381 23.3789 20.2693 23.5033C20.1577 23.6277 20.0753 23.7756 20.0283 23.936L19.9495 24.1968C19.6345 25.2677 18.1155 25.2677 17.7987 24.1968L17.7235 23.9342C17.6761 23.7739 17.5934 23.6262 17.4815 23.502C17.3695 23.3778 17.2312 23.2802 17.0766 23.2164C16.922 23.1526 16.7552 23.1243 16.5882 23.1334C16.4212 23.1426 16.2584 23.189 16.1117 23.2692L15.8737 23.3988C14.892 23.9325 13.8175 22.858 14.3512 21.8763L14.4825 21.6383C14.5624 21.4914 14.6084 21.3285 14.6172 21.1616C14.6259 20.9946 14.5972 20.8279 14.5331 20.6735C14.469 20.5191 14.3711 20.381 14.2467 20.2693C14.1223 20.1577 13.9744 20.0753 13.814 20.0283L13.555 19.9495C12.4823 19.6345 12.4823 18.1155 13.555 17.7987L13.814 17.7235C13.9747 17.6765 14.1227 17.5941 14.2474 17.4823C14.372 17.3705 14.4699 17.2323 14.5341 17.0776C14.5982 16.923 14.6269 16.756 14.6179 16.5888C14.609 16.4217 14.5627 16.2587 14.4825 16.1117L14.353 15.8737C13.8175 14.892 14.892 13.8175 15.8737 14.3512L16.1117 14.4825C16.2586 14.5624 16.4215 14.6084 16.5884 14.6172C16.7554 14.6259 16.9221 14.5972 17.0765 14.5331C17.2309 14.469 17.369 14.3711 17.4807 14.2467C17.5923 14.1223 17.6747 13.9744 17.7217 13.814L17.8005 13.555ZM21.5 18.875C21.5 18.5303 21.4321 18.1889 21.3002 17.8705C21.1683 17.552 20.9749 17.2626 20.7312 17.0188C20.4874 16.7751 20.198 16.5817 19.8795 16.4498C19.5611 16.3179 19.2197 16.25 18.875 16.25C18.5303 16.25 18.1889 16.3179 17.8705 16.4498C17.552 16.5817 17.2626 16.7751 17.0188 17.0188C16.7751 17.2626 16.5817 17.552 16.4498 17.8705C16.3179 18.1889 16.25 18.5303 16.25 18.875C16.25 19.5712 16.5266 20.2389 17.0188 20.7312C17.5111 21.2234 18.1788 21.5 18.875 21.5C19.5712 21.5 20.2389 21.2234 20.7312 20.7312C21.2234 20.2389 21.5 19.5712 21.5 18.875Z"
      fill="currentColor" />
  </symbol>
  <symbol id="user" viewBox="0 0 16 16" fill="none" xmlns="http://www.w3.org/2000/svg">
    <path
      d="M8 0C9.06087 0 10.0783 0.421427 10.8284 1.17157C11.5786 1.92172 12 2.93913 12 4C12 5.06087 11.5786 6.07828 10.8284 6.82843C10.0783 7.57857 9.06087 8 8 8C6.93913 8 5.92172 7.57857 5.17157 6.82843C4.42143 6.07828 4 5.06087 4 4C4 2.93913 4.42143 1.92172 5.17157 1.17157C5.92172 0.421427 6.93913 0 8 0ZM8 2C7.46957 2 6.96086 2.21071 6.58579 2.58579C6.21071 2.96086 6 3.46957 6 4C6 4.53043 6.21071 5.03914 6.58579 5.41421C6.96086 5.78929 7.46957 6 8 6C8.53043 6 9.03914 5.78929 9.41421 5.41421C9.78929 5.03914 10 4.53043 10 4C10 3.46957 9.78929 2.96086 9.41421 2.58579C9.03914 2.21071 8.53043 2 8 2ZM8 9C10.67 9 16 10.33 16 13V16H0V13C0 10.33 5.33 9 8 9ZM8 10.9C5.03 10.9 1.9 12.36 1.9 13V14.1H14.1V13C14.1 12.36 10.97 10.9 8 10.9Z"
      fill="currentColor" />
  </symbol>
  <symbol id="x" viewBox="0 0 20 20" fill="none" xmlns="http://www.w3.org/2000/svg">
    <path
      d="M11.0664 10L19.1523 18.0977L18.0977 19.1523L10 11.0664L1.90234 19.1523L0.847656 18.0977L8.93359 10L0.847656 1.90234L1.90234 0.847656L10 8.93359L18.0977 0.847656L19.1523 1.90234L11.0664 10Z"
      fill="currentColor" />
  </symbol>
  <symbol id="eye" viewBox="0 0 22 15" xmlns="http://www.w3.org/2000/svg">
    <path d="M11 0C6 0 1.73 3.61 0 8C1.73 12.39 6 15 11 15C16 15 20.27 12.39 22 8C20.27 3.61 16 0 11 0ZM11 13C9.67392 13 8.40215 12.4732 7.46447 11.5355C6.52678 10.5979 6 9.32608 6 8C6 6.67392 6.52678 5.40215 7.46447 4.46447C8.40215 3.52678 9.67392 3 11 3C12.3261 3 13.5979 3.52678 14.5355 4.46447C15.4732 5.40215 16 6.67392 16 8C16 9.32608 15.4732 10.5979 14.5355 11.5355C13.5979 12.4732 12.3261 13 11 13ZM11 5C10.2043 5 9.44129 5.31607 8.87868 5.87868C8.31607 6.44129 8 7.20435 8 8C8 8.79565 8.31607 9.55871 8.87868 10.1213C9.44129 10.6839 10.2043 11 11 11C11.7956 11 12.5587 10.6839 13.1213 10.1213C13.6839 9.55871 14 8.79565 14 8C14 7.20435 13.6839 6.44129 13.1213 5.87868C12.5587 5.31607 11.7956 5 11 5Z" fill="currentColor"/>
  </symbol>
  <symbol id="confeti" viewBox="0 0 112 112" fill="none" xmlns="http://www.w3.org/2000/svg">
      <path d="M76.3991 69.7822C76.2327 69.3203 75.8896 68.9434 75.4453 68.7345C75.0011 68.5256 74.492 68.5017 74.0301 68.6682C73.5682 68.8346 73.1914 69.1777 72.9825 69.6219C72.7736 70.0662 72.7497 70.5753 72.9161 71.0372C72.9251 71.0612 72.9341 71.0842 72.9431 71.1072C74.6311 75.5122 74.7531 78.8812 73.2761 80.3622C71.4841 82.1502 67.0221 81.5912 61.3361 78.8702C53.7236 74.9173 46.8041 69.7537 40.8481 63.5812C26.3481 49.0812 20.3681 34.8532 24.0681 31.1532C24.6514 30.6927 25.3289 30.3664 26.0526 30.1975C26.7763 30.0287 27.5283 30.0214 28.2551 30.1762C28.7357 30.209 29.2101 30.0533 29.5776 29.742C29.9452 29.4307 30.1769 28.9884 30.2237 28.509C30.2704 28.0297 30.1284 27.5509 29.8279 27.1745C29.5274 26.7981 29.092 26.5537 28.6141 26.4932C27.3439 26.2684 26.0393 26.3349 24.7985 26.6876C23.5578 27.0402 22.4132 27.6699 21.4511 28.5292C14.6691 35.3092 25.0361 52.9942 38.2311 66.1912C44.4828 72.6608 51.7475 78.0681 59.7391 82.2002C61.1862 82.8931 62.6774 83.4897 64.2031 83.9862L51.0531 88.9722C42.4264 85.6923 34.8191 80.1918 29.0012 73.0273C23.1834 65.8627 19.3614 57.2884 17.9221 48.1722C17.8868 47.9299 17.8039 47.6971 17.678 47.4871C17.5521 47.2772 17.3858 47.0943 17.1888 46.949C16.9917 46.8037 16.7678 46.699 16.53 46.6409C16.2922 46.5827 16.0453 46.5723 15.8034 46.6103C15.5616 46.6483 15.3297 46.7338 15.1211 46.862C14.9126 46.9902 14.7315 47.1585 14.5885 47.3571C14.4454 47.5558 14.3431 47.7808 14.2876 48.0193C14.2321 48.2577 14.2245 48.5048 14.2651 48.7462C15.6976 57.8368 19.3469 66.4348 24.8906 73.7805C30.4343 81.1262 37.7018 86.9935 46.0511 90.8642L24.4061 99.0542C24.307 98.8884 24.1821 98.7396 24.0361 98.6132C21.314 96.4283 19.0638 93.7136 17.4217 90.6335C15.7796 87.5534 14.7799 84.172 14.4831 80.6942L13.6241 70.2942C13.591 69.8107 13.3674 69.3601 13.0023 69.0413C12.6373 68.7226 12.1607 68.5618 11.6771 68.5942H11.6201C11.3777 68.6132 11.1413 68.6799 10.9247 68.7904C10.708 68.9008 10.5152 69.0529 10.3573 69.2379C10.1994 69.4229 10.0796 69.6372 10.0045 69.8685C9.92953 70.0999 9.90084 70.3437 9.92012 70.5862C9.92012 70.5862 9.92012 70.5952 9.92012 70.5992L10.7941 80.9992C11.4446 88.5123 14.9492 95.4907 20.5871 100.499L5.14712 106.344L7.92312 94.9502C8.03941 94.4728 7.96131 93.9687 7.70598 93.5489C7.45064 93.1291 7.03901 92.828 6.56162 92.7117C6.08423 92.5954 5.58019 92.6735 5.16039 92.9288C4.74059 93.1841 4.43941 93.5958 4.32312 94.0732L0.719117 108.875C0.638904 109.203 0.649738 109.546 0.750448 109.868C0.851158 110.19 1.03791 110.478 1.29054 110.702C1.54317 110.925 1.85207 111.075 2.18386 111.136C2.51565 111.197 2.85772 111.166 3.17312 111.046L71.6571 85.1332C71.7659 85.0798 71.8689 85.0151 71.9641 84.9402C73.4464 84.7126 74.8205 84.0273 75.8941 82.9802C77.7281 81.1462 79.3071 77.3652 76.3991 69.7822Z" fill="currentColor"/>
      <path d="M93.8663 65.0091C83.8605 61.2631 73.0458 60.2131 62.5063 61.9641L55.8933 63.0751C55.4194 63.1669 55.0002 63.4403 54.7249 63.8368C54.4497 64.2334 54.3402 64.7218 54.4199 65.1978C54.4996 65.6739 54.7621 66.1001 55.1515 66.3853C55.5409 66.6706 56.0263 66.7926 56.5043 66.7251L63.1153 65.6251C73.0137 63.9795 83.1709 64.9665 92.5673 68.4871C92.776 68.5609 92.9959 68.5978 93.2173 68.5961C93.6513 68.5966 94.0718 68.4446 94.4051 68.1667C94.7385 67.8887 94.9635 67.5024 95.041 67.0753C95.1184 66.6482 95.0433 66.2075 94.8287 65.8302C94.6142 65.4529 94.2739 65.1629 93.8673 65.0111L93.8663 65.0091Z" fill="currentColor"/>
      <path d="M100.444 36.3332C100.233 35.89 99.8548 35.5489 99.3921 35.3848C98.9295 35.2207 98.4206 35.2471 97.9774 35.4582L59.1084 53.9672C58.8889 54.0717 58.6921 54.2183 58.5293 54.3988C58.3665 54.5794 58.2408 54.7902 58.1594 55.0193C58.0781 55.2484 58.0427 55.4912 58.0552 55.734C58.0677 55.9768 58.1279 56.2147 58.2324 56.4342C58.3369 56.6537 58.4836 56.8505 58.6641 57.0133C58.8446 57.1762 59.0554 57.3018 59.2845 57.3832C59.5136 57.4645 59.7564 57.5 59.9992 57.4874C60.242 57.4749 60.4799 57.4147 60.6994 57.3102L99.5684 38.8012C99.7881 38.6967 99.985 38.55 100.148 38.3695C100.311 38.1889 100.437 37.9779 100.518 37.7487C100.599 37.5195 100.635 37.2766 100.622 37.0337C100.609 36.7908 100.549 36.5527 100.444 36.3332Z" fill="currentColor"/>
      <path d="M45.6176 12.672C45.5199 12.1909 45.235 11.7683 44.8257 11.4973C44.4164 11.2262 43.9162 11.1288 43.4351 11.2265C42.954 11.3242 42.5314 11.6091 42.2604 12.0184C41.9893 12.4277 41.8919 12.9279 41.9896 13.409C41.9896 13.431 41.9986 13.453 42.0046 13.475C44.3482 23.9427 43.3828 34.8798 39.2416 44.775L36.5506 51.233C36.3637 51.6851 36.3633 52.1927 36.5496 52.6451C36.7358 53.0974 37.0936 53.4576 37.5446 53.647C37.7697 53.7418 38.0114 53.7904 38.2556 53.79C38.6208 53.79 38.9779 53.6819 39.2818 53.4794C39.5857 53.2769 39.8229 52.989 39.9636 52.652L42.6566 46.202C47.0938 35.6021 48.1285 23.8855 45.6176 12.672Z" fill="currentColor"/>
      <path d="M102.471 66.7432C101.373 66.7432 100.299 67.0688 99.3859 67.679C98.4727 68.2892 97.761 69.1564 97.3407 70.1711C96.9204 71.1858 96.8104 72.3023 97.0247 73.3795C97.2389 74.4567 97.7678 75.4461 98.5444 76.2227C99.321 76.9993 100.31 77.5282 101.388 77.7425C102.465 77.9567 103.581 77.8467 104.596 77.4265C105.611 77.0062 106.478 76.2944 107.088 75.3813C107.698 74.4681 108.024 73.3945 108.024 72.2962C108.024 70.8234 107.439 69.411 106.398 68.3696C105.356 67.3282 103.944 66.7432 102.471 66.7432ZM102.471 74.1432C102.105 74.1432 101.747 74.0346 101.443 73.8312C101.138 73.6278 100.901 73.3387 100.761 73.0005C100.621 72.6623 100.584 72.2901 100.656 71.9311C100.727 71.572 100.903 71.2422 101.162 70.9833C101.421 70.7244 101.751 70.5482 102.11 70.4767C102.469 70.4053 102.841 70.442 103.179 70.5821C103.518 70.7222 103.807 70.9594 104.01 71.2638C104.213 71.5682 104.322 71.9261 104.322 72.2922C104.322 72.7831 104.127 73.2539 103.78 73.601C103.433 73.9481 102.962 74.1432 102.471 74.1432Z" fill="currentColor"/>
      <path d="M58.0491 14.917C56.9508 14.917 55.8772 15.2427 54.964 15.8528C54.0508 16.463 53.3391 17.3303 52.9188 18.3449C52.4985 19.3596 52.3885 20.4762 52.6028 21.5533C52.8171 22.6305 53.3459 23.62 54.1225 24.3966C54.8991 25.1732 55.8886 25.702 56.9658 25.9163C58.0429 26.1306 59.1595 26.0206 60.1741 25.6003C61.1888 25.18 62.0561 24.4683 62.6662 23.5551C63.2764 22.6419 63.6021 21.5683 63.6021 20.47C63.6021 18.9972 63.017 17.5848 61.9757 16.5434C60.9343 15.502 59.5218 14.917 58.0491 14.917ZM58.0491 22.317C57.683 22.317 57.3251 22.2084 57.0207 22.005C56.7163 21.8017 56.4791 21.5126 56.339 21.1743C56.1989 20.8361 56.1622 20.4639 56.2337 20.1049C56.3051 19.7458 56.4814 19.416 56.7402 19.1571C56.9991 18.8983 57.3289 18.722 57.688 18.6506C58.047 18.5791 58.4192 18.6158 58.7574 18.7559C59.0957 18.896 59.3848 19.1332 59.5881 19.4376C59.7915 19.742 59.9001 20.0999 59.9001 20.466C59.9001 20.9569 59.7051 21.4277 59.358 21.7748C59.0108 22.122 58.54 22.317 58.0491 22.317Z" fill="currentColor"/>
      <path d="M41.3915 7.51411C43.436 7.51411 45.0935 5.85667 45.0935 3.81211C45.0935 1.76755 43.436 0.110107 41.3915 0.110107C39.3469 0.110107 37.6895 1.76755 37.6895 3.81211C37.6895 5.85667 39.3469 7.51411 41.3915 7.51411Z" fill="currentColor"/>
      <path d="M93.2162 9.36499C92.7253 9.36499 92.2545 9.56001 91.9074 9.90714C91.5602 10.2543 91.3652 10.7251 91.3652 11.216V13.065C91.381 13.5451 91.5829 14.0003 91.9281 14.3343C92.2733 14.6684 92.7348 14.8552 93.2152 14.8552C93.6956 14.8552 94.1572 14.6684 94.5024 14.3343C94.8476 14.0003 95.0494 13.5451 95.0652 13.065V11.216C95.0652 10.7254 94.8705 10.2549 94.5238 9.90784C94.1771 9.56077 93.7068 9.36552 93.2162 9.36499Z" fill="currentColor"/>
      <path d="M93.2162 0.110107C92.7253 0.110107 92.2545 0.305123 91.9074 0.652253C91.5602 0.999383 91.3652 1.47019 91.3652 1.96111V3.81011C91.381 4.29023 91.5829 4.74541 91.9281 5.07946C92.2733 5.41351 92.7348 5.60027 93.2152 5.60027C93.6956 5.60027 94.1572 5.41351 94.5024 5.07946C94.8476 4.74541 95.0494 4.29023 95.0652 3.81011V1.96111C95.0652 1.47054 94.8705 1.00003 94.5238 0.652959C94.1771 0.305887 93.7068 0.110637 93.2162 0.110107Z" fill="currentColor"/>
      <path d="M98.7687 5.66311H96.9177C96.6696 5.65495 96.4225 5.69677 96.1909 5.78607C95.9593 5.87537 95.7481 6.01033 95.5697 6.18292C95.3913 6.35551 95.2495 6.56222 95.1526 6.79073C95.0558 7.01925 95.0059 7.26491 95.0059 7.51311C95.0059 7.76131 95.0558 8.00697 95.1526 8.23549C95.2495 8.464 95.3913 8.6707 95.5697 8.8433C95.7481 9.01589 95.9593 9.15085 96.1909 9.24015C96.4225 9.32945 96.6696 9.37127 96.9177 9.36311H98.7687C99.2488 9.34732 99.704 9.14549 100.038 8.80028C100.372 8.45506 100.559 7.99349 100.559 7.51311C100.559 7.03273 100.372 6.57116 100.038 6.22594C99.704 5.88072 99.2488 5.6789 98.7687 5.66311Z" fill="currentColor"/>
      <path d="M89.5148 5.66311H87.6638C87.4157 5.65495 87.1686 5.69677 86.937 5.78607C86.7054 5.87537 86.4942 6.01033 86.3158 6.18292C86.1374 6.35551 85.9956 6.56222 85.8987 6.79073C85.8019 7.01925 85.752 7.26491 85.752 7.51311C85.752 7.76131 85.8019 8.00697 85.8987 8.23549C85.9956 8.464 86.1374 8.6707 86.3158 8.8433C86.4942 9.01589 86.7054 9.15085 86.937 9.24015C87.1686 9.32945 87.4157 9.37127 87.6638 9.36311H89.5148C89.9949 9.34732 90.4501 9.14549 90.7841 8.80028C91.1182 8.45506 91.305 7.99349 91.305 7.51311C91.305 7.03273 91.1182 6.57116 90.7841 6.22594C90.4501 5.88072 89.9949 5.6789 89.5148 5.66311Z" fill="currentColor"/>
      <path d="M80.2592 20.4312H70.9662C70.4753 20.4312 70.0045 20.6262 69.6574 20.9733C69.3102 21.3204 69.1152 21.7912 69.1152 22.2822V31.5751C69.1152 32.0661 69.3102 32.5369 69.6574 32.884C70.0045 33.2311 70.4753 33.4262 70.9662 33.4262H80.2592C80.7501 33.4262 81.221 33.2311 81.5681 32.884C81.9152 32.5369 82.1102 32.0661 82.1102 31.5751V22.2822C82.1102 22.0391 82.0624 21.7984 81.9693 21.5738C81.8763 21.3492 81.74 21.1452 81.5681 20.9733C81.3962 20.8014 81.1921 20.6651 80.9676 20.5721C80.743 20.479 80.5023 20.4312 80.2592 20.4312ZM78.4082 29.7242H72.8162V24.1331H78.4082V29.7242Z" fill="currentColor"/>
      <path d="M66.776 35.8881C66.4489 35.5391 65.9996 35.3302 65.5219 35.3053C65.0443 35.2803 64.5756 35.4411 64.214 35.7541L45.705 52.4121C45.3528 52.7438 45.1445 53.2002 45.1246 53.6836C45.1047 54.167 45.2749 54.6389 45.5987 54.9984C45.9225 55.3578 46.3741 55.5763 46.857 55.6069C47.3398 55.6375 47.8154 55.4778 48.182 55.1621L66.686 38.5041C67.0448 38.1691 67.2558 37.7053 67.2727 37.2147C67.2896 36.7242 67.1109 36.247 66.776 35.8881Z" fill="currentColor"/>
      <path d="M100.62 42.6812C100.129 42.6812 99.6579 42.8762 99.3107 43.2233C98.9636 43.5704 98.7686 44.0412 98.7686 44.5322V46.3811C98.7604 46.6292 98.8022 46.8764 98.8915 47.108C98.9808 47.3395 99.1158 47.5508 99.2884 47.7292C99.461 47.9075 99.6677 48.0493 99.8962 48.1462C100.125 48.2431 100.37 48.293 100.619 48.293C100.867 48.293 101.112 48.2431 101.341 48.1462C101.569 48.0493 101.776 47.9075 101.949 47.7292C102.121 47.5508 102.256 47.3395 102.346 47.108C102.435 46.8764 102.477 46.6292 102.469 46.3811V44.5302C102.468 44.0399 102.273 43.5699 101.926 43.2233C101.58 42.8767 101.11 42.6817 100.62 42.6812Z" fill="currentColor"/>
      <path d="M108.473 42.362L107.164 41.053C106.814 40.7192 106.348 40.5355 105.865 40.5411C105.381 40.5468 104.919 40.7413 104.577 41.0832C104.235 41.425 104.041 41.8871 104.035 42.3705C104.03 42.8539 104.213 43.3203 104.547 43.67L105.856 44.9791C106.206 45.3129 106.672 45.4966 107.156 45.491C107.639 45.4853 108.101 45.2908 108.443 44.9489C108.785 44.6071 108.979 44.145 108.985 43.6616C108.991 43.1782 108.807 42.7118 108.473 42.362Z" fill="currentColor"/>
      <path d="M109.874 35.2771H108.023C107.775 35.269 107.528 35.3108 107.296 35.4001C107.065 35.4894 106.854 35.6243 106.675 35.7969C106.497 35.9695 106.355 36.1762 106.258 36.4047C106.161 36.6333 106.111 36.8789 106.111 37.1271C106.111 37.3753 106.161 37.621 106.258 37.8495C106.355 38.078 106.497 38.2847 106.675 38.4573C106.854 38.6299 107.065 38.7649 107.296 38.8542C107.528 38.9435 107.775 38.9853 108.023 38.9771H109.874C110.354 38.9613 110.809 38.7595 111.144 38.4143C111.478 38.0691 111.664 37.6075 111.664 37.1271C111.664 36.6467 111.478 36.1852 111.144 35.84C110.809 35.4947 110.354 35.2929 109.874 35.2771Z" fill="currentColor"/>
      <path d="M108.426 29.276C108.081 28.9427 107.62 28.7563 107.14 28.7563C106.66 28.7563 106.199 28.9427 105.854 29.276L104.545 30.585C104.287 30.844 104.111 31.1737 104.039 31.5326C103.968 31.8916 104.005 32.2636 104.145 32.6016C104.285 32.9397 104.522 33.2286 104.826 33.432C105.131 33.6353 105.488 33.7439 105.854 33.744C106.097 33.7441 106.338 33.6962 106.563 33.6032C106.787 33.5102 106.991 33.3739 107.163 33.202L108.472 31.893C108.813 31.5399 109 31.0658 108.991 30.575C108.982 30.0842 108.779 29.617 108.426 29.276Z" fill="currentColor"/>
      <path d="M100.621 26.0232C100.13 26.0232 99.6588 26.2182 99.3117 26.5653C98.9645 26.9125 98.7695 27.3833 98.7695 27.8742V29.7232C98.7853 30.2033 98.9871 30.6585 99.3324 30.9925C99.6776 31.3266 100.139 31.5134 100.62 31.5134C101.1 31.5134 101.561 31.3266 101.907 30.9925C102.252 30.6585 102.454 30.2033 102.47 29.7232V27.8722C102.469 27.382 102.274 26.912 101.927 26.5653C101.581 26.2187 101.111 26.0237 100.621 26.0232Z" fill="currentColor"/>
      <path d="M96.6939 30.5852L95.3849 29.2762C95.0352 28.9424 94.5687 28.7587 94.0853 28.7643C93.6019 28.7699 93.1399 28.9644 92.798 29.3063C92.4562 29.6482 92.2616 30.1102 92.256 30.5936C92.2504 31.077 92.4341 31.5435 92.7679 31.8932L94.0769 33.2022C94.4266 33.536 94.893 33.7197 95.3765 33.7141C95.8599 33.7085 96.3219 33.5139 96.6638 33.1721C97.0056 32.8302 97.2002 32.3682 97.2058 31.8848C97.2114 31.4013 97.0277 30.9349 96.6939 30.5852Z" fill="currentColor"/>
      <path d="M22.7904 8.11308C22.6836 7.78478 22.4871 7.4929 22.2231 7.27042C21.9591 7.04794 21.6381 6.90373 21.2964 6.85408L15.8644 6.06408L13.4414 1.14208C13.2712 0.853021 13.0285 0.6134 12.7373 0.446921C12.446 0.280441 12.1164 0.192871 11.7809 0.192871C11.4455 0.192871 11.1158 0.280441 10.8246 0.446921C10.5334 0.6134 10.2907 0.853021 10.1204 1.14208L7.68644 6.06408L2.25444 6.85408C1.91264 6.90344 1.59146 7.04743 1.32721 7.26978C1.06297 7.49213 0.866199 7.78397 0.759146 8.1123C0.652094 8.44064 0.639031 8.79237 0.721432 9.12774C0.803834 9.46311 0.978415 9.76875 1.22544 10.0101L5.15444 13.8411L4.22944 19.2511C4.16923 19.5923 4.20601 19.9436 4.3356 20.265C4.46518 20.5863 4.68237 20.8649 4.96245 21.0689C5.24253 21.2729 5.57424 21.3942 5.91986 21.419C6.26548 21.4438 6.61111 21.371 6.91744 21.2091L11.7724 18.6481L16.6314 21.2021C16.9371 21.3629 17.2817 21.4349 17.6262 21.41C17.9707 21.3852 18.3014 21.2645 18.5809 21.0615C18.8603 20.8585 19.0774 20.5814 19.2076 20.2614C19.3377 19.9415 19.3758 19.5915 19.3174 19.2511L18.3924 13.8411L22.3234 10.0101C22.5704 9.76889 22.7451 9.46343 22.8276 9.12821C22.9101 8.79299 22.8972 8.44137 22.7904 8.11308ZM15.1074 11.8701C14.8924 12.0791 14.7314 12.3371 14.6382 12.6221C14.545 12.9071 14.5224 13.2104 14.5724 13.5061L15.0314 16.1811L12.6314 14.9171C12.366 14.7777 12.0707 14.7049 11.7709 14.7049C11.4712 14.7049 11.1759 14.7777 10.9104 14.9171L8.50844 16.1791L8.96744 13.5041C9.01856 13.2097 8.9976 12.9072 8.90635 12.6227C8.81509 12.3381 8.65626 12.0799 8.44344 11.8701L6.49844 9.97708L9.18444 9.58608C9.48142 9.54303 9.76349 9.42842 10.0063 9.25213C10.2492 9.07583 10.4455 8.84313 10.5784 8.57408L11.7784 6.14408L12.9784 8.57408C13.1112 8.84288 13.3072 9.07542 13.5497 9.2517C13.7921 9.42798 14.0738 9.54273 14.3704 9.58608L17.0544 9.97708L15.1074 11.8701Z" fill="currentColor"/>
      <path d="M105.473 92.8862H105.466L104.703 91.7422C102.587 88.5785 99.8471 85.8805 96.6512 83.8139C93.4553 81.7472 89.8708 80.3556 86.1176 79.7242C85.6396 79.6568 85.1542 79.7787 84.7648 80.064C84.3754 80.3493 84.1129 80.7754 84.0332 81.2515C83.9535 81.7275 84.063 82.2159 84.3382 82.6125C84.6134 83.009 85.0327 83.2824 85.5066 83.3742C90.9777 84.303 95.9639 87.0827 99.6306 91.2482C98.1073 91.5228 96.6597 92.118 95.3839 92.9945C94.1081 93.871 93.0333 95.0088 92.2306 96.3322C91.7566 97.1812 91.4544 98.1151 91.3414 99.0808C91.2283 100.047 91.3066 101.025 91.5717 101.961C91.8368 102.896 92.2836 103.77 92.8865 104.533C93.4894 105.296 94.2367 105.932 95.0856 106.406C95.9345 106.88 96.8685 107.182 97.8342 107.295C98.7999 107.408 99.7784 107.33 100.714 107.065C101.649 106.8 102.523 106.353 103.286 105.75C104.049 105.147 104.686 104.4 105.16 103.551C105.921 102.081 106.331 100.455 106.36 98.8002C107.325 100.202 107.875 101.848 107.946 103.548C108.018 105.248 107.608 106.934 106.765 108.412C106.514 108.834 106.442 109.339 106.563 109.815C106.684 110.29 106.99 110.698 107.412 110.949C107.834 111.199 108.339 111.272 108.814 111.15C109.29 111.029 109.698 110.723 109.949 110.301C109.966 110.273 109.982 110.244 109.997 110.215C111.628 107.302 112.067 103.87 111.224 100.64C110.381 97.4092 108.319 94.6306 105.473 92.8862ZM101.928 101.744C101.453 102.604 100.657 103.24 99.7137 103.512C98.7705 103.785 97.7577 103.671 96.8981 103.197C96.0385 102.722 95.4026 101.926 95.1302 100.983C94.8578 100.04 94.9712 99.0268 95.4456 98.1672L95.4626 98.1372C96.0019 97.2543 96.7319 96.5032 97.5991 95.9389C98.4664 95.3746 99.4488 95.0115 100.475 94.8762C100.796 94.8677 101.115 94.9417 101.4 95.0912C102.963 95.9632 103.046 99.7422 101.928 101.745V101.744Z" fill="currentColor"/>
  </symbol>
  <symbol id="arrow-right" viewBox="0 0 18 10" fill="none" xmlns="http://www.w3.org/2000/svg">
        <path d="M13.5113 3.875H0V6.125H13.5113V9.5L18 5L13.5113 0.5V3.875Z" fill="currentColor"/>
      </symbol>  
      <symbol id="trash-1" viewBox="0 0 14 18" fill="none" xmlns="http://www.w3.org/2000/svg">
        <path d="M1 16C1 17.1 1.9 18 3 18H11C12.1 18 13 17.1 13 16V4H1V16ZM3.46 8.88L4.87 7.47L7 9.59L9.12 7.47L10.53 8.88L8.41 11L10.53 13.12L9.12 14.53L7 12.41L4.88 14.53L3.47 13.12L5.59 11L3.46 8.88ZM10.5 1L9.5 0H4.5L3.5 1H0V3H14V1H10.5Z" fill="currentColor"/>
      </symbol>

      <symbol id="resend" viewBox="0 0 33 33" version="1.1" xmlns="http://www.w3.org/2000/svg" xmlns:xlink="http://www.w3.org/1999/xlink" xmlns:sketch="http://www.bohemiancoding.com/sketch/ns">
        <g id="Page-1" stroke="none" stroke-width="1" fill="currentColor" fill-rule="evenodd" sketch:type="MSPage">
            <g id="Icon-Set" sketch:type="MSLayerGroup" transform="translate(-568.000000, -254.000000)" fill="currentColor">
                <path d="M584,283 C584,283 580.872,276.976 580,275 L596.075,259.779 L584,283 L584,283 Z M572,270 L595,259 L579,274 C578.996,273.996 572,270 572,270 L572,270 Z M599,255 C597.844,255.563 568,270 568,270 C568,270 578.052,276.059 578,276 C577.983,275.981 584,287 584,287 C584,287 599.75,256.5 600,256 C600.219,255.375 599.75,254.688 599,255 L599,255 Z" id="send-email" sketch:type="MSShapeGroup">
    
    </path>
            </g>
        </g>
    </symbol>
    <symbol id="filter-2" viewBox="0 0 24 24" fill="none" xmlns="http://www.w3.org/2000/svg">
      <path d="M11 18C10.7167 18 10.479 17.904 10.287 17.712C10.095 17.52 9.99934 17.2827 10 17C10 16.7167 10.096 16.479 10.288 16.287C10.48 16.095 10.7173 15.9993 11 16H13C13.2833 16 13.521 16.096 13.713 16.288C13.905 16.48 14.0007 16.7173 14 17C14 17.2833 13.904 17.521 13.712 17.713C13.52 17.905 13.2827 18.0007 13 18H11ZM4 8C3.71667 8 3.479 7.904 3.287 7.712C3.095 7.52 2.99934 7.28267 3 7C3 6.71667 3.096 6.479 3.288 6.287C3.48 6.095 3.71734 5.99934 4 6H20C20.2833 6 20.521 6.096 20.713 6.288C20.905 6.48 21.0007 6.71734 21 7C21 7.28334 20.904 7.521 20.712 7.713C20.52 7.905 20.2827 8.00067 20 8H4ZM7 13C6.71667 13 6.479 12.904 6.287 12.712C6.095 12.52 5.99934 12.2827 6 12C6 11.7167 6.096 11.479 6.288 11.287C6.48 11.095 6.71734 10.9993 7 11H17C17.2833 11 17.521 11.096 17.713 11.288C17.905 11.48 18.0007 11.7173 18 12C18 12.2833 17.904 12.521 17.712 12.713C17.52 12.905 17.2827 13.0007 17 13H7Z" fill="currentColor"/>
    </symbol>
    <symbol id="reset" viewBox="0 0 12 16" fill="none" xmlns="http://www.w3.org/2000/svg">
      <path d="M6.00033 2.6665V0.666504L3.33366 3.33317L6.00033 5.99984V3.99984C8.20699 3.99984 10.0003 5.79317 10.0003 7.99984C10.0003 8.67317 9.83366 9.31317 9.53366 9.8665L10.507 10.8398C11.0472 9.99111 11.3339 9.00588 11.3337 7.99984C11.3337 5.05317 8.94699 2.6665 6.00033 2.6665ZM6.00033 11.9998C3.79366 11.9998 2.00033 10.2065 2.00033 7.99984C2.00033 7.3265 2.16699 6.6865 2.46699 6.13317L1.49366 5.15984C0.953494 6.00856 0.666712 6.9938 0.666992 7.99984C0.666992 10.9465 3.05366 13.3332 6.00033 13.3332V15.3332L8.66699 12.6665L6.00033 9.99984V11.9998Z" fill="#2B335B"/>
    </symbol>
    <symbol id="word" viewBox="0 0 24 30" fill="none" xmlns="http://www.w3.org/2000/svg">
      <path d="M15 0H3C2.20435 0 1.44129 0.31607 0.87868 0.87868C0.31607 1.44129 0 2.20435 0 3V27C0 27.7956 0.31607 28.5587 0.87868 29.1213C1.44129 29.6839 2.20435 30 3 30H21C21.7956 30 22.5587 29.6839 23.1213 29.1213C23.6839 28.5587 24 27.7956 24 27V9L15 0ZM16.8 27H14.7L12 16.8L9.3 27H7.2L3.9 13.5H6.15L8.25 23.7L10.95 13.5H12.9L15.6 23.7L17.7 13.5H19.95L16.8 27ZM13.5 10.5V2.25L21.75 10.5H13.5Z" fill="#56AFF0"/>
    </symbol>
    <symbol id="pdf" viewBox="0 0 22 30" fill="none" xmlns="http://www.w3.org/2000/svg">
      <path d="M12.375 10.5H19.9375L12.375 2.25V10.5ZM2.75 0H13.75L22 9V27C22 27.7956 21.7103 28.5587 21.1945 29.1213C20.6788 29.6839 19.9793 30 19.25 30H2.75C2.02065 30 1.32118 29.6839 0.805456 29.1213C0.289731 28.5587 0 27.7956 0 27V3C0 2.20435 0.289731 1.44129 0.805456 0.87868C1.32118 0.31607 2.02065 0 2.75 0ZM8.3875 14.1C8.36 14.16 7.98875 16.74 5.5 21.135C5.5 21.135 0.6875 23.865 1.82875 25.905C2.75 27.525 5.01875 25.845 6.97125 21.885C6.97125 21.885 9.47375 20.925 12.8013 20.655C12.8013 20.655 18.1088 23.25 18.8375 20.49C19.5525 17.7 14.63 18.33 13.75 18.615C13.75 18.615 11 16.59 10.3125 13.8C10.3125 13.8 11.88 7.875 9.47375 7.95C7.0675 8.025 7.975 12.645 8.3875 14.1ZM9.50125 15.66C9.5425 15.675 10.1475 17.475 12.1 19.35C12.1 19.35 8.89625 20.04 7.43875 20.7C7.43875 20.7 8.81375 18.105 9.50125 15.66ZM14.905 19.74C15.7025 19.5 18.1088 19.965 18.0125 20.46C17.93 20.955 14.905 19.74 14.905 19.74ZM5.18375 22.5C4.455 24.36 3.20375 25.5 2.8875 25.5C2.57125 25.5 3.85 23.1 5.18375 22.5ZM9.50125 12.105C9.50125 12 9.00625 8.805 9.50125 8.88C10.2437 9 9.50125 12 9.50125 12.105Z" fill="#E95340"/>
    </symbol>
    <symbol id="image" viewBox="0 0 16 20" fill="none" xmlns="http://www.w3.org/2000/svg">
      <path d="M9 7H14.5L9 1.5V7ZM2 0H10L16 6V18C16 18.5304 15.7893 19.0391 15.4142 19.4142C15.0391 19.7893 14.5304 20 14 20H2C1.46957 20 0.960859 19.7893 0.585786 19.4142C0.210714 19.0391 0 18.5304 0 18V2C0 0.89 0.89 0 2 0ZM2 18H14V10L10 14L8 12L2 18ZM4 7C3.46957 7 2.96086 7.21071 2.58579 7.58579C2.21071 7.96086 2 8.46957 2 9C2 9.53043 2.21071 10.0391 2.58579 10.4142C2.96086 10.7893 3.46957 11 4 11C4.53043 11 5.03914 10.7893 5.41421 10.4142C5.78929 10.0391 6 9.53043 6 9C6 8.46957 5.78929 7.96086 5.41421 7.58579C5.03914 7.21071 4.53043 7 4 7Z" fill="currentColor"/>
    </symbol>
    <symbol id="download" viewBox="0 0 14 17" fill="none" xmlns="http://www.w3.org/2000/svg">
      <path d="M0 17H14V15H0V17ZM14 6H10V0H4V6H0L7 13L14 6Z" fill="currentColor"/>
    </symbol>
    <symbol id="add-item" viewBox="0 0 19 18" fill="none" xmlns="http://www.w3.org/2000/svg">
      <path d="M8.5 14H10.5V10H14.5V8H10.5V4H8.5V8H4.5V10H8.5V14ZM2.5 18C1.95 18 1.479 17.8043 1.087 17.413C0.695667 17.021 0.5 16.55 0.5 16V2C0.5 1.45 0.695667 0.979 1.087 0.587C1.479 0.195667 1.95 0 2.5 0H16.5C17.05 0 17.521 0.195667 17.913 0.587C18.3043 0.979 18.5 1.45 18.5 2V16C18.5 16.55 18.3043 17.021 17.913 17.413C17.521 17.8043 17.05 18 16.5 18H2.5ZM2.5 16H16.5V2H2.5V16Z" fill="currentColor"/>
    </symbol>
    <symbol fill="currentColor" id="success" version="1.1" xmlns="http://www.w3.org/2000/svg" xmlns:xlink="http://www.w3.org/1999/xlink" 
	 viewBox="0 0 512 512" xml:space="preserve">
      <g>
        <path d="M474.045,173.813c-4.201,1.371-6.494,5.888-5.123,10.088c7.571,23.199,11.411,47.457,11.411,72.1
          c0,62.014-24.149,120.315-68,164.166s-102.153,68-164.167,68s-120.316-24.149-164.167-68S16,318.014,16,256
          S40.149,135.684,84,91.833s102.153-68,164.167-68c32.889,0,64.668,6.734,94.455,20.017c28.781,12.834,54.287,31.108,75.81,54.315
          c3.004,3.239,8.066,3.431,11.306,0.425c3.24-3.004,3.43-8.065,0.426-11.306c-23-24.799-50.26-44.328-81.024-58.047
          C317.287,15.035,283.316,7.833,248.167,7.833c-66.288,0-128.608,25.813-175.48,72.687C25.814,127.392,0,189.712,0,256
          c0,66.287,25.814,128.607,72.687,175.479c46.872,46.873,109.192,72.687,175.48,72.687s128.608-25.813,175.48-72.687
          c46.873-46.872,72.687-109.192,72.687-175.479c0-26.332-4.105-52.26-12.201-77.064
          C482.762,174.736,478.245,172.445,474.045,173.813z"/>
        <path d="M504.969,83.262c-4.532-4.538-10.563-7.037-16.98-7.037s-12.448,2.499-16.978,7.034l-7.161,7.161
          c-3.124,3.124-3.124,8.189,0,11.313c3.124,3.123,8.19,3.124,11.314-0.001l7.164-7.164c1.51-1.512,3.52-2.344,5.66-2.344
          s4.15,0.832,5.664,2.348c1.514,1.514,2.348,3.524,2.348,5.663s-0.834,4.149-2.348,5.663L217.802,381.75
          c-1.51,1.512-3.52,2.344-5.66,2.344s-4.15-0.832-5.664-2.348L98.747,274.015c-1.514-1.514-2.348-3.524-2.348-5.663
          c0-2.138,0.834-4.149,2.351-5.667c1.51-1.512,3.52-2.344,5.66-2.344s4.15,0.832,5.664,2.348l96.411,96.411
          c1.5,1.5,3.535,2.343,5.657,2.343s4.157-0.843,5.657-2.343l234.849-234.849c3.125-3.125,3.125-8.189,0-11.314
          c-3.124-3.123-8.189-3.123-11.313,0L212.142,342.129l-90.75-90.751c-4.533-4.538-10.563-7.037-16.98-7.037
          s-12.448,2.499-16.978,7.034c-4.536,4.536-7.034,10.565-7.034,16.977c0,6.412,2.498,12.441,7.034,16.978l107.728,107.728
          c4.532,4.538,10.563,7.037,16.98,7.037c6.417,0,12.448-2.499,16.977-7.033l275.847-275.848c4.536-4.536,7.034-10.565,7.034-16.978
          S509.502,87.794,504.969,83.262z"/>
      </g>
    </symbol>
    <symbol id="pen-project" viewBox="0 0 32 32" fill="none" xmlns="http://www.w3.org/2000/svg">
      <path fill="currentColor" d="M6.66667 25.3332H8.53333L20.0333 13.8332L18.1667 11.9665L6.66667 23.4665V25.3332ZM25.7333 11.8998L20.0667 6.29984L21.9333 4.43317C22.4444 3.92206 23.0724 3.6665 23.8173 3.6665C24.5622 3.6665 25.1898 3.92206 25.7 4.43317L27.5667 6.29984C28.0778 6.81095 28.3444 7.42784 28.3667 8.1505C28.3889 8.87317 28.1444 9.48961 27.6333 9.99984L25.7333 11.8998ZM23.8 13.8665L9.66667 27.9998H4V22.3332L18.1333 8.19984L23.8 13.8665ZM19.1 12.8998L18.1667 11.9665L20.0333 13.8332L19.1 12.8998Z"/>
    </symbol>
    <symbol id="3points" viewBox="0 0 4 14" fill="none" xmlns="http://www.w3.org/2000/svg">
      <path fill="currentColor" d="M2.00016 3.66634C2.91683 3.66634 3.66683 2.91634 3.66683 1.99967C3.66683 1.08301 2.91683 0.333008 2.00016 0.333008C1.0835 0.333008 0.333496 1.08301 0.333496 1.99967C0.333496 2.91634 1.0835 3.66634 2.00016 3.66634ZM2.00016 5.33301C1.0835 5.33301 0.333496 6.08301 0.333496 6.99967C0.333496 7.91634 1.0835 8.66634 2.00016 8.66634C2.91683 8.66634 3.66683 7.91634 3.66683 6.99967C3.66683 6.08301 2.91683 5.33301 2.00016 5.33301ZM2.00016 10.333C1.0835 10.333 0.333496 11.083 0.333496 11.9997C0.333496 12.9163 1.0835 13.6663 2.00016 13.6663C2.91683 13.6663 3.66683 12.9163 3.66683 11.9997C3.66683 11.083 2.91683 10.333 2.00016 10.333Z"/>
    </symbol>
    <symbol id="chevron-down"  viewBox="0 0 16 16" fill="none" xmlns="http://www.w3.org/2000/svg">
      <path fill="currentColor" fill-rule="evenodd" clip-rule="evenodd" d="M4.23431 5.83441C4.54673 5.52199 5.05327 5.52199 5.36568 5.83441L8 8.46873L10.6343 5.83441C10.9467 5.52199 11.4533 5.52199 11.7657 5.83441C12.0781 6.14683 12.0781 6.65336 11.7657 6.96578L8.56569 10.1658C8.25327 10.4782 7.74673 10.4782 7.43431 10.1658L4.23431 6.96578C3.92189 6.65336 3.9219 6.14683 4.23431 5.83441Z"/>
    </symbol>
    <symbol id="history" xmlns="http://www.w3.org/2000/svg" viewBox="0 0 512 512">
      <path fill="currentColor" d="M75 75L41 41C25.9 25.9 0 36.6 0 57.9V168c0 13.3 10.7 24 24 24H134.1c21.4 0 32.1-25.9 17-41l-30.8-30.8C155 85.5 203 64 256 64c106 0 192 86 192 192s-86 192-192 192c-40.8 0-78.6-12.7-109.7-34.4c-14.5-10.1-34.4-6.6-44.6 7.9s-6.6 34.4 7.9 44.6C151.2 495 201.7 512 256 512c141.4 0 256-114.6 256-256S397.4 0 256 0C185.3 0 121.3 28.7 75 75zm181 53c-13.3 0-24 10.7-24 24V256c0 6.4 2.5 12.5 7 17l72 72c9.4 9.4 24.6 9.4 33.9 0s9.4-24.6 0-33.9l-65-65V152c0-13.3-10.7-24-24-24z"/>
    </symbol>
    <symbol id="right-fleche" viewBox="0 0 9 7" fill="none" xmlns="http://www.w3.org/2000/svg">
      <path fill="currentColor" d="M5.21879 6.01043C5.0799 6.10071 4.93935 6.10599 4.79713 6.02627C4.6549 5.94655 4.58365 5.82321 4.58338 5.65627V3.91668H1.25004C1.13199 3.91668 1.03296 3.87668 0.952959 3.79668C0.872959 3.71668 0.833098 3.61779 0.833375 3.50002C0.833375 3.38196 0.873376 3.28293 0.953376 3.20293C1.03338 3.12293 1.13226 3.08307 1.25004 3.08335H4.58338V1.34377C4.58338 1.1771 4.65463 1.05377 4.79713 0.973767C4.93963 0.893767 5.08018 0.899045 5.21879 0.9896L8.61462 3.14585C8.74657 3.22918 8.81254 3.34724 8.81254 3.50002C8.81254 3.6528 8.74657 3.77085 8.61462 3.85418L5.21879 6.01043Z"/>
    </symbol>
    <symbol id="right" viewBox="0 0 10 9" fill="none" xmlns="http://www.w3.org/2000/svg">
      <path fill="currentColor" d="M3.33333 8.5L0 4.88298L1.16667 3.61702L3.33333 5.96809L8.83333 0L10 1.26596L3.33333 8.5Z"/>
    </symbol>
    <symbol id="renewal"  viewBox="0 0 16 22" fill="none" xmlns="http://www.w3.org/2000/svg">
      <path fill="currentColor" d="M8 3V0L4 4L8 8V5C11.31 5 14 7.69 14 11C14 12.01 13.75 12.97 13.3 13.8L14.76 15.26C15.5702 13.9869 16.0004 12.5091 16 11C16 6.58 12.42 3 8 3ZM8 17C4.69 17 2 14.31 2 11C2 9.99 2.25 9.03 2.7 8.2L1.24 6.74C0.429753 8.01309 -0.000419615 9.49094 3.07144e-07 11C3.07144e-07 15.42 3.58 19 8 19V22L12 18L8 14V17Z"/>
    </symbol>
    <symbol id="bars-solid" xmlns="http://www.w3.org/2000/svg" viewBox="0 0 448 512">  
      <path fill="currentColor" d="M0 96C0 78.3 14.3 64 32 64H416c17.7 0 32 14.3 32 32s-14.3 32-32 32H32C14.3 128 0 113.7 0 96zM0 256c0-17.7 14.3-32 32-32H416c17.7 0 32 14.3 32 32s-14.3 32-32 32H32c-17.7 0-32-14.3-32-32zM448 416c0 17.7-14.3 32-32 32H32c-17.7 0-32-14.3-32-32s14.3-32 32-32H416c17.7 0 32 14.3 32 32z"/>
    </symbol>
    <symbol id="folder-solid" xmlns="http://www.w3.org/2000/svg" viewBox="0 0 512 512">
      <path fill="currentColor" d="M64 480H448c35.3 0 64-28.7 64-64V160c0-35.3-28.7-64-64-64H288c-10.1 0-19.6-4.7-25.6-12.8L243.2 57.6C231.1 41.5 212.1 32 192 32H64C28.7 32 0 60.7 0 96V416c0 35.3 28.7 64 64 64z"/>
    </symbol>
    <symbol id='link-solid' xmlns="http://www.w3.org/2000/svg" viewBox="0 0 640 512">
      <path fill="currentColor" d="M579.8 267.7c56.5-56.5 56.5-148 0-204.5c-50-50-128.8-56.5-186.3-15.4l-1.6 1.1c-14.4 10.3-17.7 30.3-7.4 44.6s30.3 17.7 44.6 7.4l1.6-1.1c32.1-22.9 76-19.3 103.8 8.6c31.5 31.5 31.5 82.5 0 114L422.3 334.8c-31.5 31.5-82.5 31.5-114 0c-27.9-27.9-31.5-71.8-8.6-103.8l1.1-1.6c10.3-14.4 6.9-34.4-7.4-44.6s-34.4-6.9-44.6 7.4l-1.1 1.6C206.5 251.2 213 330 263 380c56.5 56.5 148 56.5 204.5 0L579.8 267.7zM60.2 244.3c-56.5 56.5-56.5 148 0 204.5c50 50 128.8 56.5 186.3 15.4l1.6-1.1c14.4-10.3 17.7-30.3 7.4-44.6s-30.3-17.7-44.6-7.4l-1.6 1.1c-32.1 22.9-76 19.3-103.8-8.6C74 372 74 321 105.5 289.5L217.7 177.2c31.5-31.5 82.5-31.5 114 0c27.9 27.9 31.5 71.8 8.6 103.9l-1.1 1.6c-10.3 14.4-6.9 34.4 7.4 44.6s34.4 6.9 44.6-7.4l1.1-1.6C433.5 260.8 427 182 377 132c-56.5-56.5-148-56.5-204.5 0L60.2 244.3z"/>
    </symbol>
    <symbol id="tools" xmlns="http://www.w3.org/2000/svg" viewBox="0 0 512 512">
      <path fill="currentColor" d="M495.9 166.6c3.2 8.7 .5 18.4-6.4 24.6l-43.3 39.4c1.1 8.3 1.7 16.8 1.7 25.4s-.6 17.1-1.7 25.4l43.3 39.4c6.9 6.2 9.6 15.9 6.4 24.6c-4.4 11.9-9.7 23.3-15.8 34.3l-4.7 8.1c-6.6 11-14 21.4-22.1 31.2c-5.9 7.2-15.7 9.6-24.5 6.8l-55.7-17.7c-13.4 10.3-28.2 18.9-44 25.4l-12.5 57.1c-2 9.1-9 16.3-18.2 17.8c-13.8 2.3-28 3.5-42.5 3.5s-28.7-1.2-42.5-3.5c-9.2-1.5-16.2-8.7-18.2-17.8l-12.5-57.1c-15.8-6.5-30.6-15.1-44-25.4L83.1 425.9c-8.8 2.8-18.6 .3-24.5-6.8c-8.1-9.8-15.5-20.2-22.1-31.2l-4.7-8.1c-6.1-11-11.4-22.4-15.8-34.3c-3.2-8.7-.5-18.4 6.4-24.6l43.3-39.4C64.6 273.1 64 264.6 64 256s.6-17.1 1.7-25.4L22.4 191.2c-6.9-6.2-9.6-15.9-6.4-24.6c4.4-11.9 9.7-23.3 15.8-34.3l4.7-8.1c6.6-11 14-21.4 22.1-31.2c5.9-7.2 15.7-9.6 24.5-6.8l55.7 17.7c13.4-10.3 28.2-18.9 44-25.4l12.5-57.1c2-9.1 9-16.3 18.2-17.8C227.3 1.2 241.5 0 256 0s28.7 1.2 42.5 3.5c9.2 1.5 16.2 8.7 18.2 17.8l12.5 57.1c15.8 6.5 30.6 15.1 44 25.4l55.7-17.7c8.8-2.8 18.6-.3 24.5 6.8c8.1 9.8 15.5 20.2 22.1 31.2l4.7 8.1c6.1 11 11.4 22.4 15.8 34.3zM256 336a80 80 0 1 0 0-160 80 80 0 1 0 0 160z"/>
    </symbol>
<symbol id="calendar" viewBox="0 0 18 20" fill="currentColor" xmlns="http://www.w3.org/2000/svg">
  <path d="M18 18V4C18 2.897 17.103 2 16 2H14V0H12V2H6V0H4V2H2C0.897 2 0 2.897 0 4V18C0 19.103 0.897 20 2 20H16C17.103 20 18 19.103 18 18ZM6 16H4V14H6V16ZM6 12H4V10H6V12ZM10 16H8V14H10V16ZM10 12H8V10H10V12ZM14 16H12V14H14V16ZM14 12H12V10H14V12ZM16 7H2V5H16V7Z" fill="currentColor"/>
  </symbol>
  <symbol id="add-square" viewBox="0 0 19 18" fill="none" xmlns="http://www.w3.org/2000/svg">
    <path d="M8.5 14H10.5V10H14.5V8H10.5V4H8.5V8H4.5V10H8.5V14ZM2.5 18C1.95 18 1.479 17.8043 1.087 17.413C0.695667 17.021 0.5 16.55 0.5 16V2C0.5 1.45 0.695667 0.979 1.087 0.587C1.479 0.195667 1.95 0 2.5 0H16.5C17.05 0 17.521 0.195667 17.913 0.587C18.3043 0.979 18.5 1.45 18.5 2V16C18.5 16.55 18.3043 17.021 17.913 17.413C17.521 17.8043 17.05 18 16.5 18H2.5ZM2.5 16H16.5V2H2.5V16Z" fill="currentColor"/>
    </symbol>
    <symbol id="forward" viewBox="0 0 11 11" fill="none" xmlns="http://www.w3.org/2000/svg">
      <path d="M1.33317 10.9998L0.166504 9.83317L8.1665 1.83317H0.999837V0.166504H10.9998V10.1665H9.33317V2.99984L1.33317 10.9998Z" fill="currentColor"/>
      </symbol>
      <symbol id="description" viewBox="0 0 16 20" fill="none" xmlns="http://www.w3.org/2000/svg">
        <path d="M5 16H11C11.2833 16 11.521 15.904 11.713 15.712C11.9043 15.5207 12 15.2833 12 15C12 14.7167 11.9043 14.4793 11.713 14.288C11.521 14.096 11.2833 14 11 14H5C4.71667 14 4.47933 14.096 4.288 14.288C4.096 14.4793 4 14.7167 4 15C4 15.2833 4.096 15.5207 4.288 15.712C4.47933 15.904 4.71667 16 5 16ZM5 12H11C11.2833 12 11.521 11.904 11.713 11.712C11.9043 11.5207 12 11.2833 12 11C12 10.7167 11.9043 10.479 11.713 10.287C11.521 10.0957 11.2833 10 11 10H5C4.71667 10 4.47933 10.0957 4.288 10.287C4.096 10.479 4 10.7167 4 11C4 11.2833 4.096 11.5207 4.288 11.712C4.47933 11.904 4.71667 12 5 12ZM2 20C1.45 20 0.979333 19.8043 0.588 19.413C0.196 19.021 0 18.55 0 18V2C0 1.45 0.196 0.979 0.588 0.587C0.979333 0.195667 1.45 0 2 0H9.175C9.44167 0 9.696 0.0500001 9.938 0.15C10.1793 0.25 10.3917 0.391667 10.575 0.575L15.425 5.425C15.6083 5.60833 15.75 5.82067 15.85 6.062C15.95 6.304 16 6.55833 16 6.825V18C16 18.55 15.8043 19.021 15.413 19.413C15.021 19.8043 14.55 20 14 20H2ZM9 6V2H2V18H14V7H10C9.71667 7 9.47933 6.904 9.288 6.712C9.096 6.52067 9 6.28333 9 6Z" fill="currentColor"/>
      </symbol>
      <symbol id="responsable" viewBox="0 0 16 20" fill="currentColor" xmlns="http://www.w3.org/2000/svg">
        <path d="M8 0C6.93913 0 5.92172 0.421427 5.17157 1.17157C4.42143 1.92172 4 2.93913 4 4C4 5.06087 4.42143 6.07828 5.17157 6.82843C5.92172 7.57857 6.93913 8 8 8C9.06087 8 10.0783 7.57857 10.8284 6.82843C11.5786 6.07828 12 5.06087 12 4C12 2.93913 11.5786 1.92172 10.8284 1.17157C10.0783 0.421427 9.06087 0 8 0ZM6 4C6 3.46957 6.21071 2.96086 6.58579 2.58579C6.96086 2.21071 7.46957 2 8 2C8.53043 2 9.03914 2.21071 9.41421 2.58579C9.78929 2.96086 10 3.46957 10 4C10 4.53043 9.78929 5.03914 9.41421 5.41421C9.03914 5.78929 8.53043 6 8 6C7.46957 6 6.96086 5.78929 6.58579 5.41421C6.21071 5.03914 6 4.53043 6 4ZM13 10H3C2.20435 10 1.44129 10.3161 0.87868 10.8787C0.316071 11.4413 0 12.2044 0 13C0 15.232 0.918 17.02 2.424 18.23C3.906 19.42 5.894 20 8 20C10.106 20 12.094 19.42 13.576 18.23C15.08 17.02 16 15.232 16 13C16 12.2044 15.6839 11.4413 15.1213 10.8787C14.5587 10.3161 13.7956 10 13 10ZM3 12H13C13.2652 12 13.5196 12.1054 13.7071 12.2929C13.8946 12.4804 14 12.7348 14 13C14 14.634 13.35 15.846 12.324 16.67C11.272 17.514 9.76 18 8 18C6.24 18 4.728 17.514 3.676 16.67C2.65 15.846 2 14.634 2 13C2 12.7348 2.10536 12.4804 2.29289 12.2929C2.48043 12.1054 2.73478 12 3 12Z" fill="#2B335B"/>
        </symbol>   
        
        <symbol id="membre" viewBox="0 0 18 18" fill="none" xmlns="http://www.w3.org/2000/svg">
          <path d="M3.75 0C2.75544 0 1.80161 0.395088 1.09835 1.09835C0.395088 1.80161 0 2.75544 0 3.75V11.25C0 11.7425 0.0969966 12.2301 0.285452 12.6851C0.473907 13.14 0.75013 13.5534 1.09835 13.9017C1.80161 14.6049 2.75544 15 3.75 15H11.25C11.7425 15 12.2301 14.903 12.6851 14.7145C13.14 14.5261 13.5534 14.2499 13.9017 13.9017C14.2499 13.5534 14.5261 13.14 14.7145 12.6851C14.903 12.2301 15 11.7425 15 11.25V3.75C15 3.25754 14.903 2.76991 14.7145 2.31494C14.5261 1.85997 14.2499 1.44657 13.9017 1.09835C13.5534 0.75013 13.14 0.473907 12.6851 0.285452C12.2301 0.0969966 11.7425 0 11.25 0H3.75ZM7.5 6.75C6.90326 6.75 6.33097 6.51295 5.90901 6.09099C5.48705 5.66903 5.25 5.09674 5.25 4.5C5.25 3.90326 5.48705 3.33097 5.90901 2.90901C6.33097 2.48705 6.90326 2.25 7.5 2.25C8.09674 2.25 8.66903 2.48705 9.09099 2.90901C9.51295 3.33097 9.75 3.90326 9.75 4.5C9.75 5.09674 9.51295 5.66903 9.09099 6.09099C8.66903 6.51295 8.09674 6.75 7.5 6.75ZM4.875 7.6875H10.125C11.0565 7.6875 11.8125 8.4435 11.8125 9.375V9.75C11.8125 10.35 11.556 11.079 10.8525 11.6445C10.1565 12.2025 9.0765 12.5625 7.497 12.5625C5.9145 12.5625 4.836 12.195 4.143 11.6325C3.444 11.0655 3.1875 10.3395 3.1875 9.75V9.375C3.1875 8.442 3.9435 7.6875 4.875 7.6875ZM3.75 16.5C4.434 17.4105 5.523 18 6.75 18H11.25C13.0402 18 14.7571 17.2888 16.023 16.023C17.2888 14.7571 18 13.0402 18 11.25V6.75C18 5.523 17.4105 4.434 16.5 3.75V11.25C16.5 12.6424 15.9469 13.9777 14.9623 14.9623C13.9777 15.9469 12.6424 16.5 11.25 16.5H3.75Z" fill="currentColor"/>
          </symbol>
</svg>