<svg>
  <symbol id="logout" viewBox="0 0 24 24" xmlns="http://www.w3.org/2000/svg">
    <g>
      <path fill="none" d="M0 0h24v24H0z" />
      <path fill="currentColor"
        d="M5 11h8v2H5v3l-5-4 5-4v3zm-1 7h2.708a8 8 0 1 0 0-12H4A9.985 9.985 0 0 1 12 2c5.523 0 10 4.477 10 10s-4.477 10-10 10a9.985 9.985 0 0 1-8-4z" />
    </g>
  </symbol>
  <symbol id="add" viewBox="0 0 12 12" fill="none" xmlns="http://www.w3.org/2000/svg">
    <path
      d="M5.16602 11.8333V6.83329H0.166016V5.16663H5.16602V0.166626H6.83268V5.16663H11.8327V6.83329H6.83268V11.8333H5.16602Z"
      fill="currentColor" />
  </symbol>
  <symbol id="leave-icon" viewBox="0 0 42 42" fill="none" xmlns="http://www.w3.org/2000/svg">
    <path
      d="M12.8835 0.65686C13.7509 1.57931 14.3224 2.69169 14.6506 3.89301C15.1836 5.84439 15.1495 8.03073 14.9703 10.2605C14.6114 14.7201 13.7173 19.4138 14.7606 22.3267C15.7399 25.0607 17.3102 26.6846 19.0523 27.4829C19.8017 27.8265 20.5906 28.0166 21.3886 28.0658C23.296 22.4726 22.8891 15.3346 19.7506 10.5102C23.9059 14.6553 25.8685 20.9145 24.6006 27.4749L23.8461 27.7782C24.0817 27.7079 24.3138 27.6264 24.5416 27.5339C28.1323 26.0841 31.0707 21.8403 29.8482 15.6182C29.2865 12.7595 27.3589 8.72906 24.1334 5.60652C21.3428 2.90533 17.617 0.861735 12.8835 0.657032L12.8835 0.65686ZM37.2869 16.4292C37.2148 17.4691 36.8884 18.4512 36.3795 19.3431C35.4897 20.902 34.1066 22.2441 32.6089 23.5191C29.6134 26.0688 26.1586 28.4309 25.0195 30.8425C23.9405 33.127 23.9122 35.0751 24.4879 36.6246C24.7337 37.2878 25.1017 37.899 25.5728 38.4266C30.1883 36.1246 34.3152 31.4734 35.3534 26.5646C35.3599 31.6904 32.7211 36.7643 27.9091 40.0487C30.9858 41.2987 35.324 40.4813 38.3694 35.9452C39.7803 33.8435 41.0814 30.1616 41.0173 26.245C40.9628 22.9203 39.9634 19.4362 37.287 16.4295L37.2869 16.4292ZM0.774345 22.7431C-0.0406 26.6857 0.835189 30.2052 2.45013 33.1119C4.35244 36.5357 7.32124 39.0739 9.59368 40.1883C14.4981 42.5935 18.6613 41.1308 20.7011 38.5099C14.8926 38.0716 10.0713 34.9974 7.5152 30.5553C10.8685 34.2874 16.7671 36.2521 21.9151 35.9371C22.0598 35.2449 22.0735 34.5317 21.9554 33.8344C21.6792 32.2046 20.6776 30.5304 18.6011 29.0917C16.4093 27.5732 12.2379 27.2561 8.36916 26.5458C6.43488 26.1909 4.56668 25.7216 3.01697 24.8164C2.12984 24.2982 1.35717 23.6081 0.774517 22.7431L0.774345 22.7431Z"
      fill="currentColor" />
  </symbol>
  <symbol id="mdi-account-outline" viewBox="0 0 24 24" fill="none"
    xmlns="http://www.w3.org/2000/svg">
    <path
      d="M12 4C13.0609 4 14.0783 4.42143 14.8284 5.17157C15.5786 5.92172 16 6.93913 16 8C16 9.06087 15.5786 10.0783 14.8284 10.8284C14.0783 11.5786 13.0609 12 12 12C10.9391 12 9.92172 11.5786 9.17157 10.8284C8.42143 10.0783 8 9.06087 8 8C8 6.93913 8.42143 5.92172 9.17157 5.17157C9.92172 4.42143 10.9391 4 12 4ZM12 6C11.4696 6 10.9609 6.21071 10.5858 6.58579C10.2107 6.96086 10 7.46957 10 8C10 8.53043 10.2107 9.03914 10.5858 9.41421C10.9609 9.78929 11.4696 10 12 10C12.5304 10 13.0391 9.78929 13.4142 9.41421C13.7893 9.03914 14 8.53043 14 8C14 7.46957 13.7893 6.96086 13.4142 6.58579C13.0391 6.21071 12.5304 6 12 6ZM12 13C14.67 13 20 14.33 20 17V20H4V17C4 14.33 9.33 13 12 13ZM12 14.9C9.03 14.9 5.9 16.36 5.9 17V18.1H18.1V17C18.1 16.36 14.97 14.9 12 14.9Z"
      fill="currentColor" />
  </symbol>
  <symbol id="notification" viewBox="0 0 24 24" xmlns="http://www.w3.org/2000/svg">
    <path
      d="M20.25 12V19.5C20.25 19.8978 20.092 20.2794 19.8107 20.5607C19.5294 20.842 19.1478 21 18.75 21H4.5C4.10218 21 3.72064 20.842 3.43934 20.5607C3.15804 20.2794 3 19.8978 3 19.5V5.25C3 4.85218 3.15804 4.47064 3.43934 4.18934C3.72064 3.90804 4.10218 3.75 4.5 3.75H12C12.1989 3.75 12.3897 3.82902 12.5303 3.96967C12.671 4.11032 12.75 4.30109 12.75 4.5C12.75 4.69891 12.671 4.88968 12.5303 5.03033C12.3897 5.17098 12.1989 5.25 12 5.25H4.5V19.5H18.75V12C18.75 11.8011 18.829 11.6103 18.9697 11.4697C19.1103 11.329 19.3011 11.25 19.5 11.25C19.6989 11.25 19.8897 11.329 20.0303 11.4697C20.171 11.6103 20.25 11.8011 20.25 12ZM21.75 5.625C21.75 6.29251 21.5521 6.94503 21.1812 7.50005C20.8104 8.05507 20.2833 8.48765 19.6666 8.74309C19.0499 8.99854 18.3713 9.06538 17.7166 8.93515C17.0619 8.80493 16.4605 8.48349 15.9885 8.01149C15.5165 7.53948 15.1951 6.93812 15.0648 6.28343C14.9346 5.62874 15.0015 4.95014 15.2569 4.33344C15.5124 3.71674 15.9449 3.18964 16.5 2.81879C17.055 2.44794 17.7075 2.25 18.375 2.25C19.2701 2.25 20.1285 2.60558 20.7615 3.23851C21.3944 3.87145 21.75 4.72989 21.75 5.625ZM20.25 5.625C20.25 5.25416 20.14 4.89165 19.934 4.58331C19.728 4.27496 19.4351 4.03464 19.0925 3.89273C18.7499 3.75081 18.3729 3.71368 18.0092 3.78603C17.6455 3.85837 17.3114 4.03695 17.0492 4.29917C16.787 4.5614 16.6084 4.89549 16.536 5.25921C16.4637 5.62292 16.5008 5.99992 16.6427 6.34253C16.7846 6.68514 17.025 6.97798 17.3333 7.18401C17.6416 7.39003 18.0042 7.5 18.375 7.5C18.8715 7.49754 19.347 7.2992 19.6981 6.9481C20.0492 6.597 20.2475 6.12152 20.25 5.625Z"
      fill="currentColor" />
  </symbol>
  <symbol viewBox="0 0 16 16" id="pen" xmlns="http://www.w3.org/2000/svg">
    <path
      d="M2.16667 13.8333H3.33333L10.5208 6.64579L9.35417 5.47913L2.16667 12.6666V13.8333ZM14.0833 5.43746L10.5417 1.93746L11.7083 0.770793C12.0278 0.451348 12.4203 0.291626 12.8858 0.291626C13.3514 0.291626 13.7436 0.451348 14.0625 0.770793L15.2292 1.93746C15.5486 2.2569 15.7153 2.64246 15.7292 3.09413C15.7431 3.54579 15.5903 3.93107 15.2708 4.24996L14.0833 5.43746ZM12.875 6.66663L4.04167 15.5H0.5V11.9583L9.33333 3.12496L12.875 6.66663ZM9.9375 6.06246L9.35417 5.47913L10.5208 6.64579L9.9375 6.06246Z"
      fill="currentColor" />
  </symbol>
  <symbol id="rocket-icon" viewBox="0 0 37 37" fill="none" xmlns="http://www.w3.org/2000/svg">
    <path
      d="M13.8477 7.64167C10.1077 11.84 7.54102 17.8717 7.30268 18.44L0.666016 15.5983L9.48435 6.78L13.8477 7.64167ZM17.4777 27.1667C17.4777 27.1667 24.3343 24.325 28.276 20.3833C38.176 10.4833 36.526 2.74667 35.9944 1.005C34.2527 0.455003 26.516 -1.17666 16.616 8.72334C12.6743 12.665 9.83268 19.5217 9.83268 19.5217L17.4777 27.1667ZM29.3577 23.1517C25.1593 26.8917 19.1277 29.4583 18.5593 29.6967L21.401 36.3333L30.2194 27.515L29.3577 23.1517ZM13.4993 29C13.4993 30.5217 12.876 31.8967 11.886 32.8867C9.72268 35.05 0.666016 36.3333 0.666016 36.3333C0.666016 36.3333 1.94935 27.2767 4.11268 25.1133C4.88048 24.3415 5.86031 23.8153 6.92776 23.6014C7.99522 23.3876 9.10215 23.4958 10.108 23.9123C11.1138 24.3288 11.9732 25.0347 12.5771 25.9406C13.1809 26.8465 13.5019 27.9113 13.4993 29ZM20.8327 12.5C20.8327 10.4833 22.4827 8.83334 24.4993 8.83334C26.516 8.83334 28.166 10.4833 28.166 12.5C28.166 14.5167 26.516 16.1667 24.4993 16.1667C22.4827 16.1667 20.8327 14.5167 20.8327 12.5Z"
      fill="currentColor" />
  </symbol>
  <symbol id="search" viewBox="0 0 18 18" fill="none" xmlns="http://www.w3.org/2000/svg">
    <path
      d="M16.5 16.5L11.5 11.5M13.1667 7.33333C13.1667 10.555 10.555 13.1667 7.33333 13.1667C4.11167 13.1667 1.5 10.555 1.5 7.33333C1.5 4.11167 4.11167 1.5 7.33333 1.5C10.555 1.5 13.1667 4.11167 13.1667 7.33333Z"
      stroke="currentColor" stroke-width="2" stroke-linecap="round" stroke-linejoin="round" />
  </symbol>
  <symbol id="sharp-arrow-drop-down" viewBox="0 0 10 5" fill="none"
    xmlns="http://www.w3.org/2000/svg">
    <path d="M0 0L5 5L10 0H0Z" fill="currentColor" />
  </symbol>
  <symbol id="trash" viewBox="0 0 12 16" fill="none" xmlns="http://www.w3.org/2000/svg">
    <path
      d="M0.999349 13.8333C0.999349 14.75 1.74935 15.5 2.66602 15.5H9.33268C10.2494 15.5 10.9994 14.75 10.9994 13.8333V3.83333H0.999349V13.8333ZM11.8327 1.33333H8.91602L8.08268 0.5H3.91602L3.08268 1.33333H0.166016V3H11.8327V1.33333Z"
      fill="currentColor" />
  </symbol>
  <symbol id="user-guard" viewBox="0 0 18 22" fill="none" xmlns="http://www.w3.org/2000/svg">
    <path
      d="M9 0L0 4V10C0 15.55 3.84 20.74 9 22C14.16 20.74 18 15.55 18 10V4L9 0ZM9 2.18L16 5.3V10.22C16 11.92 15.5 13.65 14.65 15.17C13 13.94 10.26 13.5 9 13.5C7.74 13.5 5 13.94 3.35 15.17C2.5 13.65 2 11.92 2 10.22V5.3L9 2.18ZM9 5C8.07174 5 7.1815 5.36875 6.52513 6.02513C5.86875 6.6815 5.5 7.57174 5.5 8.5C5.5 9.42826 5.86875 10.3185 6.52513 10.9749C7.1815 11.6313 8.07174 12 9 12C9.92826 12 10.8185 11.6313 11.4749 10.9749C12.1313 10.3185 12.5 9.42826 12.5 8.5C12.5 7.57174 12.1313 6.6815 11.4749 6.02513C10.8185 5.36875 9.92826 5 9 5ZM9 7C9.39782 7 9.77936 7.15804 10.0607 7.43934C10.342 7.72064 10.5 8.10218 10.5 8.5C10.5 8.89782 10.342 9.27936 10.0607 9.56066C9.77936 9.84196 9.39782 10 9 10C8.60218 10 8.22064 9.84196 7.93934 9.56066C7.65804 9.27936 7.5 8.89782 7.5 8.5C7.5 8.10218 7.65804 7.72064 7.93934 7.43934C8.22064 7.15804 8.60218 7 9 7ZM9 15.5C10.57 15.5 12.64 16.11 13.53 16.84C12.29 18.38 10.7 19.55 9 20C7.3 19.55 5.71 18.38 4.47 16.84C5.37 16.11 7.43 15.5 9 15.5Z"
      fill="currentColor" />
  </symbol>
  <symbol id="user-notification" viewBox="0 0 20 18" fill="none" xmlns="http://www.w3.org/2000/svg">
    <path
      d="M13.4 12C13.1 12 12.8 11.7 12.8 11.4C12.8 11.1 13.1 10.8 13.4 10.8C13.7 10.8 14 11.1 14 11.4C14 11.7 13.7 12 13.4 12ZM19.8 13.8L16.2 10.2C16 10.1 15.8 10 15.6 10H12.8C12.4 10 12 10.4 12 10.8V13.6C12 13.8 12.1 14 12.2 14.2L15.8 17.8C15.9 17.9 16.1 18 16.4 18C16.7 18 16.8 17.9 17 17.8L19.8 15C19.9 14.9 20 14.7 20 14.4C20 14.2 19.9 14 19.8 13.8ZM8 0C5.8 0 4 1.8 4 4C4 6.2 5.8 8 8 8C10.2 8 12 6.2 12 4C12 1.8 10.2 0 8 0ZM8 2C9.1 2 10 2.9 10 4C10 5.1 9.1 6 8 6C6.9 6 6 5.1 6 4C6 2.9 6.9 2 8 2ZM8 9C5.3 9 0 10.3 0 13V16H11.2L10.8 15.6C10.4 15.2 10.1 14.7 10 14.1H1.9V13C1.9 12.4 5 10.9 8 10.9C8.7 10.9 9.4 11 10 11.1V10.8C10 10.2 10.2 9.7 10.5 9.3C9.6 9.1 8.7 9 8 9Z"
      fill="currentColor" />
  </symbol>
  <svg id="user-setting-icon" viewBox="0 0 39 39" fill="none" xmlns="http://www.w3.org/2000/svg">
    <path
      d="M25.25 8.75C25.25 10.938 24.3808 13.0365 22.8336 14.5836C21.2865 16.1308 19.188 17 17 17C14.812 17 12.7135 16.1308 11.1664 14.5836C9.61919 13.0365 8.75 10.938 8.75 8.75C8.75 6.56196 9.61919 4.46354 11.1664 2.91637C12.7135 1.36919 14.812 0.5 17 0.5C19.188 0.5 21.2865 1.36919 22.8336 2.91637C24.3808 4.46354 25.25 6.56196 25.25 8.75ZM0.5 30.75C0.5 33.5 3.25 33.5 3.25 33.5H17.704C17.2365 32.175 16.9984 30.78 17 29.375C16.9982 27.6064 17.3764 25.858 18.1089 24.2482C18.8414 22.6383 19.9113 21.2047 21.246 20.0443C19.9618 19.8545 18.551 19.75 17 19.75C3.25 19.75 0.5 28 0.5 30.75ZM27.6865 21.015C28.1815 19.3293 30.5685 19.3293 31.0662 21.015L31.1845 21.422C31.2584 21.6745 31.3879 21.9072 31.5635 22.103C31.7391 22.2988 31.9564 22.4528 32.1994 22.5535C32.4424 22.6543 32.7049 22.6993 32.9675 22.6853C33.2302 22.6713 33.4864 22.5986 33.7173 22.4725L34.0913 22.269C35.634 21.4275 37.3225 23.116 36.4837 24.6587L36.2775 25.0327C36.1519 25.2635 36.0796 25.5194 36.0659 25.7818C36.0521 26.0441 36.0973 26.3062 36.198 26.5488C36.2988 26.7915 36.4525 27.0085 36.6481 27.1839C36.8436 27.3593 37.0759 27.4888 37.328 27.5627L37.7378 27.6865C39.4207 28.1815 39.4207 30.5685 37.7378 31.0662L37.3252 31.1845C37.0733 31.259 36.8412 31.3889 36.646 31.5649C36.4508 31.7408 36.2974 31.9581 36.1972 32.201C36.097 32.4439 36.0524 32.7062 36.0668 32.9686C36.0812 33.2309 36.1541 33.4868 36.2803 33.7173L36.4837 34.0913C37.3225 35.634 35.634 37.3225 34.0913 36.4837L33.7173 36.2775C33.4865 36.1519 33.2306 36.0796 32.9682 36.0659C32.7059 36.0521 32.4438 36.0973 32.2012 36.198C31.9585 36.2988 31.7415 36.4525 31.5661 36.6481C31.3907 36.8436 31.2612 37.0759 31.1873 37.328L31.0635 37.7378C30.5685 39.4207 28.1815 39.4207 27.6838 37.7378L27.5655 37.3252C27.491 37.0733 27.3611 36.8412 27.1851 36.646C27.0092 36.4508 26.7919 36.2974 26.549 36.1972C26.3061 36.097 26.0438 36.0524 25.7814 36.0668C25.5191 36.0812 25.2633 36.1541 25.0327 36.2803L24.6587 36.4837C23.116 37.3225 21.4275 35.634 22.2663 34.0913L22.4725 33.7173C22.5981 33.4865 22.6704 33.2306 22.6841 32.9682C22.6979 32.7059 22.6527 32.4438 22.552 32.2012C22.4512 31.9585 22.2975 31.7415 22.1019 31.5661C21.9064 31.3907 21.6741 31.2612 21.422 31.1873L21.015 31.0635C19.3293 30.5685 19.3293 28.1815 21.015 27.6838L21.422 27.5655C21.6745 27.4916 21.9072 27.3621 22.103 27.1865C22.2988 27.0109 22.4528 26.7936 22.5535 26.5506C22.6543 26.3076 22.6993 26.0451 22.6853 25.7825C22.6713 25.5198 22.5986 25.2636 22.4725 25.0327L22.269 24.6587C21.4275 23.116 23.116 21.4275 24.6587 22.2663L25.0327 22.4725C25.2635 22.5981 25.5194 22.6704 25.7818 22.6841C26.0441 22.6979 26.3062 22.6527 26.5488 22.552C26.7915 22.4512 27.0085 22.2975 27.1839 22.1019C27.3593 21.9064 27.4888 21.6741 27.5627 21.422L27.6865 21.015ZM33.5 29.375C33.5 28.8333 33.3933 28.2969 33.186 27.7964C32.9787 27.296 32.6749 26.8412 32.2918 26.4582C31.9088 26.0751 31.454 25.7713 30.9536 25.564C30.4531 25.3567 29.9167 25.25 29.375 25.25C28.8333 25.25 28.2969 25.3567 27.7964 25.564C27.296 25.7713 26.8412 26.0751 26.4582 26.4582C26.0751 26.8412 25.7713 27.296 25.564 27.7964C25.3567 28.2969 25.25 28.8333 25.25 29.375C25.25 30.469 25.6846 31.5182 26.4582 32.2918C27.2318 33.0654 28.281 33.5 29.375 33.5C30.469 33.5 31.5182 33.0654 32.2918 32.2918C33.0654 31.5182 33.5 30.469 33.5 29.375Z"
      fill="currentColor" />
  </svg>
  <symbol id="user-settings" viewBox="0 0 25 25" fill="none" xmlns="http://www.w3.org/2000/svg">
    <path
      d="M16.25 5.75C16.25 7.14239 15.6969 8.47774 14.7123 9.46231C13.7277 10.4469 12.3924 11 11 11C9.60761 11 8.27226 10.4469 7.28769 9.46231C6.30312 8.47774 5.75 7.14239 5.75 5.75C5.75 4.35761 6.30312 3.02226 7.28769 2.03769C8.27226 1.05312 9.60761 0.5 11 0.5C12.3924 0.5 13.7277 1.05312 14.7123 2.03769C15.6969 3.02226 16.25 4.35761 16.25 5.75ZM0.5 19.75C0.5 21.5 2.25 21.5 2.25 21.5H11.448C11.1505 20.6568 10.999 19.7691 11 18.875C10.9988 17.7495 11.2395 16.6369 11.7057 15.6125C12.1718 14.588 12.8526 13.6757 13.702 12.9373C12.8847 12.8165 11.987 12.75 11 12.75C2.25 12.75 0.5 18 0.5 19.75ZM17.8005 13.555C18.1155 12.4823 19.6345 12.4823 19.9513 13.555L20.0265 13.814C20.0735 13.9747 20.1559 14.1227 20.2677 14.2474C20.3795 14.372 20.5177 14.4699 20.6724 14.5341C20.827 14.5982 20.994 14.6269 21.1612 14.6179C21.3283 14.609 21.4913 14.5627 21.6383 14.4825L21.8763 14.353C22.858 13.8175 23.9325 14.892 23.3988 15.8737L23.2675 16.1117C23.1876 16.2586 23.1416 16.4215 23.1328 16.5884C23.1241 16.7554 23.1528 16.9221 23.2169 17.0765C23.281 17.2309 23.3789 17.369 23.5033 17.4807C23.6277 17.5923 23.7756 17.6747 23.936 17.7217L24.1968 17.8005C25.2677 18.1155 25.2677 19.6345 24.1968 19.9513L23.9342 20.0265C23.7739 20.0739 23.6262 20.1566 23.502 20.2685C23.3778 20.3805 23.2802 20.5188 23.2164 20.6734C23.1526 20.828 23.1243 20.9948 23.1334 21.1618C23.1426 21.3288 23.189 21.4916 23.2692 21.6383L23.3988 21.8763C23.9325 22.858 22.858 23.9325 21.8763 23.3988L21.6383 23.2675C21.4914 23.1876 21.3285 23.1416 21.1616 23.1328C20.9946 23.1241 20.8279 23.1528 20.6735 23.2169C20.5191 23.281 20.381 23.3789 20.2693 23.5033C20.1577 23.6277 20.0753 23.7756 20.0283 23.936L19.9495 24.1968C19.6345 25.2677 18.1155 25.2677 17.7987 24.1968L17.7235 23.9342C17.6761 23.7739 17.5934 23.6262 17.4815 23.502C17.3695 23.3778 17.2312 23.2802 17.0766 23.2164C16.922 23.1526 16.7552 23.1243 16.5882 23.1334C16.4212 23.1426 16.2584 23.189 16.1117 23.2692L15.8737 23.3988C14.892 23.9325 13.8175 22.858 14.3512 21.8763L14.4825 21.6383C14.5624 21.4914 14.6084 21.3285 14.6172 21.1616C14.6259 20.9946 14.5972 20.8279 14.5331 20.6735C14.469 20.5191 14.3711 20.381 14.2467 20.2693C14.1223 20.1577 13.9744 20.0753 13.814 20.0283L13.555 19.9495C12.4823 19.6345 12.4823 18.1155 13.555 17.7987L13.814 17.7235C13.9747 17.6765 14.1227 17.5941 14.2474 17.4823C14.372 17.3705 14.4699 17.2323 14.5341 17.0776C14.5982 16.923 14.6269 16.756 14.6179 16.5888C14.609 16.4217 14.5627 16.2587 14.4825 16.1117L14.353 15.8737C13.8175 14.892 14.892 13.8175 15.8737 14.3512L16.1117 14.4825C16.2586 14.5624 16.4215 14.6084 16.5884 14.6172C16.7554 14.6259 16.9221 14.5972 17.0765 14.5331C17.2309 14.469 17.369 14.3711 17.4807 14.2467C17.5923 14.1223 17.6747 13.9744 17.7217 13.814L17.8005 13.555ZM21.5 18.875C21.5 18.5303 21.4321 18.1889 21.3002 17.8705C21.1683 17.552 20.9749 17.2626 20.7312 17.0188C20.4874 16.7751 20.198 16.5817 19.8795 16.4498C19.5611 16.3179 19.2197 16.25 18.875 16.25C18.5303 16.25 18.1889 16.3179 17.8705 16.4498C17.552 16.5817 17.2626 16.7751 17.0188 17.0188C16.7751 17.2626 16.5817 17.552 16.4498 17.8705C16.3179 18.1889 16.25 18.5303 16.25 18.875C16.25 19.5712 16.5266 20.2389 17.0188 20.7312C17.5111 21.2234 18.1788 21.5 18.875 21.5C19.5712 21.5 20.2389 21.2234 20.7312 20.7312C21.2234 20.2389 21.5 19.5712 21.5 18.875Z"
      fill="currentColor" />
  </symbol>
  <symbol id="user" viewBox="0 0 16 16" fill="none" xmlns="http://www.w3.org/2000/svg">
    <path
      d="M8 0C9.06087 0 10.0783 0.421427 10.8284 1.17157C11.5786 1.92172 12 2.93913 12 4C12 5.06087 11.5786 6.07828 10.8284 6.82843C10.0783 7.57857 9.06087 8 8 8C6.93913 8 5.92172 7.57857 5.17157 6.82843C4.42143 6.07828 4 5.06087 4 4C4 2.93913 4.42143 1.92172 5.17157 1.17157C5.92172 0.421427 6.93913 0 8 0ZM8 2C7.46957 2 6.96086 2.21071 6.58579 2.58579C6.21071 2.96086 6 3.46957 6 4C6 4.53043 6.21071 5.03914 6.58579 5.41421C6.96086 5.78929 7.46957 6 8 6C8.53043 6 9.03914 5.78929 9.41421 5.41421C9.78929 5.03914 10 4.53043 10 4C10 3.46957 9.78929 2.96086 9.41421 2.58579C9.03914 2.21071 8.53043 2 8 2ZM8 9C10.67 9 16 10.33 16 13V16H0V13C0 10.33 5.33 9 8 9ZM8 10.9C5.03 10.9 1.9 12.36 1.9 13V14.1H14.1V13C14.1 12.36 10.97 10.9 8 10.9Z"
      fill="currentColor" />
  </symbol>
  <symbol id="x" viewBox="0 0 20 20" fill="none" xmlns="http://www.w3.org/2000/svg">
    <path
      d="M11.0664 10L19.1523 18.0977L18.0977 19.1523L10 11.0664L1.90234 19.1523L0.847656 18.0977L8.93359 10L0.847656 1.90234L1.90234 0.847656L10 8.93359L18.0977 0.847656L19.1523 1.90234L11.0664 10Z"
      fill="currentColor" />
  </symbol>
</svg>