<svg width="24" height="30" viewBox="0 0 24 30" fill="none" xmlns="http://www.w3.org/2000/svg">
<path d="M15 0H3C2.20435 0 1.44129 0.31607 0.87868 0.87868C0.31607 1.44129 0 2.20435 0 3V27C0 27.7956 0.31607 28.5587 0.87868 29.1213C1.44129 29.6839 2.20435 30 3 30H21C21.7956 30 22.5587 29.6839 23.1213 29.1213C23.6839 28.5587 24 27.7956 24 27V9L15 0ZM16.8 27H14.7L12 16.8L9.3 27H7.2L3.9 13.5H6.15L8.25 23.7L10.95 13.5H12.9L15.6 23.7L17.7 13.5H19.95L16.8 27ZM13.5 10.5V2.25L21.75 10.5H13.5Z" fill="#56AFF0"/>
</svg>
