<svg width="1280" height="1080" viewBox="0 0 1280 1080" fill="none" xmlns="http://www.w3.org/2000/svg">
<g clip-path="url(#clip0_2312_49)">
<path d="M-22 1C-22 1 55.5754 86.4925 247.239 71.2938C462.132 54.2497 554.497 152.986 501.254 220.431C448.012 287.876 211.529 302.128 244.592 411.364C277.655 520.6 -9.82676 570 -9.82676 570" stroke="#808080" stroke-miterlimit="10"/>
<path d="M-59 100C-59 100 107.515 135.706 273.199 122.888C438.882 110.071 458.258 167.694 438.884 190.637C398.676 238.244 183.757 247.4 169.84 324.304C159.38 382.114 164.339 480.801 -24.3002 522" stroke="#808080" stroke-miterlimit="10"/>
<path d="M-30.5726 148.106C-30.5726 148.106 197.02 136.719 156.393 187.025C109.826 244.687 0.440498 243.781 103.819 316.754C140.59 342.709 151.373 447.294 -51.25 426.213" stroke="#808080" stroke-miterlimit="10"/>
<path d="M311.093 198.261C357.537 198.261 395.187 186.786 395.187 172.631C395.187 158.475 357.537 147 311.093 147C264.65 147 227 158.475 227 172.631C227 186.786 264.65 198.261 311.093 198.261Z" stroke="#808080" stroke-miterlimit="10"/>
<path d="M1147.81 34.2625C1150.09 34.2625 1151.95 32.5292 1151.95 30.391C1151.95 28.2528 1150.09 26.5195 1147.81 26.5195C1145.52 26.5195 1143.67 28.2528 1143.67 30.391C1143.67 32.5292 1145.52 34.2625 1147.81 34.2625Z" fill="white"/>
<path d="M1096.76 34.2625C1099.05 34.2625 1100.9 32.5292 1100.9 30.391C1100.9 28.2528 1099.05 26.5195 1096.76 26.5195C1094.47 26.5195 1092.62 28.2528 1092.62 30.391C1092.62 32.5292 1094.47 34.2625 1096.76 34.2625Z" fill="white"/>
<path d="M1198.86 34.2625C1201.15 34.2625 1203 32.5292 1203 30.391C1203 28.2528 1201.15 26.5195 1198.86 26.5195C1196.57 26.5195 1194.72 28.2528 1194.72 30.391C1194.72 32.5292 1196.57 34.2625 1198.86 34.2625Z" fill="white"/>
<path d="M1096.76 76.1319C1099.05 76.1319 1100.9 74.3987 1100.9 72.2604C1100.9 70.1222 1099.05 68.3889 1096.76 68.3889C1094.47 68.3889 1092.62 70.1222 1092.62 72.2604C1092.62 74.3987 1094.47 76.1319 1096.76 76.1319Z" fill="white"/>
<path d="M1147.81 76.1319C1150.09 76.1319 1151.95 74.3987 1151.95 72.2604C1151.95 70.1222 1150.09 68.3889 1147.81 68.3889C1145.52 68.3889 1143.67 70.1222 1143.67 72.2604C1143.67 74.3987 1145.52 76.1319 1147.81 76.1319Z" fill="white"/>
<path d="M1049.85 114.128C1049.85 114.894 1049.6 115.643 1049.15 116.28C1048.69 116.916 1048.05 117.412 1047.29 117.705C1046.53 117.998 1045.7 118.075 1044.9 117.925C1044.1 117.776 1043.36 117.407 1042.78 116.866C1042.2 116.325 1041.81 115.635 1041.65 114.883C1041.49 114.132 1041.57 113.354 1041.88 112.646C1042.2 111.939 1042.73 111.335 1043.41 110.909C1044.09 110.484 1044.89 110.257 1045.71 110.257C1046.25 110.257 1046.79 110.356 1047.29 110.552C1047.79 110.746 1048.25 111.031 1048.63 111.39C1049.02 111.75 1049.32 112.177 1049.53 112.646C1049.74 113.117 1049.85 113.62 1049.85 114.128Z" fill="white"/>
<path d="M1045.51 34.2625C1047.79 34.2625 1049.65 32.5292 1049.65 30.391C1049.65 28.2528 1047.79 26.5195 1045.51 26.5195C1043.22 26.5195 1041.37 28.2528 1041.37 30.391C1041.37 32.5292 1043.22 34.2625 1045.51 34.2625Z" fill="white"/>
<path d="M1045.51 76.1319C1047.79 76.1319 1049.65 74.3987 1049.65 72.2604C1049.65 70.1222 1047.79 68.3889 1045.51 68.3889C1043.22 68.3889 1041.37 70.1222 1041.37 72.2604C1041.37 74.3987 1043.22 76.1319 1045.51 76.1319Z" fill="white"/>
<path d="M1198.66 76.1319C1200.95 76.1319 1202.8 74.3987 1202.8 72.2604C1202.8 70.1222 1200.95 68.3889 1198.66 68.3889C1196.37 68.3889 1194.52 70.1222 1194.52 72.2604C1194.52 74.3987 1196.37 76.1319 1198.66 76.1319Z" fill="white"/>
<path d="M1100.7 114.128C1100.7 114.894 1100.46 115.643 1100 116.28C1099.55 116.916 1098.9 117.412 1098.14 117.705C1097.39 117.998 1096.56 118.075 1095.75 117.925C1094.95 117.776 1094.21 117.407 1093.63 116.866C1093.05 116.325 1092.66 115.635 1092.5 114.883C1092.34 114.132 1092.42 113.354 1092.74 112.646C1093.05 111.939 1093.58 111.335 1094.26 110.909C1094.94 110.484 1095.74 110.257 1096.56 110.257C1097.66 110.257 1098.71 110.664 1099.49 111.39C1100.26 112.117 1100.7 113.102 1100.7 114.128Z" fill="white"/>
<path d="M1151.75 114.128C1151.75 114.894 1151.51 115.643 1151.05 116.28C1150.6 116.915 1149.95 117.412 1149.2 117.705C1148.44 117.998 1147.61 118.074 1146.8 117.925C1146 117.776 1145.26 117.408 1144.68 116.866C1144.11 116.325 1143.71 115.635 1143.55 114.885C1143.39 114.133 1143.47 113.355 1143.79 112.648C1144.1 111.94 1144.63 111.335 1145.31 110.91C1145.99 110.484 1146.79 110.257 1147.61 110.257C1148.71 110.257 1149.76 110.664 1150.54 111.39C1151.32 112.117 1151.75 113.102 1151.75 114.128Z" fill="white"/>
<path d="M1202.8 114.128C1202.8 114.894 1202.56 115.643 1202.11 116.28C1201.65 116.915 1201.01 117.412 1200.25 117.705C1199.49 117.998 1198.66 118.074 1197.86 117.925C1197.05 117.776 1196.32 117.408 1195.74 116.866C1195.16 116.325 1194.76 115.635 1194.6 114.885C1194.44 114.133 1194.53 113.355 1194.84 112.648C1195.15 111.94 1195.68 111.335 1196.36 110.91C1197.04 110.484 1197.84 110.257 1198.66 110.257C1199.76 110.257 1200.81 110.664 1201.59 111.39C1202.37 112.117 1202.8 113.102 1202.8 114.128Z" fill="white"/>
<path d="M871.596 375.533H866.25V389.441H871.596V375.533Z" fill="white"/>
<path d="M881.369 383.98V380.994H856.477V383.98H881.369Z" fill="white"/>
<path d="M427.706 133.546H422.36V147.455H427.706V133.546Z" fill="white"/>
<path d="M437.479 141.994V139.007H412.587V141.994H437.479Z" fill="white"/>
<path d="M1275.01 617.485C1275.01 617.485 956.284 575.64 860.001 751.395C790.909 877.511 785.02 946.27 641.709 980.946C498.399 1015.62 414.951 1023.03 406.392 1060.57" stroke="#808080" stroke-miterlimit="10"/>
<path d="M782.872 1060.57C782.872 1060.57 698.749 943.879 920.763 882.904C1070.63 841.744 1000.37 702.016 1097.5 657.536C1174.53 622.266 1275.01 698.424 1275.01 698.424" stroke="#808080" stroke-miterlimit="10"/>
<path d="M848.717 1092.11C848.717 1092.11 851.272 1001.84 1022.45 942.656C1193.63 883.475 1126.62 781.253 1225.06 765.711C1323.5 750.168 1421.92 817.12 1421.92 817.12" stroke="#808080" stroke-miterlimit="10"/>
<path d="M969.124 1062.85C969.124 1062.85 956.285 988.723 1086.81 979.159C1217.33 969.593 1328.59 1050.62 1328.59 1050.62" stroke="#808080" stroke-miterlimit="10"/>
<path d="M1177.74 1041.24L1152.2 1026.97C1151.64 1026.66 1150.73 1026.66 1150.17 1026.97L1124.63 1041.24C1124.07 1041.56 1124.07 1042.06 1124.63 1042.38L1150.17 1056.65C1150.73 1056.96 1151.64 1056.96 1152.2 1056.65L1177.74 1042.38C1178.3 1042.06 1178.3 1041.56 1177.74 1041.24Z" stroke="#E0363A" stroke-miterlimit="10"/>
<path d="M1162.47 1041.57L1151.61 1035.5C1151.38 1035.37 1150.99 1035.37 1150.75 1035.5L1139.9 1041.57C1139.66 1041.7 1139.66 1041.92 1139.9 1042.05L1150.75 1048.12C1150.99 1048.25 1151.38 1048.25 1151.61 1048.12L1162.47 1042.05C1162.71 1041.92 1162.71 1041.7 1162.47 1041.57Z" fill="white"/>
<path d="M227.495 998.11L216.641 992.04C216.403 991.906 216.017 991.906 215.779 992.04L204.926 998.11C204.688 998.243 204.688 998.453 204.926 998.586L215.779 1004.66C216.017 1004.79 216.403 1004.79 216.641 1004.66L227.495 998.586C227.733 998.453 227.733 998.243 227.495 998.11Z" fill="white"/>
<path d="M329.511 356.939C331.452 356.939 333.023 355.833 333.023 354.47C333.023 353.106 331.452 352 329.511 352C327.572 352 326 353.106 326 354.47C326 355.833 327.572 356.939 329.511 356.939Z" fill="white"/>
<path d="M329.672 424.52C331.634 424.52 333.222 423.271 333.222 421.73C333.222 420.19 331.634 418.94 329.672 418.94C327.712 418.94 326.123 420.19 326.123 421.73C326.123 423.271 327.712 424.52 329.672 424.52Z" fill="#E0363A"/>
<path d="M329.511 389.54C331.452 389.54 333.023 388.435 333.023 387.07C333.023 385.706 331.452 384.6 329.511 384.6C327.572 384.6 326 385.706 326 387.07C326 388.435 327.572 389.54 329.511 389.54Z" fill="white"/>
<path d="M329.672 458C331.634 458 333.222 456.752 333.222 455.21C333.222 453.669 331.634 452.42 329.672 452.42C327.712 452.42 326.123 453.669 326.123 455.21C326.123 456.752 327.712 458 329.672 458Z" fill="#E0363A"/>
<path d="M411.676 356.939C413.615 356.939 415.188 355.833 415.188 354.47C415.188 353.106 413.615 352 411.676 352C409.737 352 408.165 353.106 408.165 354.47C408.165 355.833 409.737 356.939 411.676 356.939Z" fill="#E0363A"/>
<path d="M414.859 424.52C416.819 424.52 418.408 423.271 418.408 421.73C418.408 420.19 416.819 418.94 414.859 418.94C412.899 418.94 411.309 420.19 411.309 421.73C411.309 423.271 412.899 424.52 414.859 424.52Z" fill="#E0363A"/>
<path d="M414.859 391.041C416.819 391.041 418.408 389.793 418.408 388.251C418.408 386.711 416.819 385.461 414.859 385.461C412.899 385.461 411.309 386.711 411.309 388.251C411.309 389.793 412.899 391.041 414.859 391.041Z" fill="#E0363A"/>
<path d="M414.859 458C416.819 458 418.408 456.752 418.408 455.21C418.408 453.669 416.819 452.42 414.859 452.42C412.899 452.42 411.309 453.669 411.309 455.21C411.309 456.752 412.899 458 414.859 458Z" fill="#E0363A"/>
<path d="M372.267 357.562C374.227 357.562 375.816 356.312 375.816 354.772C375.816 353.231 374.227 351.982 372.267 351.982C370.305 351.982 368.717 353.231 368.717 354.772C368.717 356.312 370.305 357.562 372.267 357.562Z" fill="white"/>
<path d="M372.267 424.52C374.227 424.52 375.816 423.271 375.816 421.73C375.816 420.19 374.227 418.94 372.267 418.94C370.305 418.94 368.717 420.19 368.717 421.73C368.717 423.271 370.305 424.52 372.267 424.52Z" fill="#E0363A"/>
<path d="M370.594 389.54C372.339 389.54 373.754 388.435 373.754 387.07C373.754 385.706 372.339 384.6 370.594 384.6C368.848 384.6 367.434 385.706 367.434 387.07C367.434 388.435 368.848 389.54 370.594 389.54Z" fill="white"/>
<path d="M372.267 458C374.227 458 375.816 456.752 375.816 455.21C375.816 453.669 374.227 452.42 372.267 452.42C370.305 452.42 368.717 453.669 368.717 455.21C368.717 456.752 370.305 458 372.267 458Z" fill="#E0363A"/>
<path d="M457.451 357.562C459.411 357.562 461 356.312 461 354.772C461 353.231 459.411 351.982 457.451 351.982C455.491 351.982 453.901 353.231 453.901 354.772C453.901 356.312 455.491 357.562 457.451 357.562Z" fill="#E0363A"/>
<path d="M457.451 424.52C459.411 424.52 461 423.271 461 421.73C461 420.19 459.411 418.94 457.451 418.94C455.491 418.94 453.901 420.19 453.901 421.73C453.901 423.271 455.491 424.52 457.451 424.52Z" fill="#E0363A"/>
<path d="M457.451 391.041C459.411 391.041 461 389.793 461 388.251C461 386.711 459.411 385.461 457.451 385.461C455.491 385.461 453.901 386.711 453.901 388.251C453.901 389.793 455.491 391.041 457.451 391.041Z" fill="#E0363A"/>
<path d="M457.451 458C459.411 458 461 456.752 461 455.21C461 453.669 459.411 452.42 457.451 452.42C455.491 452.42 453.901 453.669 453.901 455.21C453.901 456.752 455.491 458 457.451 458Z" fill="#E0363A"/>
</g>
<defs>
<clipPath id="clip0_2312_49">
<rect width="1280" height="1080" fill="white"/>
</clipPath>
</defs>
</svg>
