<svg width="64" height="81" viewBox="0 0 64 81" fill="none" xmlns="http://www.w3.org/2000/svg">
<g clip-path="url(#clip0_2_270)">
<path d="M60.6171 47.284L34.417 64.741L31.017 67.01C31.7612 66.3028 32.3537 65.4513 32.7581 64.5076C33.1624 63.5639 33.3703 62.5477 33.369 61.521V35.906C33.3685 33.323 32.3419 30.8459 30.5151 29.0197C28.6884 27.1935 26.2111 26.1677 23.6281 26.168C21.799 26.165 20.0065 26.681 18.459 27.656C18.3 27.756 18.143 27.856 17.994 27.965L17.972 27.983L13.89 30.708V7.57701C13.8922 6.35657 13.5984 5.15377 13.0339 4.0717C12.4695 2.98963 11.6512 2.06054 10.649 1.364L34.285 17.111L31.6851 18.846L25.512 22.971L19.892 26.721C21.4409 25.7467 23.2341 25.2311 25.064 25.234C26.6525 25.2326 28.2173 25.6204 29.6213 26.3636C31.0254 27.1067 32.226 28.1825 33.118 29.497C33.154 29.551 33.191 29.606 33.223 29.657L33.274 29.73C33.9616 30.7134 34.8218 31.5638 35.813 32.24C37.4399 33.3548 39.3668 33.9497 41.339 33.946C43.2851 33.9459 45.1875 33.3678 46.8046 32.285C48.4217 31.2022 49.6807 29.6634 50.422 27.864L60.615 34.655C61.6555 35.3472 62.5089 36.2858 63.0992 37.3874C63.6896 38.4889 63.9986 39.7192 63.9988 40.969C63.999 42.2187 63.6903 43.4491 63.1003 44.5508C62.5104 45.6525 61.6574 46.5914 60.6171 47.284Z" fill="#024E6C"/>
<path d="M29.7791 66.875L11.5911 78.995C12.5926 78.2971 13.4104 77.3674 13.9747 76.285C14.5391 75.2026 14.8332 73.9997 14.832 72.779V36.369C14.919 36.427 15.003 36.485 15.087 36.547C15.8197 37.0702 16.4757 37.6933 17.036 38.398C17.9378 39.5229 18.5759 40.8358 18.9031 42.24C19.0741 42.9683 19.1606 43.7139 19.161 44.462V59.936C19.1605 60.9309 19.356 61.9161 19.7363 62.8353C20.1167 63.7546 20.6744 64.5899 21.3777 65.2935C22.081 65.9971 22.916 66.5553 23.8351 66.9361C24.7541 67.317 25.7392 67.513 26.734 67.513C27.7823 67.5145 28.8195 67.2972 29.7791 66.875Z" fill="#024E6C"/>
<path d="M50.917 27.448C50.1757 29.2475 48.9167 30.7862 47.2996 31.869C45.6825 32.9518 43.7801 33.5299 41.834 33.53C39.8618 33.5335 37.9349 32.9387 36.308 31.824C35.3171 31.1475 34.4569 30.2971 33.769 29.314L33.719 29.241L33.614 29.081C32.7219 27.7666 31.5213 26.6908 30.1173 25.9477C28.7133 25.2045 27.1486 24.8167 25.5601 24.818C23.7301 24.8153 21.9368 25.3312 20.3881 26.306L26.0081 22.556L32.181 18.431L34.781 16.696L34.915 16.784L50.917 27.448Z" fill="#253846"/>
<path d="M15.15 30.708L4.25599 37.99L4.26307 38.001C2.94813 38.8907 1.87163 40.0897 1.12818 41.4926C0.384731 42.8954 -0.00298552 44.4593 -0.000968735 46.047V7.57703C-0.000251989 7.19093 0.0301135 6.80544 0.0899737 6.42401C0.104974 6.29701 0.130037 6.17698 0.155037 6.05298C0.180037 5.92898 0.209021 5.80604 0.239021 5.68604C0.301021 5.44304 0.377039 5.20602 0.457039 4.97302C0.504039 4.85702 0.548077 4.74001 0.596077 4.62701C0.644077 4.51401 0.696003 4.40199 0.745003 4.29199C0.794003 4.18199 0.853995 4.07302 0.911995 3.96802C0.969995 3.86302 1.02106 3.77502 1.07606 3.68402L1.11304 3.62201C1.15852 3.54303 1.20819 3.46658 1.26197 3.39301L1.313 3.31702C1.34967 3.25903 1.38974 3.20328 1.43299 3.15002C1.48399 3.07702 1.533 3.00803 1.589 2.93903C2.25944 2.06784 3.11265 1.3542 4.08863 0.848328C5.06461 0.342454 6.1397 0.0566031 7.23804 0.0109863C7.35104 0.00398633 7.46001 0 7.57301 0H7.60902C7.72902 0 7.84907 -1.36718e-05 7.96607 0.0109863C8.06007 0.0109863 8.15103 0.02202 8.24903 0.03302C8.29603 0.03302 8.344 0.0400063 8.391 0.0440063H8.40601C8.64201 0.0730063 8.87509 0.105982 9.10609 0.156982C9.33709 0.207982 9.57804 0.266022 9.80604 0.335022C9.87904 0.357022 9.94803 0.381992 10.025 0.403992C10.102 0.425992 10.181 0.458028 10.262 0.491028C10.6188 0.623546 10.9641 0.785444 11.2941 0.975037C11.5081 1.09144 11.7145 1.22135 11.912 1.36401C12.9142 2.06055 13.7325 2.98965 14.297 4.07172C14.8615 5.15378 15.1552 6.35658 15.1531 7.57703L15.15 30.708Z" fill="#FAAE1D"/>
<path d="M15.15 36.372V72.78C15.1515 74.0009 14.8575 75.204 14.2931 76.2866C13.7287 77.3692 12.9108 78.2991 11.9091 78.997L11.8771 79.019C11.7711 79.092 11.659 79.169 11.546 79.233C11.459 79.284 11.379 79.333 11.291 79.382C10.9611 79.5726 10.6159 79.7355 10.259 79.869L10.073 79.934C9.87301 80.003 9.67303 80.065 9.47303 80.116C9.35003 80.149 9.22906 80.178 9.10206 80.203C8.87606 80.25 8.64299 80.283 8.40199 80.312C8.12527 80.3411 7.84721 80.3554 7.56898 80.355C7.45598 80.355 7.34702 80.355 7.23402 80.344C6.19754 80.3003 5.18124 80.0428 4.24903 79.5877C3.31683 79.1325 2.48886 78.4894 1.81702 77.699C1.73702 77.608 1.66099 77.51 1.58399 77.415C1.49955 77.3127 1.4208 77.2059 1.34803 77.095C1.30313 77.0368 1.2617 76.976 1.22401 76.913C0.909794 76.4332 0.651138 75.9192 0.453011 75.381C0.373011 75.148 0.296993 74.912 0.234993 74.668C0.148941 74.3316 0.0858309 73.9899 0.0460283 73.645C0.0380283 73.551 0.0270274 73.453 0.0200274 73.358C0.0130274 73.263 0.00608302 73.183 0.00208302 73.099C0.00208302 72.99 -0.00597362 72.881 -0.00597362 72.775V44.461C-0.0079904 42.8733 0.379726 41.3094 1.12318 39.9066C1.86663 38.5037 2.94312 37.3048 4.25806 36.415C5.87051 35.3119 7.77938 34.7234 9.73304 34.727C9.85604 34.727 9.98306 34.727 10.1071 34.734C10.2311 34.741 10.355 34.745 10.478 34.753C10.578 34.764 10.6781 34.771 10.7781 34.785C10.9021 34.796 11.0181 34.807 11.1381 34.825L11.2581 34.847H11.283C11.383 34.858 11.469 34.876 11.557 34.894H11.564C11.659 34.912 11.753 34.93 11.844 34.956C11.9077 34.9656 11.9708 34.9789 12.033 34.996C12.109 35.018 12.186 35.032 12.262 35.054L12.578 35.145L12.709 35.188L12.8001 35.214C12.8881 35.247 12.982 35.276 13.069 35.314L13.157 35.343C13.244 35.376 13.3351 35.412 13.4191 35.448C13.4428 35.455 13.4656 35.4647 13.4871 35.477C13.5721 35.51 13.648 35.543 13.728 35.583C13.7811 35.6012 13.8322 35.6243 13.881 35.652C13.981 35.696 14.081 35.743 14.173 35.794C14.265 35.845 14.3331 35.878 14.4091 35.918L14.489 35.962C14.579 36.017 14.6771 36.071 14.7691 36.129L14.7941 36.14C14.8571 36.18 14.922 36.22 14.983 36.264L15.132 36.355L15.15 36.372Z" fill="#B72B2D"/>
<path d="M34.6289 34.845V60.46C34.63 61.4869 34.4218 62.5032 34.0171 63.4469C33.6124 64.3906 33.0196 65.242 32.2749 65.949C31.6401 66.5565 30.9027 67.0467 30.0969 67.397C29.1378 67.8197 28.1011 68.0377 27.053 68.037C26.0581 68.0372 25.0729 67.8412 24.1537 67.4604C23.2345 67.0797 22.3993 66.5215 21.6959 65.8179C20.9925 65.1142 20.4347 64.2789 20.0543 63.3595C19.6739 62.4402 19.4785 61.4549 19.479 60.46V44.986C19.4784 44.2379 19.3918 43.4924 19.2209 42.764C18.8939 41.3603 18.2563 40.0478 17.355 38.923C16.7943 38.218 16.1379 37.5947 15.4049 37.071C15.3219 37.009 15.238 36.951 15.151 36.893L15.14 36.882L14.991 36.791C14.929 36.748 14.865 36.708 14.802 36.668L14.776 36.657C14.685 36.599 14.588 36.544 14.496 36.489L14.416 36.446C14.339 36.406 14.2629 36.362 14.1799 36.322C14.0969 36.282 13.9869 36.222 13.8889 36.18C13.8402 36.1523 13.789 36.1292 13.736 36.111C13.656 36.071 13.58 36.038 13.496 36.005C13.4742 35.9926 13.4511 35.9829 13.427 35.976C13.343 35.94 13.2519 35.904 13.1649 35.871L13.08 35.845C12.993 35.809 12.8979 35.78 12.8109 35.745L12.72 35.72L12.589 35.676L12.272 35.586C12.196 35.564 12.119 35.549 12.043 35.527C11.9805 35.51 11.917 35.4967 11.8529 35.487C11.7619 35.462 11.668 35.444 11.573 35.425H11.5659C11.4789 35.407 11.388 35.389 11.293 35.378H11.267L11.147 35.357C11.027 35.339 10.912 35.328 10.787 35.317C10.687 35.302 10.5869 35.295 10.4869 35.284C10.3639 35.277 10.236 35.27 10.116 35.266C9.99597 35.262 9.86497 35.259 9.74097 35.259C7.78763 35.2555 5.87908 35.844 4.26697 36.947L4.25891 36.936L15.153 29.653L19.234 26.928L19.256 26.91L19.7219 26.601C21.2694 25.6259 23.0619 25.11 24.891 25.113C27.4725 25.1135 29.9481 26.1388 31.774 27.9637C33.6 29.7885 34.6268 32.2635 34.6289 34.845Z" fill="#E0363A"/>
<path d="M51.636 23.761C51.6388 25.0435 51.389 26.314 50.901 27.5C50.1597 29.2994 48.9006 30.8382 47.2834 31.921C45.6663 33.0038 43.7641 33.5819 41.818 33.582C39.8458 33.5856 37.9189 32.9908 36.292 31.876C35.301 31.1996 34.4407 30.3492 33.7529 29.366L33.703 29.294L33.5979 29.134C32.7058 27.8196 31.5052 26.7438 30.1012 26.0007C28.6972 25.2575 27.1325 24.8697 25.5439 24.871C23.714 24.8682 21.9207 25.3841 20.3719 26.359L25.9919 22.609L32.1649 18.484L34.7649 16.749L35.481 16.269L36.241 15.756L36.267 15.741L36.7279 15.432C38.1708 14.5265 39.8258 14.0149 41.528 13.948H41.6189C41.6949 13.948 41.7759 13.948 41.8519 13.948C44.449 13.9572 46.9366 14.995 48.7703 16.8342C50.6039 18.6733 51.6344 21.1639 51.636 23.761Z" fill="#FAAE1D"/>
</g>
<defs>
<clipPath id="clip0_2_270">
<rect width="64" height="80.356" fill="white"/>
</clipPath>
</defs>
</svg>
