<svg width="39" height="39" viewBox="0 0 39 39" fill="none" xmlns="http://www.w3.org/2000/svg">
<path d="M25.25 8.75C25.25 10.938 24.3808 13.0365 22.8336 14.5836C21.2865 16.1308 19.188 17 17 17C14.812 17 12.7135 16.1308 11.1664 14.5836C9.61919 13.0365 8.75 10.938 8.75 8.75C8.75 6.56196 9.61919 4.46354 11.1664 2.91637C12.7135 1.36919 14.812 0.5 17 0.5C19.188 0.5 21.2865 1.36919 22.8336 2.91637C24.3808 4.46354 25.25 6.56196 25.25 8.75ZM0.5 30.75C0.5 33.5 3.25 33.5 3.25 33.5H17.704C17.2365 32.175 16.9984 30.78 17 29.375C16.9982 27.6064 17.3764 25.858 18.1089 24.2482C18.8414 22.6383 19.9113 21.2047 21.246 20.0443C19.9618 19.8545 18.551 19.75 17 19.75C3.25 19.75 0.5 28 0.5 30.75ZM27.6865 21.015C28.1815 19.3293 30.5685 19.3293 31.0662 21.015L31.1845 21.422C31.2584 21.6745 31.3879 21.9072 31.5635 22.103C31.7391 22.2988 31.9564 22.4528 32.1994 22.5535C32.4424 22.6543 32.7049 22.6993 32.9675 22.6853C33.2302 22.6713 33.4864 22.5986 33.7173 22.4725L34.0913 22.269C35.634 21.4275 37.3225 23.116 36.4837 24.6587L36.2775 25.0327C36.1519 25.2635 36.0796 25.5194 36.0659 25.7818C36.0521 26.0441 36.0973 26.3062 36.198 26.5488C36.2988 26.7915 36.4525 27.0085 36.6481 27.1839C36.8436 27.3593 37.0759 27.4888 37.328 27.5627L37.7378 27.6865C39.4207 28.1815 39.4207 30.5685 37.7378 31.0662L37.3252 31.1845C37.0733 31.259 36.8412 31.3889 36.646 31.5649C36.4508 31.7408 36.2974 31.9581 36.1972 32.201C36.097 32.4439 36.0524 32.7062 36.0668 32.9686C36.0812 33.2309 36.1541 33.4868 36.2803 33.7173L36.4837 34.0913C37.3225 35.634 35.634 37.3225 34.0913 36.4837L33.7173 36.2775C33.4865 36.1519 33.2306 36.0796 32.9682 36.0659C32.7059 36.0521 32.4438 36.0973 32.2012 36.198C31.9585 36.2988 31.7415 36.4525 31.5661 36.6481C31.3907 36.8436 31.2612 37.0759 31.1873 37.328L31.0635 37.7378C30.5685 39.4207 28.1815 39.4207 27.6838 37.7378L27.5655 37.3252C27.491 37.0733 27.3611 36.8412 27.1851 36.646C27.0092 36.4508 26.7919 36.2974 26.549 36.1972C26.3061 36.097 26.0438 36.0524 25.7814 36.0668C25.5191 36.0812 25.2633 36.1541 25.0327 36.2803L24.6587 36.4837C23.116 37.3225 21.4275 35.634 22.2663 34.0913L22.4725 33.7173C22.5981 33.4865 22.6704 33.2306 22.6841 32.9682C22.6979 32.7059 22.6527 32.4438 22.552 32.2012C22.4512 31.9585 22.2975 31.7415 22.1019 31.5661C21.9064 31.3907 21.6741 31.2612 21.422 31.1873L21.015 31.0635C19.3293 30.5685 19.3293 28.1815 21.015 27.6838L21.422 27.5655C21.6745 27.4916 21.9072 27.3621 22.103 27.1865C22.2988 27.0109 22.4528 26.7936 22.5535 26.5506C22.6543 26.3076 22.6993 26.0451 22.6853 25.7825C22.6713 25.5198 22.5986 25.2636 22.4725 25.0327L22.269 24.6587C21.4275 23.116 23.116 21.4275 24.6587 22.2663L25.0327 22.4725C25.2635 22.5981 25.5194 22.6704 25.7818 22.6841C26.0441 22.6979 26.3062 22.6527 26.5488 22.552C26.7915 22.4512 27.0085 22.2975 27.1839 22.1019C27.3593 21.9064 27.4888 21.6741 27.5627 21.422L27.6865 21.015ZM33.5 29.375C33.5 28.8333 33.3933 28.2969 33.186 27.7964C32.9787 27.296 32.6749 26.8412 32.2918 26.4582C31.9088 26.0751 31.454 25.7713 30.9536 25.564C30.4531 25.3567 29.9167 25.25 29.375 25.25C28.8333 25.25 28.2969 25.3567 27.7964 25.564C27.296 25.7713 26.8412 26.0751 26.4582 26.4582C26.0751 26.8412 25.7713 27.296 25.564 27.7964C25.3567 28.2969 25.25 28.8333 25.25 29.375C25.25 30.469 25.6846 31.5182 26.4582 32.2918C27.2318 33.0654 28.281 33.5 29.375 33.5C30.469 33.5 31.5182 33.0654 32.2918 32.2918C33.0654 31.5182 33.5 30.469 33.5 29.375Z" fill="#12103B"/>
</svg>
