<svg width="1024" height="1080" viewBox="0 0 1024 1080" fill="none" xmlns="http://www.w3.org/2000/svg">
<g clip-path="url(#clip0_2319_51)">
<mask id="mask0_2319_51" style="mask-type:luminance" maskUnits="userSpaceOnUse" x="0" y="0" width="1024" height="1080">
<path d="M1024 0H0V1080H1024V0Z" fill="white"/>
</mask>
<g mask="url(#mask0_2319_51)">
<path d="M-17 72C-17 72 79.2368 130.501 202.5 118C340.702 103.981 353.758 197.008 319.517 252.481C285.275 307.954 133.188 319.677 154.451 409.523C175.715 499.369 -9.17113 540 -9.17113 540" stroke="#808080" stroke-miterlimit="10"/>
<path d="M-47 133C-47 133 65.3319 165.914 177.102 154.098C288.873 142.283 301.944 195.4 288.874 216.549C261.75 260.433 116.764 268.873 107.376 339.764C100.32 393.053 124.757 445.023 -2.5 483" stroke="#808080" stroke-miterlimit="10"/>
<path d="M-28.5448 193.925C-28.5448 193.925 108.546 184.396 84.0742 226.496C56.0244 274.752 -9.86404 273.994 52.4066 335.063C74.5555 356.785 81.0512 444.31 -41 426.667" stroke="#808080" stroke-miterlimit="10"/>
<path d="M200.5 225C229.495 225 253 213.582 253 199.5C253 185.416 229.495 174 200.5 174C171.505 174 148 185.416 148 199.5C148 213.582 171.505 225 200.5 225Z" stroke="#808080" stroke-miterlimit="10"/>
<path d="M954.014 35.295C955.671 35.295 957.015 33.997 957.015 32.3959C957.015 30.7948 955.671 29.4968 954.014 29.4968C952.356 29.4968 951.012 30.7948 951.012 32.3959C951.012 33.997 952.356 35.295 954.014 35.295Z" fill="white"/>
<path d="M917.008 35.295C918.666 35.295 920.009 33.997 920.009 32.3959C920.009 30.7948 918.666 29.4968 917.008 29.4968C915.35 29.4968 914.006 30.7948 914.006 32.3959C914.006 33.997 915.35 35.295 917.008 35.295Z" fill="white"/>
<path d="M991.02 35.295C992.678 35.295 994.021 33.997 994.021 32.3959C994.021 30.7948 992.678 29.4968 991.02 29.4968C989.362 29.4968 988.019 30.7948 988.019 32.3959C988.019 33.997 989.362 35.295 991.02 35.295Z" fill="white"/>
<path d="M917.008 66.648C918.666 66.648 920.009 65.3501 920.009 63.7488C920.009 62.1477 918.666 60.8497 917.008 60.8497C915.35 60.8497 914.006 62.1477 914.006 63.7488C914.006 65.3501 915.35 66.648 917.008 66.648Z" fill="white"/>
<path d="M954.014 66.648C955.671 66.648 957.015 65.3501 957.015 63.7488C957.015 62.1477 955.671 60.8497 954.014 60.8497C952.356 60.8497 951.012 62.1477 951.012 63.7488C951.012 65.3501 952.356 66.648 954.014 66.648Z" fill="white"/>
<path d="M883.003 95.1006C883.003 95.6738 882.827 96.2347 882.496 96.7116C882.167 97.1885 881.697 97.5596 881.149 97.7787C880.601 97.9988 879.997 98.0563 879.416 97.944C878.834 97.8326 878.298 97.5559 877.879 97.1508C877.459 96.7456 877.173 96.2291 877.058 95.6662C876.941 95.1034 877.002 94.5207 877.228 93.991C877.456 93.4612 877.84 93.0089 878.333 92.6897C878.827 92.3714 879.407 92.2014 880.002 92.2014C880.396 92.2014 880.785 92.276 881.149 92.4224C881.514 92.5678 881.845 92.7813 882.123 93.0504C882.402 93.3196 882.623 93.6396 882.774 93.991C882.924 94.3432 883.003 94.72 883.003 95.1006Z" fill="white"/>
<path d="M882.155 32.3177C883.811 32.3177 885.155 31.0197 885.155 29.4186C885.155 27.8175 883.811 26.5195 882.155 26.5195C880.496 26.5195 879.153 27.8175 879.153 29.4186C879.153 31.0197 880.496 32.3177 882.155 32.3177Z" fill="white"/>
<path d="M882.155 63.6708C883.811 63.6708 885.155 62.3729 885.155 60.7716C885.155 59.1705 883.811 57.8725 882.155 57.8725C880.496 57.8725 879.153 59.1705 879.153 60.7716C879.153 62.3729 880.496 63.6708 882.155 63.6708Z" fill="white"/>
<path d="M993.173 63.6708C994.831 63.6708 996.174 62.3729 996.174 60.7716C996.174 59.1705 994.831 57.8725 993.173 57.8725C991.515 57.8725 990.171 59.1705 990.171 60.7716C990.171 62.3729 991.515 63.6708 993.173 63.6708Z" fill="white"/>
<path d="M922.162 92.1233C922.162 92.6965 921.986 93.2574 921.656 93.7343C921.326 94.2112 920.858 94.5823 920.309 94.8014C919.761 95.0215 919.157 95.079 918.575 94.9667C917.993 94.8553 917.457 94.5786 917.038 94.1735C916.619 93.7683 916.332 93.2518 916.217 92.6889C916.102 92.1261 916.16 91.5434 916.388 91.0137C916.615 90.4839 917 90.0316 917.492 89.7124C917.986 89.3941 918.567 89.2241 919.161 89.2241C919.956 89.2241 920.72 89.5292 921.283 90.0731C921.846 90.6171 922.162 91.3546 922.162 92.1233Z" fill="white"/>
<path d="M959.168 92.1233C959.168 92.6965 958.993 93.2574 958.663 93.7343C958.333 94.2103 957.865 94.5823 957.316 94.8014C956.768 95.0215 956.164 95.0781 955.582 94.9667C954.999 94.8553 954.465 94.5795 954.045 94.1735C953.626 93.7683 953.34 93.2518 953.224 92.6899C953.108 92.1271 953.167 91.5444 953.394 91.0147C953.621 90.4848 954.006 90.0316 954.499 89.7133C954.993 89.3941 955.572 89.2241 956.167 89.2241C956.963 89.2241 957.726 89.5292 958.289 90.0731C958.852 90.6171 959.168 91.3546 959.168 92.1233Z" fill="white"/>
<path d="M996.176 92.1233C996.176 92.6965 996 93.2574 995.67 93.7343C995.34 94.2103 994.872 94.5823 994.323 94.8014C993.775 95.0215 993.172 95.0781 992.589 94.9667C992.008 94.8553 991.473 94.5795 991.053 94.1735C990.633 93.7683 990.348 93.2518 990.231 92.6899C990.115 92.1271 990.174 91.5444 990.401 91.0147C990.629 90.4848 991.013 90.0316 991.507 89.7133C992 89.3941 992.58 89.2241 993.174 89.2241C993.97 89.2241 994.733 89.5292 995.296 90.0731C995.859 90.6171 996.176 91.3546 996.176 92.1233Z" fill="white"/>
<path d="M697.277 375.533H693V389.441H697.277V375.533Z" fill="white"/>
<path d="M705.095 383.98V380.994H685.182V383.98H705.095Z" fill="white"/>
<path d="M342.164 133.546H337.888V147.455H342.164V133.546Z" fill="white"/>
<path d="M349.983 141.994V139.007H330.07V141.994H349.983Z" fill="white"/>
<path d="M1017.5 652C1017.5 652 777.312 616.057 708.809 786.533C659.652 908.861 661 961 553.5 998.768C449 1021.08 392.168 1039.59 386.079 1076" stroke="#808080" stroke-miterlimit="10"/>
<path d="M635.347 1080C635.347 1080 568.913 976.145 744.242 921.877C862.597 885.244 807.106 760.886 883.817 721.298C944.648 689.908 1024 757.689 1024 757.689" stroke="#808080" stroke-miterlimit="10"/>
<path d="M664 1096C664 1096 665.778 1013.9 784.934 960.067C904.09 906.239 857.451 813.265 925.971 799.129C994.495 784.992 1063 845.887 1063 845.887" stroke="#808080" stroke-miterlimit="10"/>
<path d="M809.246 1080C809.246 1080 800.147 1006.29 892.647 996.781C985.148 987.268 1064 1067.84 1064 1067.84" stroke="#808080" stroke-miterlimit="10"/>
<path d="M942.191 1041.24L921.758 1026.97C921.31 1026.66 920.585 1026.66 920.138 1026.97L899.703 1041.24C899.256 1041.56 899.256 1042.06 899.703 1042.38L920.138 1056.65C920.585 1056.96 921.31 1056.96 921.758 1056.65L942.191 1042.38C942.64 1042.06 942.64 1041.56 942.191 1041.24Z" stroke="#E0363A" stroke-miterlimit="10"/>
<path d="M929.975 1041.57L921.292 1035.5C921.102 1035.37 920.793 1035.37 920.602 1035.5L911.92 1041.57C911.73 1041.7 911.73 1041.92 911.92 1042.05L920.602 1048.12C920.793 1048.25 921.102 1048.25 921.292 1048.12L929.975 1042.05C930.166 1041.92 930.166 1041.7 929.975 1041.57Z" fill="white"/>
<path d="M181.996 998.11L173.313 992.04C173.123 991.906 172.814 991.906 172.623 992.04L163.941 998.11C163.75 998.243 163.75 998.453 163.941 998.586L172.623 1004.66C172.814 1004.79 173.123 1004.79 173.313 1004.66L181.996 998.586C182.187 998.453 182.187 998.243 181.996 998.11Z" fill="white"/>
<path d="M262.542 366.088C264.311 366.088 265.743 364.944 265.743 363.535C265.743 362.125 264.311 360.982 262.542 360.982C260.774 360.982 259.34 362.125 259.34 363.535C259.34 364.944 260.774 366.088 262.542 366.088Z" fill="white"/>
<path d="M262.542 427.362C264.311 427.362 265.743 426.22 265.743 424.809C265.743 423.4 264.311 422.256 262.542 422.256C260.774 422.256 259.34 423.4 259.34 424.809C259.34 426.22 260.774 427.362 262.542 427.362Z" fill="#E0363A"/>
<path d="M262.542 396.726C264.311 396.726 265.743 395.584 265.743 394.173C265.743 392.762 264.311 391.62 262.542 391.62C260.774 391.62 259.34 392.762 259.34 394.173C259.34 395.584 260.774 396.726 262.542 396.726Z" fill="white"/>
<path d="M262.542 458C264.311 458 265.743 456.858 265.743 455.447C265.743 454.038 264.311 452.894 262.542 452.894C260.774 452.894 259.34 454.038 259.34 455.447C259.34 456.858 260.774 458 262.542 458Z" fill="#E0363A"/>
<path d="M339.38 366.088C341.148 366.088 342.582 364.944 342.582 363.535C342.582 362.125 341.148 360.982 339.38 360.982C337.612 360.982 336.179 362.125 336.179 363.535C336.179 364.944 337.612 366.088 339.38 366.088Z" fill="#E0363A"/>
<path d="M339.38 427.362C341.148 427.362 342.582 426.22 342.582 424.809C342.582 423.4 341.148 422.256 339.38 422.256C337.612 422.256 336.179 423.4 336.179 424.809C336.179 426.22 337.612 427.362 339.38 427.362Z" fill="#E0363A"/>
<path d="M339.38 396.726C341.148 396.726 342.582 395.584 342.582 394.173C342.582 392.762 341.148 391.62 339.38 391.62C337.612 391.62 336.179 392.762 336.179 394.173C336.179 395.584 337.612 396.726 339.38 396.726Z" fill="#E0363A"/>
<path d="M339.38 458C341.148 458 342.582 456.858 342.582 455.447C342.582 454.038 341.148 452.894 339.38 452.894C337.612 452.894 336.179 454.038 336.179 455.447C336.179 456.858 337.612 458 339.38 458Z" fill="#E0363A"/>
<path d="M300.962 366.088C302.73 366.088 304.164 364.944 304.164 363.535C304.164 362.125 302.73 360.982 300.962 360.982C299.193 360.982 297.76 362.125 297.76 363.535C297.76 364.944 299.193 366.088 300.962 366.088Z" fill="white"/>
<path d="M300.962 427.362C302.73 427.362 304.164 426.22 304.164 424.809C304.164 423.4 302.73 422.256 300.962 422.256C299.193 422.256 297.76 423.4 297.76 424.809C297.76 426.22 299.193 427.362 300.962 427.362Z" fill="#E0363A"/>
<path d="M300.962 396.726C302.73 396.726 304.164 395.584 304.164 394.173C304.164 392.762 302.73 391.62 300.962 391.62C299.193 391.62 297.76 392.762 297.76 394.173C297.76 395.584 299.193 396.726 300.962 396.726Z" fill="white"/>
<path d="M300.962 458C302.73 458 304.164 456.858 304.164 455.447C304.164 454.038 302.73 452.894 300.962 452.894C299.193 452.894 297.76 454.038 297.76 455.447C297.76 456.858 299.193 458 300.962 458Z" fill="#E0363A"/>
<path d="M377.799 366.088C379.566 366.088 381 364.944 381 363.535C381 362.125 379.566 360.982 377.799 360.982C376.031 360.982 374.597 362.125 374.597 363.535C374.597 364.944 376.031 366.088 377.799 366.088Z" fill="#E0363A"/>
<path d="M377.799 427.362C379.566 427.362 381 426.22 381 424.809C381 423.4 379.566 422.256 377.799 422.256C376.031 422.256 374.597 423.4 374.597 424.809C374.597 426.22 376.031 427.362 377.799 427.362Z" fill="#E0363A"/>
<path d="M377.799 396.726C379.566 396.726 381 395.584 381 394.173C381 392.762 379.566 391.62 377.799 391.62C376.031 391.62 374.597 392.762 374.597 394.173C374.597 395.584 376.031 396.726 377.799 396.726Z" fill="#E0363A"/>
<path d="M377.799 458C379.566 458 381 456.858 381 455.447C381 454.038 379.566 452.894 377.799 452.894C376.031 452.894 374.597 454.038 374.597 455.447C374.597 456.858 376.031 458 377.799 458Z" fill="#E0363A"/>
</g>
</g>
<defs>
<clipPath id="clip0_2319_51">
<rect width="1024" height="1080" fill="white"/>
</clipPath>
</defs>
</svg>
