<svg width="1280" height="1080" viewBox="0 0 1280 1080" fill="none" xmlns="http://www.w3.org/2000/svg">
<g clip-path="url(#clip0_2312_49)">
<path d="M-22 1C-22 1 37.263 86.4925 183.682 71.2938C347.848 54.2497 418.409 152.986 377.735 220.431C337.061 287.876 156.402 302.128 181.66 411.364C206.919 520.6 -12.7004 570 -12.7004 570" stroke="#808080" stroke-miterlimit="10"/>
<path d="M-59 100C-59 100 73.8158 135.706 205.968 122.888C338.12 110.071 353.574 167.694 338.122 190.637C306.051 238.244 134.627 247.4 123.527 324.304C115.184 382.114 119.14 480.801 -31.3228 522" stroke="#808080" stroke-miterlimit="10"/>
<path d="M-76.3226 148.106C-76.3226 148.106 151.27 136.719 110.643 187.025C64.0756 244.687 -45.3095 243.781 58.0694 316.754C94.8399 342.709 105.623 447.294 -97 426.213" stroke="#808080" stroke-miterlimit="10"/>
<path d="M220.5 198C262.75 198 297 186.583 297 172.5C297 158.416 262.75 147 220.5 147C178.25 147 144 158.416 144 172.5C144 186.583 178.25 198 220.5 198Z" stroke="#808080" stroke-miterlimit="10"/>
<path d="M1209.81 37.4318C1211.51 37.4318 1212.9 35.6606 1212.9 33.4756C1212.9 31.2907 1211.51 29.5195 1209.81 29.5195C1208.1 29.5195 1206.72 31.2907 1206.72 33.4756C1206.72 35.6606 1208.1 37.4318 1209.81 37.4318Z" fill="white"/>
<path d="M1171.71 37.4318C1173.41 37.4318 1174.8 35.6606 1174.8 33.4756C1174.8 31.2907 1173.41 29.5195 1171.71 29.5195C1170 29.5195 1168.62 31.2907 1168.62 33.4756C1168.62 35.6606 1170 37.4318 1171.71 37.4318Z" fill="white"/>
<path d="M1247.91 37.4318C1249.62 37.4318 1251 35.6606 1251 33.4756C1251 31.2907 1249.62 29.5195 1247.91 29.5195C1246.2 29.5195 1244.82 31.2907 1244.82 33.4756C1244.82 35.6606 1246.2 37.4318 1247.91 37.4318Z" fill="white"/>
<path d="M1171.71 80.2166C1173.41 80.2166 1174.8 78.4455 1174.8 76.2604C1174.8 74.0755 1173.41 72.3043 1171.71 72.3043C1170 72.3043 1168.62 74.0755 1168.62 76.2604C1168.62 78.4455 1170 80.2166 1171.71 80.2166Z" fill="white"/>
<path d="M1209.81 80.2166C1211.51 80.2166 1212.9 78.4455 1212.9 76.2604C1212.9 74.0755 1211.51 72.3043 1209.81 72.3043C1208.1 72.3043 1206.72 74.0755 1206.72 76.2604C1206.72 78.4455 1208.1 80.2166 1209.81 80.2166Z" fill="white"/>
<path d="M1136.7 119.043C1136.7 119.826 1136.52 120.591 1136.18 121.242C1135.84 121.893 1135.35 122.399 1134.79 122.698C1134.22 122.998 1133.6 123.077 1133 122.924C1132.4 122.772 1131.85 122.394 1131.42 121.841C1130.99 121.288 1130.69 120.583 1130.58 119.815C1130.46 119.047 1130.52 118.252 1130.75 117.529C1130.99 116.806 1131.38 116.189 1131.89 115.754C1132.4 115.319 1132.99 115.087 1133.61 115.087C1134.01 115.087 1134.41 115.189 1134.79 115.389C1135.16 115.587 1135.5 115.879 1135.79 116.246C1136.08 116.613 1136.31 117.05 1136.46 117.529C1136.62 118.01 1136.7 118.524 1136.7 119.043Z" fill="white"/>
<path d="M1133.46 37.4318C1135.16 37.4318 1136.55 35.6606 1136.55 33.4756C1136.55 31.2907 1135.16 29.5195 1133.46 29.5195C1131.75 29.5195 1130.37 31.2907 1130.37 33.4756C1130.37 35.6606 1131.75 37.4318 1133.46 37.4318Z" fill="white"/>
<path d="M1133.46 80.2166C1135.16 80.2166 1136.55 78.4455 1136.55 76.2604C1136.55 74.0755 1135.16 72.3043 1133.46 72.3043C1131.75 72.3043 1130.37 74.0755 1130.37 76.2604C1130.37 78.4455 1131.75 80.2166 1133.46 80.2166Z" fill="white"/>
<path d="M1247.76 80.2166C1249.47 80.2166 1250.85 78.4455 1250.85 76.2604C1250.85 74.0755 1249.47 72.3043 1247.76 72.3043C1246.06 72.3043 1244.67 74.0755 1244.67 76.2604C1244.67 78.4455 1246.06 80.2166 1247.76 80.2166Z" fill="white"/>
<path d="M1174.65 119.043C1174.65 119.826 1174.47 120.591 1174.13 121.242C1173.79 121.893 1173.31 122.399 1172.74 122.698C1172.18 122.998 1171.56 123.077 1170.96 122.924C1170.36 122.772 1169.81 122.394 1169.37 121.841C1168.94 121.288 1168.65 120.583 1168.53 119.815C1168.41 119.047 1168.47 118.252 1168.71 117.529C1168.94 116.806 1169.34 116.189 1169.84 115.754C1170.35 115.319 1170.95 115.087 1171.56 115.087C1172.38 115.087 1173.17 115.504 1173.75 116.246C1174.32 116.988 1174.65 117.994 1174.65 119.043Z" fill="white"/>
<path d="M1212.75 119.043C1212.75 119.826 1212.57 120.591 1212.23 121.242C1211.89 121.891 1211.41 122.399 1210.84 122.698C1210.28 122.998 1209.66 123.076 1209.06 122.924C1208.46 122.772 1207.91 122.395 1207.48 121.841C1207.05 121.288 1206.75 120.583 1206.63 119.817C1206.51 119.049 1206.57 118.254 1206.81 117.531C1207.04 116.808 1207.44 116.189 1207.94 115.755C1208.45 115.319 1209.05 115.087 1209.66 115.087C1210.48 115.087 1211.27 115.504 1211.85 116.246C1212.43 116.988 1212.75 117.994 1212.75 119.043Z" fill="white"/>
<path d="M1250.85 119.043C1250.85 119.826 1250.67 120.591 1250.33 121.242C1249.99 121.891 1249.51 122.399 1248.95 122.698C1248.38 122.998 1247.76 123.076 1247.16 122.924C1246.56 122.772 1246.01 122.395 1245.58 121.841C1245.15 121.288 1244.85 120.583 1244.73 119.817C1244.61 119.049 1244.68 118.254 1244.91 117.531C1245.14 116.808 1245.54 116.189 1246.05 115.755C1246.55 115.319 1247.15 115.087 1247.76 115.087C1248.58 115.087 1249.37 115.504 1249.95 116.246C1250.53 116.988 1250.85 117.994 1250.85 119.043Z" fill="white"/>
<path d="M871.596 375.533H866.25V389.441H871.596V375.533Z" fill="white"/>
<path d="M881.369 383.98V380.994H856.477V383.98H881.369Z" fill="white"/>
<path d="M427.706 133.546H422.36V147.455H427.706V133.546Z" fill="white"/>
<path d="M437.479 141.994V139.007H412.587V141.994H437.479Z" fill="white"/>
<path d="M1280 626.709C1280 626.709 1033.42 581.454 958.933 771.53C905.48 907.924 900.924 982.286 790.052 1019.79C679.181 1057.29 614.622 1065.3 608 1105.9" stroke="#808080" stroke-miterlimit="10"/>
<path d="M711.091 1263C711.091 1263 608.373 1105.21 879.459 1022.75C1062.45 967.097 976.656 778.152 1095.26 718.006C1189.32 670.313 1312 773.295 1312 773.295" stroke="#808080" stroke-miterlimit="10"/>
<path d="M875.094 1114.57C875.094 1114.57 835.121 1078.69 971 1015.5C1106.88 952.311 1069.86 788.095 1148 771.5C1226.14 754.905 1330.09 820.962 1330.09 820.962" stroke="#808080" stroke-miterlimit="10"/>
<path d="M987 1167.5C987 1167.5 1010.65 953.509 1153.15 1000.08C1255.65 1033.58 1324.81 1094.06 1324.81 1094.06" stroke="#808080" stroke-miterlimit="10"/>
<path d="M1163.53 896.507L1137.99 882.235C1137.43 881.922 1136.52 881.922 1135.96 882.235L1110.42 896.507C1109.86 896.819 1109.86 897.326 1110.42 897.638L1135.96 911.911C1136.52 912.224 1137.43 912.224 1137.99 911.911L1163.53 897.638C1164.09 897.326 1164.09 896.819 1163.53 896.507Z" stroke="#E0363A" stroke-miterlimit="10"/>
<path d="M1148.75 897.164L1137.89 891.099C1137.66 890.967 1137.27 890.967 1137.03 891.099L1126.18 897.164C1125.94 897.298 1125.94 897.513 1126.18 897.646L1137.03 903.711C1137.27 903.844 1137.66 903.844 1137.89 903.711L1148.75 897.646C1148.99 897.513 1148.99 897.298 1148.75 897.164Z" fill="white"/>
<path d="M227.495 998.11L216.641 992.04C216.403 991.906 216.017 991.906 215.779 992.04L204.926 998.11C204.688 998.243 204.688 998.453 204.926 998.586L215.779 1004.66C216.017 1004.79 216.403 1004.79 216.641 1004.66L227.495 998.586C227.733 998.453 227.733 998.243 227.495 998.11Z" fill="white"/>
<path d="M241.939 332.723C243.563 332.723 244.878 331.669 244.878 330.37C244.878 329.071 243.563 328.017 241.939 328.017C240.316 328.017 239 329.071 239 330.37C239 331.669 240.316 332.723 241.939 332.723Z" fill="white"/>
<path d="M242.074 397.105C243.716 397.105 245.045 395.915 245.045 394.447C245.045 392.979 243.716 391.789 242.074 391.789C240.433 391.789 239.103 392.979 239.103 394.447C239.103 395.915 240.433 397.105 242.074 397.105Z" fill="#E0363A"/>
<path d="M241.939 363.78C243.563 363.78 244.878 362.727 244.878 361.427C244.878 360.128 243.563 359.075 241.939 359.075C240.316 359.075 239 360.128 239 361.427C239 362.727 240.316 363.78 241.939 363.78Z" fill="white"/>
<path d="M242.074 429C243.716 429 245.045 427.811 245.045 426.342C245.045 424.874 243.716 423.684 242.074 423.684C240.433 423.684 239.103 424.874 239.103 426.342C239.103 427.811 240.433 429 242.074 429Z" fill="#E0363A"/>
<path d="M310.714 332.723C312.337 332.723 313.653 331.669 313.653 330.37C313.653 329.071 312.337 328.017 310.714 328.017C309.091 328.017 307.775 329.071 307.775 330.37C307.775 331.669 309.091 332.723 310.714 332.723Z" fill="#E0363A"/>
<path d="M313.378 397.105C315.019 397.105 316.349 395.915 316.349 394.447C316.349 392.979 315.019 391.789 313.378 391.789C311.737 391.789 310.407 392.979 310.407 394.447C310.407 395.915 311.737 397.105 313.378 397.105Z" fill="#E0363A"/>
<path d="M313.378 365.211C315.019 365.211 316.349 364.022 316.349 362.553C316.349 361.085 315.019 359.895 313.378 359.895C311.737 359.895 310.407 361.085 310.407 362.553C310.407 364.022 311.737 365.211 313.378 365.211Z" fill="#E0363A"/>
<path d="M313.378 429C315.019 429 316.349 427.811 316.349 426.342C316.349 424.874 315.019 423.684 313.378 423.684C311.737 423.684 310.407 424.874 310.407 426.342C310.407 427.811 311.737 429 313.378 429Z" fill="#E0363A"/>
<path d="M277.727 333.316C279.368 333.316 280.698 332.126 280.698 330.658C280.698 329.19 279.368 328 277.727 328C276.085 328 274.756 329.19 274.756 330.658C274.756 332.126 276.085 333.316 277.727 333.316Z" fill="white"/>
<path d="M277.727 397.105C279.368 397.105 280.698 395.915 280.698 394.447C280.698 392.979 279.368 391.789 277.727 391.789C276.085 391.789 274.756 392.979 274.756 394.447C274.756 395.915 276.085 397.105 277.727 397.105Z" fill="#E0363A"/>
<path d="M276.327 363.78C277.787 363.78 278.972 362.727 278.972 361.427C278.972 360.128 277.787 359.075 276.327 359.075C274.865 359.075 273.682 360.128 273.682 361.427C273.682 362.727 274.865 363.78 276.327 363.78Z" fill="white"/>
<path d="M277.727 429C279.368 429 280.698 427.811 280.698 426.342C280.698 424.874 279.368 423.684 277.727 423.684C276.085 423.684 274.756 424.874 274.756 426.342C274.756 427.811 276.085 429 277.727 429Z" fill="#E0363A"/>
<path d="M349.029 333.316C350.67 333.316 352 332.126 352 330.658C352 329.19 350.67 328 349.029 328C347.388 328 346.058 329.19 346.058 330.658C346.058 332.126 347.388 333.316 349.029 333.316Z" fill="#E0363A"/>
<path d="M349.029 397.105C350.67 397.105 352 395.915 352 394.447C352 392.979 350.67 391.789 349.029 391.789C347.388 391.789 346.058 392.979 346.058 394.447C346.058 395.915 347.388 397.105 349.029 397.105Z" fill="#E0363A"/>
<path d="M349.029 365.211C350.67 365.211 352 364.022 352 362.553C352 361.085 350.67 359.895 349.029 359.895C347.388 359.895 346.058 361.085 346.058 362.553C346.058 364.022 347.388 365.211 349.029 365.211Z" fill="#E0363A"/>
<path d="M349.029 429C350.67 429 352 427.811 352 426.342C352 424.874 350.67 423.684 349.029 423.684C347.388 423.684 346.058 424.874 346.058 426.342C346.058 427.811 347.388 429 349.029 429Z" fill="#E0363A"/>
</g>
<defs>
<clipPath id="clip0_2312_49">
<rect width="1280" height="1080" fill="white"/>
</clipPath>
</defs>
</svg>
