<svg width="1024" height="1080" viewBox="0 0 1024 1080" fill="none" xmlns="http://www.w3.org/2000/svg">
<g clip-path="url(#clip0_2312_49)">
<path d="M-17.2686 1.28003C-17.2686 1.28003 52.0455 86.7152 223.298 71.5267C415.306 54.4941 497.835 153.164 450.262 220.564C402.69 287.963 191.391 302.206 220.933 411.369C250.475 520.531 -6.39176 569.898 -6.39176 569.898" stroke="#808080" stroke-miterlimit="10"/>
<path d="M-47 100C-47 100 99.3618 135.706 244.992 122.888C390.623 110.071 407.653 167.694 390.624 190.637C355.283 238.244 166.375 247.4 154.143 324.304C144.949 382.114 149.308 480.801 -16.5 522" stroke="#808080" stroke-miterlimit="10"/>
<path d="M-24.458 148.106C-24.458 148.106 157.616 136.719 125.114 187.025C87.8604 244.687 0.352398 243.781 83.0555 316.754C112.472 342.709 121.099 447.294 -41 426.213" stroke="#808080" stroke-miterlimit="10"/>
<path d="M269.795 208.224C306.95 208.224 337.07 196.748 337.07 182.593C337.07 168.437 306.95 156.963 269.795 156.963C232.64 156.963 202.52 168.437 202.52 182.593C202.52 196.748 232.64 208.224 269.795 208.224Z" stroke="#808080" stroke-miterlimit="10"/>
<path d="M937.42 35.3619C939.729 35.3619 941.602 34.054 941.602 32.4407C941.602 30.8274 939.729 29.5195 937.42 29.5195C935.109 29.5195 933.237 30.8274 933.237 32.4407C933.237 34.054 935.109 35.3619 937.42 35.3619Z" fill="white"/>
<path d="M885.849 35.3619C888.159 35.3619 890.031 34.054 890.031 32.4407C890.031 30.8274 888.159 29.5195 885.849 29.5195C883.539 29.5195 881.666 30.8274 881.666 32.4407C881.666 34.054 883.539 35.3619 885.849 35.3619Z" fill="white"/>
<path d="M988.991 35.3619C991.301 35.3619 993.173 34.054 993.173 32.4407C993.173 30.8274 991.301 29.5195 988.991 29.5195C986.68 29.5195 984.808 30.8274 984.808 32.4407C984.808 34.054 986.68 35.3619 988.991 35.3619Z" fill="white"/>
<path d="M885.849 66.9542C888.159 66.9542 890.031 65.6464 890.031 64.0329C890.031 62.4196 888.159 61.1117 885.849 61.1117C883.539 61.1117 881.666 62.4196 881.666 64.0329C881.666 65.6464 883.539 66.9542 885.849 66.9542Z" fill="white"/>
<path d="M937.42 66.9542C939.729 66.9542 941.602 65.6464 941.602 64.0329C941.602 62.4196 939.729 61.1117 937.42 61.1117C935.109 61.1117 933.237 62.4196 933.237 64.0329C933.237 65.6464 935.109 66.9542 937.42 66.9542Z" fill="white"/>
<path d="M838.46 95.6239C838.46 96.2015 838.215 96.7667 837.754 97.2472C837.295 97.7277 836.641 98.1017 835.877 98.3224C835.113 98.5442 834.272 98.6022 833.462 98.489C832.65 98.3767 831.904 98.0979 831.32 97.6897C830.735 97.2815 830.336 96.761 830.176 96.1938C830.013 95.6267 830.097 95.0396 830.413 94.5058C830.73 93.972 831.265 93.5162 831.953 93.1946C832.641 92.8739 833.449 92.7026 834.278 92.7026C834.827 92.7026 835.37 92.7778 835.877 92.9253C836.385 93.0718 836.846 93.2869 837.234 93.5581C837.623 93.8293 837.931 94.1518 838.141 94.5058C838.351 94.8607 838.46 95.2404 838.46 95.6239Z" fill="white"/>
<path d="M837.278 32.3619C839.587 32.3619 841.46 31.054 841.46 29.4407C841.46 27.8274 839.587 26.5195 837.278 26.5195C834.967 26.5195 833.095 27.8274 833.095 29.4407C833.095 31.054 834.967 32.3619 837.278 32.3619Z" fill="white"/>
<path d="M837.278 63.9542C839.587 63.9542 841.46 62.6464 841.46 61.0329C841.46 59.4196 839.587 58.1117 837.278 58.1117C834.967 58.1117 833.095 59.4196 833.095 61.0329C833.095 62.6464 834.967 63.9542 837.278 63.9542Z" fill="white"/>
<path d="M991.991 63.9542C994.301 63.9542 996.173 62.6464 996.173 61.0329C996.173 59.4196 994.301 58.1117 991.991 58.1117C989.68 58.1117 987.808 59.4196 987.808 61.0329C987.808 62.6464 989.68 63.9542 991.991 63.9542Z" fill="white"/>
<path d="M893.031 92.6239C893.031 93.2015 892.786 93.7667 892.327 94.2472C891.866 94.7277 891.214 95.1017 890.449 95.3224C889.685 95.5442 888.844 95.6022 888.033 95.489C887.222 95.3767 886.475 95.0979 885.891 94.6897C885.307 94.2815 884.907 93.761 884.747 93.1938C884.586 92.6267 884.668 92.0396 884.985 91.5058C885.301 90.972 885.838 90.5162 886.524 90.1946C887.212 89.8739 888.022 89.7026 888.849 89.7026C889.958 89.7026 891.022 90.01 891.806 90.5581C892.591 91.1062 893.031 91.8493 893.031 92.6239Z" fill="white"/>
<path d="M944.603 92.6239C944.603 93.2015 944.358 93.7667 943.898 94.2472C943.439 94.7268 942.786 95.1017 942.022 95.3224C941.258 95.5442 940.416 95.6012 939.605 95.489C938.793 95.3767 938.049 95.0988 937.463 94.6897C936.879 94.2815 936.48 93.761 936.319 93.1948C936.157 92.6277 936.24 92.0406 936.556 91.5068C936.872 90.9729 937.409 90.5162 938.096 90.1955C938.784 89.8739 939.591 89.7026 940.42 89.7026C941.529 89.7026 942.593 90.01 943.377 90.5581C944.162 91.1062 944.602 91.8493 944.603 92.6239Z" fill="white"/>
<path d="M996.176 92.6239C996.176 93.2015 995.931 93.7667 995.471 94.2472C995.011 94.7268 994.358 95.1017 993.594 95.3224C992.83 95.5442 991.989 95.6012 991.177 95.489C990.367 95.3767 989.622 95.0988 989.036 94.6897C988.451 94.2815 988.054 93.761 987.891 93.1948C987.729 92.6277 987.812 92.0406 988.128 91.5068C988.446 90.9729 988.981 90.5162 989.669 90.1955C990.356 89.8739 991.165 89.7026 991.992 89.7026C993.101 89.7026 994.165 90.01 994.95 90.5581C995.734 91.1062 996.176 91.8493 996.176 92.6239Z" fill="white"/>
<path d="M697.277 375.533H693V389.441H697.277V375.533Z" fill="white"/>
<path d="M705.095 383.98V380.994H685.182V383.98H705.095Z" fill="white"/>
<path d="M342.164 133.546H337.888V147.455H342.164V133.546Z" fill="white"/>
<path d="M349.983 141.994V139.007H330.07V141.994H349.983Z" fill="white"/>
<path d="M1020.01 617.485C1020.01 617.485 765.027 575.64 688.001 751.395C632.727 877.511 628.016 946.27 513.367 980.946C398.719 1015.62 331.961 1023.03 325.114 1060.57" stroke="#808080" stroke-miterlimit="10"/>
<path d="M626.298 1060.57C626.298 1060.57 558.999 943.879 736.61 882.904C856.506 841.744 800.292 702.016 878.002 657.536C939.625 622.266 1020.01 698.424 1020.01 698.424" stroke="#808080" stroke-miterlimit="10"/>
<path d="M678.974 1092.11C678.974 1092.11 681.017 1001.84 817.959 942.656C954.901 883.475 901.3 781.253 980.048 765.711C1058.8 750.168 1137.53 817.12 1137.53 817.12" stroke="#808080" stroke-miterlimit="10"/>
<path d="M775.299 1062.85C775.299 1062.85 765.028 988.723 869.444 979.159C973.86 969.593 1062.87 1050.62 1062.87 1050.62" stroke="#808080" stroke-miterlimit="10"/>
<path d="M942.191 1041.24L921.758 1026.97C921.31 1026.66 920.585 1026.66 920.138 1026.97L899.703 1041.24C899.256 1041.56 899.256 1042.06 899.703 1042.38L920.138 1056.65C920.585 1056.96 921.31 1056.96 921.758 1056.65L942.191 1042.38C942.64 1042.06 942.64 1041.56 942.191 1041.24Z" stroke="#E0363A" stroke-miterlimit="10"/>
<path d="M929.975 1041.57L921.292 1035.5C921.102 1035.37 920.793 1035.37 920.602 1035.5L911.92 1041.57C911.73 1041.7 911.73 1041.92 911.92 1042.05L920.602 1048.12C920.793 1048.25 921.102 1048.25 921.292 1048.12L929.975 1042.05C930.166 1041.92 930.166 1041.7 929.975 1041.57Z" fill="white"/>
<path d="M181.996 998.11L173.313 992.04C173.123 991.906 172.814 991.906 172.623 992.04L163.941 998.11C163.75 998.243 163.75 998.453 163.941 998.586L172.623 1004.66C172.814 1004.79 173.123 1004.79 173.313 1004.66L181.996 998.586C182.187 998.453 182.187 998.243 181.996 998.11Z" fill="white"/>
<path d="M263.384 366.63C265.618 366.63 267.427 365.365 267.427 363.806C267.427 362.246 265.618 360.982 263.384 360.982C261.151 360.982 259.34 362.246 259.34 363.806C259.34 365.365 261.151 366.63 263.384 366.63Z" fill="white"/>
<path d="M263.384 434.409C265.618 434.409 267.427 433.145 267.427 431.585C267.427 430.026 265.618 428.761 263.384 428.761C261.151 428.761 259.34 430.026 259.34 431.585C259.34 433.145 261.151 434.409 263.384 434.409Z" fill="#E0363A"/>
<path d="M263.384 400.52C265.618 400.52 267.427 399.257 267.427 397.696C267.427 396.136 265.618 394.872 263.384 394.872C261.151 394.872 259.34 396.136 259.34 397.696C259.34 399.257 261.151 400.52 263.384 400.52Z" fill="white"/>
<path d="M263.384 468.299C265.618 468.299 267.427 467.036 267.427 465.475C267.427 463.916 265.618 462.651 263.384 462.651C261.151 462.651 259.34 463.916 259.34 465.475C259.34 467.036 261.151 468.299 263.384 468.299Z" fill="#E0363A"/>
<path d="M360.425 366.63C362.658 366.63 364.469 365.365 364.469 363.806C364.469 362.246 362.658 360.982 360.425 360.982C358.192 360.982 356.382 362.246 356.382 363.806C356.382 365.365 358.192 366.63 360.425 366.63Z" fill="#E0363A"/>
<path d="M360.425 434.409C362.658 434.409 364.469 433.145 364.469 431.585C364.469 430.026 362.658 428.761 360.425 428.761C358.192 428.761 356.382 430.026 356.382 431.585C356.382 433.145 358.192 434.409 360.425 434.409Z" fill="#E0363A"/>
<path d="M360.425 400.52C362.658 400.52 364.469 399.257 364.469 397.696C364.469 396.136 362.658 394.872 360.425 394.872C358.192 394.872 356.382 396.136 356.382 397.696C356.382 399.257 358.192 400.52 360.425 400.52Z" fill="#E0363A"/>
<path d="M360.425 468.299C362.658 468.299 364.469 467.036 364.469 465.475C364.469 463.916 362.658 462.651 360.425 462.651C358.192 462.651 356.382 463.916 356.382 465.475C356.382 467.036 358.192 468.299 360.425 468.299Z" fill="#E0363A"/>
<path d="M311.906 366.63C314.139 366.63 315.949 365.365 315.949 363.806C315.949 362.246 314.139 360.982 311.906 360.982C309.672 360.982 307.862 362.246 307.862 363.806C307.862 365.365 309.672 366.63 311.906 366.63Z" fill="white"/>
<path d="M311.906 434.409C314.139 434.409 315.949 433.145 315.949 431.585C315.949 430.026 314.139 428.761 311.906 428.761C309.672 428.761 307.862 430.026 307.862 431.585C307.862 433.145 309.672 434.409 311.906 434.409Z" fill="#E0363A"/>
<path d="M311.906 400.52C314.139 400.52 315.949 399.257 315.949 397.696C315.949 396.136 314.139 394.872 311.906 394.872C309.672 394.872 307.862 396.136 307.862 397.696C307.862 399.257 309.672 400.52 311.906 400.52Z" fill="white"/>
<path d="M311.906 468.299C314.139 468.299 315.949 467.036 315.949 465.475C315.949 463.916 314.139 462.651 311.906 462.651C309.672 462.651 307.862 463.916 307.862 465.475C307.862 467.036 309.672 468.299 311.906 468.299Z" fill="#E0363A"/>
<path d="M408.945 366.63C411.177 366.63 412.988 365.365 412.988 363.806C412.988 362.246 411.177 360.982 408.945 360.982C406.712 360.982 404.901 362.246 404.901 363.806C404.901 365.365 406.712 366.63 408.945 366.63Z" fill="#E0363A"/>
<path d="M408.945 434.409C411.177 434.409 412.988 433.145 412.988 431.585C412.988 430.026 411.177 428.761 408.945 428.761C406.712 428.761 404.901 430.026 404.901 431.585C404.901 433.145 406.712 434.409 408.945 434.409Z" fill="#E0363A"/>
<path d="M408.945 400.52C411.177 400.52 412.988 399.257 412.988 397.696C412.988 396.136 411.177 394.872 408.945 394.872C406.712 394.872 404.901 396.136 404.901 397.696C404.901 399.257 406.712 400.52 408.945 400.52Z" fill="#E0363A"/>
<path d="M408.945 468.299C411.177 468.299 412.988 467.036 412.988 465.475C412.988 463.916 411.177 462.651 408.945 462.651C406.712 462.651 404.901 463.916 404.901 465.475C404.901 467.036 406.712 468.299 408.945 468.299Z" fill="#E0363A"/>
</g>
<defs>
<clipPath id="clip0_2312_49">
<rect width="1024" height="1080" fill="white"/>
</clipPath>
</defs>
</svg>
