<svg width="588" height="1080" viewBox="0 0 588 1080" fill="none" xmlns="http://www.w3.org/2000/svg">
<path d="M589.243 620.269C589.243 620.269 402.08 576.293 345.54 760.998C304.967 893.537 301.509 965.798 217.353 1002.24C133.197 1038.68 84.1938 1046.47 79.1678 1085.92" stroke="#808080" stroke-miterlimit="10"/>
<path d="M300.248 1085.92C300.248 1085.92 250.848 963.284 381.221 899.204C469.229 855.948 427.966 709.104 485.008 662.359C530.241 625.293 589.243 705.329 589.243 705.329" stroke="#808080" stroke-miterlimit="10"/>
<path d="M338.914 1119.06C338.914 1119.06 340.414 1024.2 440.934 962C541.454 899.805 502.109 792.377 559.913 776.043C617.717 759.709 675.513 830.071 675.513 830.071" stroke="#808080" stroke-miterlimit="10"/>
<path d="M409.62 1085.16C409.62 1085.16 402.081 1007.26 478.726 997.209C555.371 987.156 620.707 1072.31 620.707 1072.31" stroke="#808080" stroke-miterlimit="10"/>
<path d="M-37.8243 -13.655C-37.8243 -13.655 13.0547 76.131 138.76 60.169C279.701 42.269 340.28 145.964 305.36 216.796C270.44 287.628 115.339 302.596 137.024 417.318C158.709 532.04 -29.8403 583.921 -29.8403 583.921" stroke="#808080" stroke-miterlimit="10"/>
<path d="M-75.7325 90.097C-75.7325 90.097 31.7034 129.005 138.602 115.038C245.501 101.071 258.002 163.862 245.502 188.862C219.56 240.738 80.8945 250.715 71.9155 334.515C65.1665 397.509 118.803 482.163 -2.90655 527.056" stroke="#808080" stroke-miterlimit="10"/>
<path d="M-27.8473 131.998C-27.8473 131.998 81.9677 117.987 62.3647 179.884C39.8957 250.832 -12.8833 249.718 36.9977 339.504C54.7397 371.439 59.9427 500.121 -37.8243 474.183" stroke="#808080" stroke-miterlimit="10"/>
<path d="M158.21 203.827C185.483 203.827 207.592 191.768 207.592 176.891C207.592 162.015 185.483 149.955 158.21 149.955C130.937 149.955 108.828 162.015 108.828 176.891C108.828 191.768 130.937 203.827 158.21 203.827Z" stroke="#808080" stroke-miterlimit="10"/>
<path d="M444.838 58.945C446.533 58.945 447.908 57.5705 447.908 55.875C447.908 54.1795 446.533 52.805 444.838 52.805C443.142 52.805 441.768 54.1795 441.768 55.875C441.768 57.5705 443.142 58.945 444.838 58.945Z" fill="white"/>
<path d="M482.693 58.945C484.388 58.945 485.763 57.5705 485.763 55.875C485.763 54.1795 484.388 52.805 482.693 52.805C480.997 52.805 479.623 54.1795 479.623 55.875C479.623 57.5705 480.997 58.945 482.693 58.945Z" fill="white"/>
<path d="M520.548 58.945C522.243 58.945 523.618 57.5705 523.618 55.875C523.618 54.1795 522.243 52.805 520.548 52.805C518.852 52.805 517.478 54.1795 517.478 55.875C517.478 57.5705 518.852 58.945 520.548 58.945Z" fill="white"/>
<path d="M558.403 58.945C560.099 58.945 561.473 57.5705 561.473 55.875C561.473 54.1795 560.099 52.805 558.403 52.805C556.707 52.805 555.333 54.1795 555.333 55.875C555.333 57.5705 556.707 58.945 558.403 58.945Z" fill="white"/>
<path d="M444.838 92.146C446.533 92.146 447.908 90.7715 447.908 89.076C447.908 87.3805 446.533 86.006 444.838 86.006C443.142 86.006 441.768 87.3805 441.768 89.076C441.768 90.7715 443.142 92.146 444.838 92.146Z" fill="white"/>
<path d="M482.693 92.146C484.388 92.146 485.763 90.7715 485.763 89.076C485.763 87.3805 484.388 86.006 482.693 86.006C480.997 86.006 479.623 87.3805 479.623 89.076C479.623 90.7715 480.997 92.146 482.693 92.146Z" fill="white"/>
<path d="M520.548 92.146C522.243 92.146 523.618 90.7715 523.618 89.076C523.618 87.3805 522.243 86.006 520.548 86.006C518.852 86.006 517.478 87.3805 517.478 89.076C517.478 90.7715 518.852 92.146 520.548 92.146Z" fill="white"/>
<path d="M558.403 92.146C560.099 92.146 561.473 90.7715 561.473 89.076C561.473 87.3805 560.099 86.006 558.403 86.006C556.707 86.006 555.333 87.3805 555.333 89.076C555.333 90.7715 556.707 92.146 558.403 92.146Z" fill="white"/>
<path d="M447.908 122.276C447.908 122.883 447.728 123.477 447.391 123.982C447.053 124.487 446.574 124.88 446.013 125.112C445.452 125.345 444.834 125.406 444.239 125.287C443.643 125.169 443.096 124.876 442.667 124.447C442.238 124.018 441.945 123.47 441.827 122.875C441.708 122.279 441.769 121.662 442.002 121.101C442.234 120.54 442.627 120.061 443.132 119.723C443.637 119.386 444.231 119.206 444.838 119.206C445.241 119.206 445.64 119.285 446.013 119.44C446.385 119.594 446.724 119.82 447.009 120.105C447.294 120.39 447.52 120.729 447.674 121.101C447.828 121.474 447.908 121.873 447.908 122.276Z" fill="white"/>
<path d="M485.764 122.276C485.764 122.883 485.584 123.477 485.247 123.982C484.909 124.487 484.43 124.88 483.869 125.112C483.308 125.345 482.69 125.406 482.095 125.287C481.499 125.169 480.952 124.876 480.523 124.447C480.094 124.018 479.801 123.47 479.683 122.875C479.564 122.279 479.625 121.662 479.858 121.101C480.09 120.54 480.483 120.061 480.988 119.723C481.493 119.386 482.087 119.206 482.694 119.206C483.508 119.206 484.289 119.529 484.865 120.105C485.44 120.681 485.764 121.462 485.764 122.276Z" fill="white"/>
<path d="M523.619 122.276C523.619 122.883 523.439 123.477 523.102 123.982C522.764 124.486 522.285 124.88 521.724 125.112C521.163 125.345 520.546 125.405 519.95 125.287C519.355 125.169 518.808 124.876 518.379 124.447C517.949 124.018 517.657 123.471 517.538 122.876C517.419 122.28 517.48 121.663 517.712 121.102C517.945 120.541 518.338 120.061 518.843 119.724C519.347 119.386 519.941 119.206 520.548 119.206C521.362 119.206 522.143 119.529 522.719 120.105C523.295 120.681 523.619 121.462 523.619 122.276Z" fill="white"/>
<path d="M561.475 122.276C561.475 122.883 561.295 123.477 560.958 123.982C560.62 124.486 560.141 124.88 559.58 125.112C559.019 125.345 558.402 125.405 557.806 125.287C557.211 125.169 556.664 124.876 556.234 124.447C555.805 124.018 555.513 123.471 555.394 122.876C555.275 122.28 555.336 121.663 555.568 121.102C555.801 120.541 556.194 120.061 556.699 119.724C557.203 119.386 557.797 119.206 558.404 119.206C559.218 119.206 559.999 119.529 560.575 120.105C561.151 120.681 561.475 121.462 561.475 122.276Z" fill="white"/>
<path d="M436.028 379.657H432.889V394.274H436.028V379.657Z" fill="white"/>
<path d="M441.767 388.535V385.396H427.15V388.535H441.767Z" fill="white"/>
<path d="M175.363 125.347H172.224V139.964H175.363V125.347Z" fill="white"/>
<path d="M181.102 134.225V131.086H166.485V134.225H181.102Z" fill="white"/>
<path d="M532.125 942.651L517.126 927.652C516.797 927.323 516.265 927.323 515.936 927.652L500.937 942.651C500.609 942.979 500.609 943.512 500.937 943.84L515.936 958.839C516.265 959.168 516.797 959.168 517.126 958.839L532.125 943.84C532.453 943.512 532.453 942.979 532.125 942.651Z" stroke="#E0363A" stroke-miterlimit="10"/>
<path d="M523.158 942.991L516.784 936.617C516.644 936.477 516.418 936.477 516.278 936.617L509.904 942.991C509.765 943.131 509.765 943.357 509.904 943.497L516.278 949.871C516.418 950.01 516.644 950.01 516.784 949.871L523.158 943.497C523.298 943.357 523.298 943.131 523.158 942.991Z" fill="white"/>
<path d="M57.7947 1033.94L51.4211 1027.56C51.2813 1027.42 51.0546 1027.42 50.9149 1027.56L44.5413 1033.94C44.4015 1034.08 44.4015 1034.3 44.5413 1034.44L50.9149 1040.82C51.0546 1040.96 51.2813 1040.96 51.4211 1040.82L57.7947 1034.44C57.9345 1034.3 57.9345 1034.08 57.7947 1033.94Z" fill="white"/>
<path d="M117.536 370.301C119.175 370.301 120.504 368.972 120.504 367.333C120.504 365.694 119.175 364.365 117.536 364.365C115.897 364.365 114.568 365.694 114.568 367.333C114.568 368.972 115.897 370.301 117.536 370.301Z" fill="white"/>
<path d="M117.536 441.532C119.175 441.532 120.504 440.203 120.504 438.564C120.504 436.925 119.175 435.596 117.536 435.596C115.897 435.596 114.568 436.925 114.568 438.564C114.568 440.203 115.897 441.532 117.536 441.532Z" fill="#E0363A"/>
<path d="M117.536 405.917C119.175 405.917 120.504 404.588 120.504 402.949C120.504 401.31 119.175 399.981 117.536 399.981C115.897 399.981 114.568 401.31 114.568 402.949C114.568 404.588 115.897 405.917 117.536 405.917Z" fill="white"/>
<path d="M117.536 477.148C119.175 477.148 120.504 475.819 120.504 474.18C120.504 472.541 119.175 471.212 117.536 471.212C115.897 471.212 114.568 472.541 114.568 474.18C114.568 475.819 115.897 477.148 117.536 477.148Z" fill="#E0363A"/>
<path d="M188.767 370.301C190.406 370.301 191.735 368.972 191.735 367.333C191.735 365.694 190.406 364.365 188.767 364.365C187.128 364.365 185.799 365.694 185.799 367.333C185.799 368.972 187.128 370.301 188.767 370.301Z" fill="#E0363A"/>
<path d="M188.767 441.532C190.406 441.532 191.735 440.203 191.735 438.564C191.735 436.925 190.406 435.596 188.767 435.596C187.128 435.596 185.799 436.925 185.799 438.564C185.799 440.203 187.128 441.532 188.767 441.532Z" fill="#E0363A"/>
<path d="M188.767 405.917C190.406 405.917 191.735 404.588 191.735 402.949C191.735 401.31 190.406 399.981 188.767 399.981C187.128 399.981 185.799 401.31 185.799 402.949C185.799 404.588 187.128 405.917 188.767 405.917Z" fill="#E0363A"/>
<path d="M188.767 477.148C190.406 477.148 191.735 475.819 191.735 474.18C191.735 472.541 190.406 471.212 188.767 471.212C187.128 471.212 185.799 472.541 185.799 474.18C185.799 475.819 187.128 477.148 188.767 477.148Z" fill="#E0363A"/>
<path d="M153.152 370.301C154.791 370.301 156.12 368.972 156.12 367.333C156.12 365.694 154.791 364.365 153.152 364.365C151.513 364.365 150.184 365.694 150.184 367.333C150.184 368.972 151.513 370.301 153.152 370.301Z" fill="white"/>
<path d="M153.152 441.532C154.791 441.532 156.12 440.203 156.12 438.564C156.12 436.925 154.791 435.596 153.152 435.596C151.513 435.596 150.184 436.925 150.184 438.564C150.184 440.203 151.513 441.532 153.152 441.532Z" fill="#E0363A"/>
<path d="M153.152 405.917C154.791 405.917 156.12 404.588 156.12 402.949C156.12 401.31 154.791 399.981 153.152 399.981C151.513 399.981 150.184 401.31 150.184 402.949C150.184 404.588 151.513 405.917 153.152 405.917Z" fill="white"/>
<path d="M153.152 477.148C154.791 477.148 156.12 475.819 156.12 474.18C156.12 472.541 154.791 471.212 153.152 471.212C151.513 471.212 150.184 472.541 150.184 474.18C150.184 475.819 151.513 477.148 153.152 477.148Z" fill="#E0363A"/>
<path d="M224.383 370.301C226.022 370.301 227.351 368.972 227.351 367.333C227.351 365.694 226.022 364.365 224.383 364.365C222.744 364.365 221.415 365.694 221.415 367.333C221.415 368.972 222.744 370.301 224.383 370.301Z" fill="#E0363A"/>
<path d="M224.383 441.532C226.022 441.532 227.351 440.203 227.351 438.564C227.351 436.925 226.022 435.596 224.383 435.596C222.744 435.596 221.415 436.925 221.415 438.564C221.415 440.203 222.744 441.532 224.383 441.532Z" fill="#E0363A"/>
<path d="M224.383 405.917C226.022 405.917 227.351 404.588 227.351 402.949C227.351 401.31 226.022 399.981 224.383 399.981C222.744 399.981 221.415 401.31 221.415 402.949C221.415 404.588 222.744 405.917 224.383 405.917Z" fill="#E0363A"/>
<path d="M224.383 477.148C226.022 477.148 227.351 475.819 227.351 474.18C227.351 472.541 226.022 471.212 224.383 471.212C222.744 471.212 221.415 472.541 221.415 474.18C221.415 475.819 222.744 477.148 224.383 477.148Z" fill="#E0363A"/>
</svg>
