<svg width="37" height="37" viewBox="0 0 37 37" fill="none" xmlns="http://www.w3.org/2000/svg">
<path d="M13.8477 7.64167C10.1077 11.84 7.54102 17.8717 7.30268 18.44L0.666016 15.5983L9.48435 6.78L13.8477 7.64167ZM17.4777 27.1667C17.4777 27.1667 24.3343 24.325 28.276 20.3833C38.176 10.4833 36.526 2.74667 35.9944 1.005C34.2527 0.455003 26.516 -1.17666 16.616 8.72334C12.6743 12.665 9.83268 19.5217 9.83268 19.5217L17.4777 27.1667ZM29.3577 23.1517C25.1593 26.8917 19.1277 29.4583 18.5593 29.6967L21.401 36.3333L30.2194 27.515L29.3577 23.1517ZM13.4993 29C13.4993 30.5217 12.876 31.8967 11.886 32.8867C9.72268 35.05 0.666016 36.3333 0.666016 36.3333C0.666016 36.3333 1.94935 27.2767 4.11268 25.1133C4.88048 24.3415 5.86031 23.8153 6.92776 23.6014C7.99522 23.3876 9.10215 23.4958 10.108 23.9123C11.1138 24.3288 11.9732 25.0347 12.5771 25.9406C13.1809 26.8465 13.5019 27.9113 13.4993 29ZM20.8327 12.5C20.8327 10.4833 22.4827 8.83334 24.4993 8.83334C26.516 8.83334 28.166 10.4833 28.166 12.5C28.166 14.5167 26.516 16.1667 24.4993 16.1667C22.4827 16.1667 20.8327 14.5167 20.8327 12.5Z" fill="#12103B"/>
</svg>
