<svg width="42" height="42" viewBox="0 0 42 42" fill="none" xmlns="http://www.w3.org/2000/svg">
<path d="M12.8835 0.65686C13.7509 1.57931 14.3224 2.69169 14.6506 3.89301C15.1836 5.84439 15.1495 8.03073 14.9703 10.2605C14.6114 14.7201 13.7173 19.4138 14.7606 22.3267C15.7399 25.0607 17.3102 26.6846 19.0523 27.4829C19.8017 27.8265 20.5906 28.0166 21.3886 28.0658C23.296 22.4726 22.8891 15.3346 19.7506 10.5102C23.9059 14.6553 25.8685 20.9145 24.6006 27.4749L23.8461 27.7782C24.0817 27.7079 24.3138 27.6264 24.5416 27.5339C28.1323 26.0841 31.0707 21.8403 29.8482 15.6182C29.2865 12.7595 27.3589 8.72906 24.1334 5.60652C21.3428 2.90533 17.617 0.861735 12.8835 0.657032L12.8835 0.65686ZM37.2869 16.4292C37.2148 17.4691 36.8884 18.4512 36.3795 19.3431C35.4897 20.902 34.1066 22.2441 32.6089 23.5191C29.6134 26.0688 26.1586 28.4309 25.0195 30.8425C23.9405 33.127 23.9122 35.0751 24.4879 36.6246C24.7337 37.2878 25.1017 37.899 25.5728 38.4266C30.1883 36.1246 34.3152 31.4734 35.3534 26.5646C35.3599 31.6904 32.7211 36.7643 27.9091 40.0487C30.9858 41.2987 35.324 40.4813 38.3694 35.9452C39.7803 33.8435 41.0814 30.1616 41.0173 26.245C40.9628 22.9203 39.9634 19.4362 37.287 16.4295L37.2869 16.4292ZM0.774345 22.7431C-0.0406 26.6857 0.835189 30.2052 2.45013 33.1119C4.35244 36.5357 7.32124 39.0739 9.59368 40.1883C14.4981 42.5935 18.6613 41.1308 20.7011 38.5099C14.8926 38.0716 10.0713 34.9974 7.5152 30.5553C10.8685 34.2874 16.7671 36.2521 21.9151 35.9371C22.0598 35.2449 22.0735 34.5317 21.9554 33.8344C21.6792 32.2046 20.6776 30.5304 18.6011 29.0917C16.4093 27.5732 12.2379 27.2561 8.36916 26.5458C6.43488 26.1909 4.56668 25.7216 3.01697 24.8164C2.12984 24.2982 1.35717 23.6081 0.774517 22.7431L0.774345 22.7431Z" fill="#12103B"/>
</svg>
