<svg width="588" height="1080" viewBox="0 0 588 1080" fill="none" xmlns="http://www.w3.org/2000/svg">
<path d="M589.243 620.269C589.243 620.269 402.08 576.293 345.54 760.998C304.967 893.537 301.509 965.798 217.353 1002.24C133.197 1038.68 84.194 1046.47 79.168 1085.92" stroke="#808080" stroke-miterlimit="10"/>
<path d="M300.248 1085.92C300.248 1085.92 250.848 963.285 381.221 899.205C469.229 855.949 427.966 709.105 485.008 662.36C530.241 625.294 589.243 705.33 589.243 705.33" stroke="#808080" stroke-miterlimit="10"/>
<path d="M338.914 1119.06C338.914 1119.06 340.414 1024.2 440.934 962C541.454 899.805 502.109 792.377 559.913 776.043C617.717 759.709 675.513 830.071 675.513 830.071" stroke="#808080" stroke-miterlimit="10"/>
<path d="M409.62 1085.16C409.62 1085.16 402.081 1007.26 478.726 997.209C555.371 987.156 620.707 1072.31 620.707 1072.31" stroke="#808080" stroke-miterlimit="10"/>
<path d="M-37.8242 -13.6548C-37.8242 -13.6548 13.0548 76.1312 138.76 60.1692C279.701 42.2692 340.28 145.964 305.36 216.796C270.44 287.628 115.339 302.596 137.024 417.318C158.709 532.04 -29.8402 583.921 -29.8402 583.921" stroke="#808080" stroke-miterlimit="10"/>
<path d="M-75.7324 90.0972C-75.7324 90.0972 31.7036 129.005 138.603 115.038C245.502 101.071 258.003 163.862 245.503 188.862C219.561 240.738 80.8946 250.715 71.9156 334.515C65.1666 397.509 118.804 482.163 -2.90643 527.056" stroke="#808080" stroke-miterlimit="10"/>
<path d="M-27.8472 131.998C-27.8472 131.998 81.9678 117.987 62.3648 179.884C39.8958 250.832 -12.8832 249.718 36.9978 339.504C54.7398 371.439 59.9428 500.121 -37.8242 474.183" stroke="#808080" stroke-miterlimit="10"/>
<path d="M158.21 203.828C185.483 203.828 207.592 191.768 207.592 176.892C207.592 162.015 185.483 149.956 158.21 149.956C130.937 149.956 108.828 162.015 108.828 176.892C108.828 191.768 130.937 203.828 158.21 203.828Z" stroke="#808080" stroke-miterlimit="10"/>
<path d="M444.838 58.9452C446.533 58.9452 447.908 57.5707 447.908 55.8752C447.908 54.1797 446.533 52.8052 444.838 52.8052C443.142 52.8052 441.768 54.1797 441.768 55.8752C441.768 57.5707 443.142 58.9452 444.838 58.9452Z" fill="white"/>
<path d="M482.693 58.9452C484.389 58.9452 485.763 57.5707 485.763 55.8752C485.763 54.1797 484.389 52.8052 482.693 52.8052C480.998 52.8052 479.623 54.1797 479.623 55.8752C479.623 57.5707 480.998 58.9452 482.693 58.9452Z" fill="white"/>
<path d="M520.548 58.9452C522.243 58.9452 523.618 57.5707 523.618 55.8752C523.618 54.1797 522.243 52.8052 520.548 52.8052C518.852 52.8052 517.478 54.1797 517.478 55.8752C517.478 57.5707 518.852 58.9452 520.548 58.9452Z" fill="white"/>
<path d="M558.403 58.9452C560.099 58.9452 561.473 57.5707 561.473 55.8752C561.473 54.1797 560.099 52.8052 558.403 52.8052C556.707 52.8052 555.333 54.1797 555.333 55.8752C555.333 57.5707 556.707 58.9452 558.403 58.9452Z" fill="white"/>
<path d="M444.838 92.1463C446.533 92.1463 447.908 90.7719 447.908 89.0763C447.908 87.3808 446.533 86.0063 444.838 86.0063C443.142 86.0063 441.768 87.3808 441.768 89.0763C441.768 90.7719 443.142 92.1463 444.838 92.1463Z" fill="white"/>
<path d="M482.693 92.1463C484.389 92.1463 485.763 90.7719 485.763 89.0763C485.763 87.3808 484.389 86.0063 482.693 86.0063C480.998 86.0063 479.623 87.3808 479.623 89.0763C479.623 90.7719 480.998 92.1463 482.693 92.1463Z" fill="white"/>
<path d="M520.548 92.1463C522.243 92.1463 523.618 90.7719 523.618 89.0763C523.618 87.3808 522.243 86.0063 520.548 86.0063C518.852 86.0063 517.478 87.3808 517.478 89.0763C517.478 90.7719 518.852 92.1463 520.548 92.1463Z" fill="white"/>
<path d="M558.403 92.1463C560.099 92.1463 561.473 90.7719 561.473 89.0763C561.473 87.3808 560.099 86.0063 558.403 86.0063C556.707 86.0063 555.333 87.3808 555.333 89.0763C555.333 90.7719 556.707 92.1463 558.403 92.1463Z" fill="white"/>
<path d="M447.908 122.276C447.908 122.883 447.728 123.477 447.39 123.982C447.053 124.487 446.573 124.88 446.012 125.112C445.451 125.345 444.834 125.406 444.239 125.287C443.643 125.169 443.096 124.876 442.667 124.447C442.238 124.018 441.945 123.471 441.827 122.875C441.708 122.279 441.769 121.662 442.001 121.101C442.234 120.54 442.627 120.061 443.132 119.723C443.637 119.386 444.23 119.206 444.838 119.206C445.241 119.206 445.64 119.285 446.012 119.44C446.385 119.594 446.723 119.82 447.008 120.105C447.294 120.39 447.52 120.729 447.674 121.101C447.828 121.474 447.908 121.873 447.908 122.276Z" fill="white"/>
<path d="M485.763 122.276C485.763 122.883 485.583 123.477 485.246 123.982C484.908 124.487 484.429 124.88 483.868 125.112C483.307 125.345 482.69 125.406 482.094 125.287C481.499 125.169 480.951 124.876 480.522 124.447C480.093 124.018 479.8 123.471 479.682 122.875C479.564 122.279 479.624 121.662 479.857 121.101C480.089 120.54 480.483 120.061 480.987 119.723C481.492 119.386 482.086 119.206 482.693 119.206C483.507 119.206 484.288 119.529 484.864 120.105C485.44 120.681 485.763 121.462 485.763 122.276Z" fill="white"/>
<path d="M523.619 122.276C523.619 122.883 523.439 123.477 523.101 123.982C522.764 124.486 522.285 124.88 521.724 125.112C521.163 125.345 520.545 125.405 519.95 125.287C519.354 125.169 518.808 124.877 518.378 124.447C517.949 124.018 517.656 123.471 517.538 122.876C517.419 122.28 517.48 121.663 517.712 121.102C517.944 120.541 518.338 120.061 518.842 119.724C519.347 119.386 519.94 119.206 520.548 119.206C521.362 119.206 522.143 119.529 522.719 120.105C523.295 120.681 523.618 121.462 523.619 122.276Z" fill="white"/>
<path d="M561.475 122.276C561.475 122.883 561.295 123.477 560.958 123.982C560.62 124.486 560.141 124.88 559.58 125.112C559.019 125.345 558.402 125.405 557.806 125.287C557.211 125.169 556.664 124.877 556.234 124.447C555.805 124.018 555.513 123.471 555.394 122.876C555.275 122.28 555.336 121.663 555.568 121.102C555.801 120.541 556.194 120.061 556.699 119.724C557.203 119.386 557.797 119.206 558.404 119.206C559.218 119.206 559.999 119.529 560.575 120.105C561.151 120.681 561.475 121.462 561.475 122.276Z" fill="white"/>
<path d="M436.029 379.657H432.89V394.274H436.029V379.657Z" fill="white"/>
<path d="M441.768 388.535V385.396H427.151V388.535H441.768Z" fill="white"/>
<path d="M175.364 125.347H172.225V139.964H175.364V125.347Z" fill="white"/>
<path d="M181.103 134.225V131.086H166.486V134.225H181.103Z" fill="white"/>
<path d="M532.125 942.651L517.126 927.652C516.797 927.323 516.265 927.323 515.937 927.652L500.937 942.651C500.609 942.979 500.609 943.512 500.937 943.84L515.937 958.839C516.265 959.168 516.797 959.168 517.126 958.839L532.125 943.84C532.454 943.512 532.454 942.979 532.125 942.651Z" stroke="#E0363A" stroke-miterlimit="10"/>
<path d="M523.158 942.991L516.784 936.617C516.645 936.478 516.418 936.478 516.278 936.617L509.905 942.991C509.765 943.131 509.765 943.357 509.905 943.497L516.278 949.871C516.418 950.011 516.645 950.011 516.784 949.871L523.158 943.497C523.298 943.357 523.298 943.131 523.158 942.991Z" fill="white"/>
<path d="M57.7947 1033.94L51.4211 1027.56C51.2813 1027.42 51.0546 1027.42 50.9149 1027.56L44.5413 1033.94C44.4015 1034.08 44.4015 1034.3 44.5413 1034.44L50.9149 1040.82C51.0546 1040.96 51.2813 1040.96 51.4211 1040.82L57.7947 1034.44C57.9345 1034.3 57.9345 1034.08 57.7947 1033.94Z" fill="white"/>
<path d="M117.536 370.301C119.176 370.301 120.504 368.972 120.504 367.333C120.504 365.694 119.176 364.365 117.536 364.365C115.897 364.365 114.568 365.694 114.568 367.333C114.568 368.972 115.897 370.301 117.536 370.301Z" fill="white"/>
<path d="M117.536 441.532C119.176 441.532 120.504 440.203 120.504 438.564C120.504 436.925 119.176 435.596 117.536 435.596C115.897 435.596 114.568 436.925 114.568 438.564C114.568 440.203 115.897 441.532 117.536 441.532Z" fill="#E0363A"/>
<path d="M117.536 405.917C119.176 405.917 120.504 404.589 120.504 402.949C120.504 401.31 119.176 399.981 117.536 399.981C115.897 399.981 114.568 401.31 114.568 402.949C114.568 404.589 115.897 405.917 117.536 405.917Z" fill="white"/>
<path d="M117.536 477.148C119.176 477.148 120.504 475.82 120.504 474.18C120.504 472.541 119.176 471.212 117.536 471.212C115.897 471.212 114.568 472.541 114.568 474.18C114.568 475.82 115.897 477.148 117.536 477.148Z" fill="#E0363A"/>
<path d="M188.768 370.301C190.407 370.301 191.736 368.972 191.736 367.333C191.736 365.694 190.407 364.365 188.768 364.365C187.129 364.365 185.8 365.694 185.8 367.333C185.8 368.972 187.129 370.301 188.768 370.301Z" fill="#E0363A"/>
<path d="M188.768 441.532C190.407 441.532 191.736 440.203 191.736 438.564C191.736 436.925 190.407 435.596 188.768 435.596C187.129 435.596 185.8 436.925 185.8 438.564C185.8 440.203 187.129 441.532 188.768 441.532Z" fill="#E0363A"/>
<path d="M188.768 405.917C190.407 405.917 191.736 404.589 191.736 402.949C191.736 401.31 190.407 399.981 188.768 399.981C187.129 399.981 185.8 401.31 185.8 402.949C185.8 404.589 187.129 405.917 188.768 405.917Z" fill="#E0363A"/>
<path d="M188.768 477.148C190.407 477.148 191.736 475.82 191.736 474.18C191.736 472.541 190.407 471.212 188.768 471.212C187.129 471.212 185.8 472.541 185.8 474.18C185.8 475.82 187.129 477.148 188.768 477.148Z" fill="#E0363A"/>
<path d="M153.153 370.301C154.792 370.301 156.121 368.972 156.121 367.333C156.121 365.694 154.792 364.365 153.153 364.365C151.513 364.365 150.185 365.694 150.185 367.333C150.185 368.972 151.513 370.301 153.153 370.301Z" fill="white"/>
<path d="M153.153 441.532C154.792 441.532 156.121 440.203 156.121 438.564C156.121 436.925 154.792 435.596 153.153 435.596C151.513 435.596 150.185 436.925 150.185 438.564C150.185 440.203 151.513 441.532 153.153 441.532Z" fill="#E0363A"/>
<path d="M153.153 405.917C154.792 405.917 156.121 404.589 156.121 402.949C156.121 401.31 154.792 399.981 153.153 399.981C151.513 399.981 150.185 401.31 150.185 402.949C150.185 404.589 151.513 405.917 153.153 405.917Z" fill="white"/>
<path d="M153.153 477.148C154.792 477.148 156.121 475.82 156.121 474.18C156.121 472.541 154.792 471.212 153.153 471.212C151.513 471.212 150.185 472.541 150.185 474.18C150.185 475.82 151.513 477.148 153.153 477.148Z" fill="#E0363A"/>
<path d="M224.383 370.301C226.022 370.301 227.351 368.972 227.351 367.333C227.351 365.694 226.022 364.365 224.383 364.365C222.744 364.365 221.415 365.694 221.415 367.333C221.415 368.972 222.744 370.301 224.383 370.301Z" fill="#E0363A"/>
<path d="M224.383 441.532C226.022 441.532 227.351 440.203 227.351 438.564C227.351 436.925 226.022 435.596 224.383 435.596C222.744 435.596 221.415 436.925 221.415 438.564C221.415 440.203 222.744 441.532 224.383 441.532Z" fill="#E0363A"/>
<path d="M224.383 405.917C226.022 405.917 227.351 404.589 227.351 402.949C227.351 401.31 226.022 399.981 224.383 399.981C222.744 399.981 221.415 401.31 221.415 402.949C221.415 404.589 222.744 405.917 224.383 405.917Z" fill="#E0363A"/>
<path d="M224.383 477.148C226.022 477.148 227.351 475.82 227.351 474.18C227.351 472.541 226.022 471.212 224.383 471.212C222.744 471.212 221.415 472.541 221.415 474.18C221.415 475.82 222.744 477.148 224.383 477.148Z" fill="#E0363A"/>
</svg>
